<?xml version="1.0" standalone="no"?>
<!DOCTYPE svg PUBLIC "-//W3C//DTD SVG 20010904//EN"
 "http://www.w3.org/TR/2001/REC-SVG-20010904/DTD/svg10.dtd">
<svg version="1.0" xmlns="http://www.w3.org/2000/svg"
 width="6000.000000pt" height="4000.000000pt" viewBox="0 0 6000.000000 4000.000000"
 preserveAspectRatio="xMidYMid meet">

<g transform="translate(0.000000,4000.000000) scale(0.100000,-0.100000)"
fill="#000000" stroke="none">
<path d="M0 36615 c0 -2093 4 -3385 9 -3385 5 0 21 4 35 10 19 7 33 5 56 -8
27 -15 30 -21 26 -55 -5 -46 -30 -87 -54 -87 -9 0 -29 7 -44 14 l-28 15 0
-16560 0 -16559 30000 0 30000 0 0 20000 0 20000 -30000 0 -30000 0 0 -3385z
m30100 3336 c0 -25 -6 -28 -60 -32 -39 -3 -45 -1 -45 16 0 14 9 22 30 26 58
13 75 10 75 -10z m501 -498 c-12 -20 -14 -14 -5 12 4 9 9 14 11 11 3 -2 0 -13
-6 -23z m-18 -40 c-7 -2 -19 -2 -25 0 -7 3 -2 5 12 5 14 0 19 -2 13 -5z m7
-99 c0 -14 -3 -14 -15 -4 -8 7 -15 14 -15 16 0 2 7 4 15 4 8 0 15 -7 15 -16z
m50 6 c0 -5 -4 -10 -10 -10 -5 0 -10 5 -10 10 0 6 5 10 10 10 6 0 10 -4 10
-10z m111 -116 c2 2 16 6 32 10 21 5 27 3 27 -9 0 -12 6 -15 23 -9 36 11 67
13 67 3 0 -5 13 -9 29 -9 16 0 36 -7 45 -15 13 -14 16 -13 25 2 8 16 11 15 21
-9 8 -17 18 -24 30 -21 15 4 18 1 13 -16 -3 -12 -1 -21 6 -21 6 0 11 9 11 20
0 12 7 20 18 20 22 0 50 -31 44 -50 -3 -9 0 -11 14 -5 38 15 64 17 79 5 8 -7
21 -10 29 -7 10 4 19 -4 28 -24 13 -29 28 -39 28 -18 0 7 10 5 25 -5 19 -13
23 -13 19 -2 -4 11 0 13 15 9 11 -3 18 -9 15 -14 -3 -5 2 -12 11 -15 11 -5 15
-14 11 -28 -5 -21 -5 -21 13 1 12 15 25 20 39 16 16 -4 26 3 42 28 15 23 19
27 15 12 -4 -16 -2 -23 7 -23 11 0 11 -2 0 -9 -10 -6 -5 -10 17 -14 17 -4 31
-13 31 -21 0 -17 27 -29 35 -16 4 6 3 14 0 20 -4 6 10 9 37 7 37 -2 42 -5 41
-24 -2 -39 -3 -43 -12 -43 -4 0 -6 12 -3 28 l5 27 -22 -27 c-11 -14 -21 -31
-21 -36 0 -12 24 -22 56 -22 17 0 22 -4 18 -15 -4 -10 0 -15 14 -15 15 0 19
-5 15 -20 -4 -16 0 -20 21 -20 17 0 26 5 26 16 0 9 6 14 13 11 6 -2 11 -16 9
-31 -3 -31 15 -35 27 -4 6 18 9 19 14 5 4 -10 2 -17 -3 -17 -5 0 -7 -7 -4 -15
4 -8 -1 -17 -10 -21 -23 -9 -20 -17 11 -31 30 -14 43 -9 25 9 -20 20 -14 27
18 25 17 -1 28 -7 26 -13 -2 -6 6 -16 17 -24 21 -13 21 -13 2 -21 -16 -6 -12
-8 21 -14 36 -6 43 -11 48 -37 3 -17 3 -34 0 -39 -3 -5 5 -7 18 -5 13 2 22 8
21 14 -3 12 52 10 64 -2 5 -5 1 -7 -9 -3 -15 5 -24 -4 -15 -17 1 -2 -6 -13
-15 -23 -14 -15 -15 -22 -6 -31 18 -18 27 -14 21 8 -4 15 0 20 15 20 12 0 19
-6 18 -16 0 -9 5 -19 13 -22 8 -3 11 0 7 6 -9 16 13 26 28 13 7 -6 21 -9 30
-5 18 7 22 -11 5 -21 -6 -4 -8 -14 -5 -22 5 -11 0 -13 -17 -8 -20 5 -19 4 6
-16 20 -15 26 -27 21 -41 -5 -18 -3 -19 24 -14 37 9 102 -27 102 -55 0 -10 7
-19 15 -19 8 0 15 -4 15 -10 0 -5 -7 -10 -15 -10 -21 0 -19 -12 6 -33 23 -21
54 -15 45 8 -3 8 -1 15 4 15 9 0 14 -14 11 -32 0 -5 6 -8 14 -8 8 0 15 5 15
11 0 5 5 7 10 4 6 -3 10 -15 10 -26 0 -10 5 -19 10 -19 6 0 10 -4 10 -10 0 -5
-7 -10 -15 -10 -8 0 -15 5 -15 10 0 6 -7 10 -15 10 -14 0 -13 -3 2 -25 10 -13
24 -22 31 -20 6 2 12 1 12 -4 0 -4 11 -14 25 -21 22 -12 23 -15 10 -33 -12
-17 -11 -23 8 -48 11 -16 30 -29 42 -29 14 0 24 -10 32 -31 11 -28 14 -30 28
-16 8 9 15 21 15 28 0 10 3 10 12 1 10 -10 10 -15 -2 -22 -12 -7 -12 -12 3
-28 17 -18 17 -21 1 -36 -13 -13 -14 -19 -4 -31 13 -15 35 -21 26 -7 -6 11 6
30 22 34 9 2 15 -9 17 -33 3 -31 0 -38 -18 -44 l-22 -8 23 -4 c13 -3 22 -12
22 -23 0 -13 5 -17 20 -13 15 4 20 0 20 -15 0 -11 -6 -22 -12 -25 -7 -2 -10
-8 -5 -12 4 -5 12 -4 18 2 19 19 38 -7 28 -35 -5 -14 -5 -21 0 -17 5 3 12 1
16 -5 3 -5 -1 -10 -9 -10 -11 0 -16 -10 -16 -31 0 -19 4 -28 11 -24 6 4 8 14
5 22 -4 11 -2 13 9 9 8 -3 15 0 15 6 0 9 3 9 12 0 10 -10 10 -15 -1 -21 -18
-12 -5 -32 16 -24 11 4 14 2 11 -8 -3 -8 -13 -13 -23 -11 -11 2 -15 -1 -11
-10 3 -7 9 -21 12 -30 4 -10 13 -18 20 -18 19 0 18 -16 -2 -24 -8 -3 -12 -10
-9 -16 4 -6 10 -8 15 -5 4 3 15 2 24 -1 13 -5 14 -9 5 -20 -16 -19 10 -28 45
-15 24 10 26 9 18 -7 -5 -9 -12 -34 -15 -55 -6 -36 -5 -37 21 -35 22 2 28 -2
31 -22 1 -14 8 -28 13 -31 6 -4 1 -10 -11 -14 -27 -8 -18 -25 9 -18 15 4 20 0
20 -16 0 -11 4 -21 9 -21 5 0 7 -9 4 -20 -4 -14 -1 -20 7 -18 24 6 21 -21 -4
-47 -25 -25 -17 -47 9 -25 8 7 15 11 16 9 0 -2 2 -13 4 -23 2 -10 10 -23 17
-27 11 -7 10 -11 -1 -18 -12 -8 -10 -11 10 -16 32 -9 88 -95 61 -95 -4 0 -16
11 -26 25 -18 24 -56 35 -56 16 0 -5 -7 -17 -16 -25 -14 -15 -14 -16 4 -16 11
0 22 6 25 13 3 8 14 3 32 -16 15 -16 24 -31 21 -34 -3 -3 -14 5 -25 18 -18 22
-20 22 -26 6 -9 -22 -8 -23 31 -31 27 -6 32 -4 37 16 5 16 9 20 17 12 17 -17
1 -64 -20 -64 -10 0 -21 6 -23 13 -3 6 -6 2 -6 -10 -1 -18 5 -23 23 -23 16 0
26 -7 29 -22 7 -26 -8 -48 -33 -48 -17 0 -17 -2 -4 -30 9 -16 23 -34 32 -39
16 -9 15 -11 -3 -25 -19 -14 -19 -15 -2 -21 12 -5 16 -14 12 -26 -5 -14 -1
-19 14 -19 14 0 21 -6 21 -18 0 -10 8 -34 19 -54 19 -38 18 -48 -6 -48 -7 0
-13 11 -13 27 0 19 -3 24 -11 16 -7 -7 -6 -20 5 -44 8 -19 15 -28 15 -21 1 6
7 12 15 12 9 0 12 -7 9 -20 -3 -11 0 -20 6 -20 6 0 11 -8 11 -17 0 -14 -3 -13
-20 5 -12 12 -25 22 -30 22 -16 0 -11 -27 5 -34 8 -3 15 -12 15 -21 0 -19 17
-19 36 0 30 29 38 15 25 -44 -1 -2 -7 2 -15 8 -11 9 -15 6 -18 -13 -5 -23 -2
-25 26 -20 25 3 27 3 11 -5 -11 -5 -31 -10 -45 -11 l-25 -2 28 -11 c29 -12 36
-27 13 -27 -34 0 -21 -42 14 -45 31 -2 40 -53 15 -79 -8 -8 -15 -21 -15 -28 1
-9 5 -7 14 5 7 9 22 17 32 16 11 0 13 -3 7 -6 -20 -7 -15 -23 6 -23 11 0 23
-4 26 -10 4 -6 -11 -10 -39 -10 -25 0 -47 -4 -50 -9 -4 -5 -22 -8 -41 -7 -21
2 -35 -1 -35 -8 0 -7 15 -12 35 -12 19 0 35 -4 34 -9 0 -6 -6 -9 -13 -7 -17 3
-26 -42 -14 -60 7 -10 8 -8 4 5 -3 11 0 17 10 17 8 0 13 4 10 9 -3 5 1 12 9
15 12 4 13 2 6 -13 -6 -10 -7 -21 -4 -25 4 -4 12 4 19 16 l12 23 13 -30 c7
-16 11 -35 10 -41 -1 -7 5 -14 14 -18 8 -3 15 -10 15 -16 0 -16 -27 -12 -34 6
-5 13 -9 14 -21 4 -8 -6 -24 -9 -37 -6 -20 5 -20 5 -3 -3 11 -5 33 -12 49 -17
16 -5 31 -14 33 -19 5 -17 -41 -13 -54 4 -13 17 -15 13 -18 -31 -1 -17 3 -28
11 -28 15 0 28 -35 18 -51 -3 -6 -1 -22 7 -35 8 -16 15 -21 20 -13 11 19 34
-11 34 -44 -1 -16 3 -31 7 -33 4 -3 4 -13 -1 -23 -6 -10 -6 -23 -1 -32 7 -10
4 -15 -13 -19 -12 -3 -22 -12 -22 -20 0 -8 -10 -16 -22 -18 -14 -2 -23 -10
-23 -20 0 -9 -3 -28 -7 -42 -6 -25 -6 -25 15 -6 29 25 39 14 15 -18 -13 -18
-24 -23 -40 -19 -13 3 -23 0 -23 -5 0 -6 12 -12 28 -14 25 -3 27 -6 24 -43 -2
-22 -8 -44 -12 -50 -8 -10 -10 -16 -10 -35 0 -6 -10 -15 -22 -20 -22 -8 -22
-9 4 -9 15 -1 30 4 34 10 4 7 10 7 16 1 13 -13 2 -32 -18 -32 -18 0 -19 -46 0
-53 19 -8 56 3 56 16 0 6 3 7 7 4 3 -4 -1 -15 -9 -24 -9 -10 -18 -29 -20 -43
-2 -17 -10 -26 -25 -28 -13 -2 -23 -8 -23 -13 0 -5 -7 -9 -15 -9 -8 0 -15 -7
-15 -15 0 -8 -5 -15 -10 -15 -20 0 -23 -31 -4 -45 18 -14 17 -16 -18 -46 -21
-17 -38 -37 -38 -44 0 -7 -5 -15 -12 -17 -13 -5 -4 -38 11 -38 5 0 13 9 16 20
3 11 11 20 16 20 17 0 -21 -60 -39 -60 -13 -1 -11 -4 8 -15 24 -13 24 -14 4
-15 -16 0 -21 -6 -21 -25 0 -21 3 -24 20 -19 16 5 19 3 14 -10 -4 -10 -3 -15
3 -11 6 3 10 13 10 21 0 8 5 14 10 14 6 0 10 -6 10 -14 0 -8 -4 -18 -10 -21
-17 -11 -11 -25 11 -25 16 0 19 -4 14 -21 -5 -14 -2 -25 6 -30 10 -6 11 -9 2
-9 -7 0 -13 -4 -13 -10 0 -5 7 -10 15 -10 8 0 15 -4 15 -10 0 -5 9 -10 19 -10
31 0 34 -17 3 -23 -15 -3 -30 -1 -33 4 -6 11 -39 1 -39 -11 0 -5 14 -11 30
-15 17 -4 30 -13 30 -20 0 -23 -21 -28 -35 -9 -7 11 -17 15 -21 11 -4 -4 2
-14 14 -22 11 -9 28 -22 36 -30 17 -17 29 -5 20 19 -6 17 11 23 20 7 3 -5 16
-7 29 -5 12 2 16 1 9 -2 -10 -5 -10 -9 -1 -20 12 -14 9 -16 -26 -18 -11 -1
-19 -7 -18 -13 2 -7 -1 -13 -6 -13 -5 0 -11 -11 -13 -24 -4 -18 0 -26 13 -29
15 -4 16 -9 7 -29 -9 -19 -17 -23 -42 -20 l-31 4 25 -23 c13 -13 29 -23 33
-21 5 1 7 -13 5 -32 -3 -28 0 -37 19 -47 25 -13 29 -24 13 -34 -5 -3 -10 -1
-10 4 0 6 -7 11 -15 11 -8 0 -15 -2 -15 -5 0 -11 35 -45 47 -45 7 0 13 -9 13
-20 0 -11 4 -20 9 -20 5 0 7 9 4 20 -3 11 -1 20 5 20 13 0 17 -7 26 -42 5 -24
3 -28 -14 -28 -25 0 -26 -9 -2 -26 16 -13 16 -13 0 -14 -10 0 -18 -6 -18 -12
0 -7 -3 -23 -6 -35 -5 -20 -3 -21 27 -18 25 3 30 2 19 -5 -12 -8 -10 -10 10
-11 14 -1 31 -1 38 0 7 1 12 -9 12 -24 0 -15 -5 -25 -12 -24 -27 3 -38 -2 -38
-16 0 -8 5 -15 10 -15 6 0 10 -12 9 -27 0 -24 -2 -25 -8 -9 -5 14 -10 16 -15
7 -5 -7 -1 -20 8 -30 9 -10 16 -25 16 -35 0 -9 4 -15 9 -12 14 9 41 -4 41 -20
0 -10 7 -13 25 -8 16 4 34 0 50 -10 30 -20 39 -20 31 -1 -7 19 8 20 26 2 24
-24 59 -26 137 -5 93 25 101 25 280 33 125 5 145 4 162 -11 18 -16 17 -17 -16
-39 -25 -17 -60 -27 -132 -35 -54 -7 -104 -14 -112 -16 -26 -8 -281 -9 -281
-2 0 5 -10 8 -21 8 -18 0 -19 -2 -9 -15 11 -13 8 -15 -14 -15 -14 0 -26 -4
-26 -10 0 -5 -6 -10 -13 -10 -7 0 -29 -9 -49 -19 l-36 -20 6 21 c3 15 1 19 -9
16 -18 -6 -24 -47 -10 -61 6 -6 11 -21 11 -34 0 -13 6 -23 13 -24 6 0 -3 -5
-20 -10 -18 -5 -33 -14 -33 -21 0 -7 4 -7 13 0 7 6 39 13 72 16 85 8 148 17
165 23 25 9 218 18 226 10 7 -7 -7 -25 -55 -73 -19 -19 -30 -34 -26 -34 4 0
-4 -15 -19 -34 -14 -19 -26 -39 -26 -45 0 -6 -5 -11 -11 -11 -6 0 -20 -11 -31
-25 -11 -14 -28 -25 -39 -25 -10 0 -19 -4 -19 -9 0 -9 -97 -30 -170 -36 -82
-8 -90 -9 -90 -16 0 -4 -25 -6 -55 -5 -57 2 -86 -6 -66 -18 18 -12 12 -23 -11
-21 -14 2 -22 8 -20 16 3 11 1 11 -9 2 -9 -9 -16 -10 -26 -2 -13 11 -18 1 -14
-25 1 -5 -10 -22 -25 -37 -15 -16 -24 -29 -18 -29 5 0 1 -5 -8 -11 -10 -5 -18
-17 -18 -24 0 -8 -4 -15 -10 -15 -5 0 -10 5 -10 10 0 6 -5 10 -11 10 -6 0 -8
-7 -5 -15 3 -8 9 -22 12 -31 5 -12 1 -14 -19 -9 -15 4 -37 0 -56 -10 -17 -9
-36 -13 -41 -10 -6 4 -13 -1 -16 -10 -4 -9 -13 -14 -20 -11 -9 3 -14 -2 -14
-14 0 -15 -6 -18 -35 -15 -19 2 -35 -1 -35 -6 0 -5 -9 -9 -20 -9 -11 0 -20 5
-20 11 0 5 -4 7 -10 4 -5 -3 -10 -16 -10 -28 0 -16 -3 -18 -12 -9 -20 20 -28
13 -22 -20 4 -27 3 -29 -5 -12 -15 33 -30 37 -37 10 -3 -13 -14 -32 -25 -42
-17 -16 -19 -16 -19 -1 0 11 -8 17 -24 17 -13 0 -26 3 -29 8 -2 4 -2 1 -1 -5
5 -22 -44 -15 -56 7 -6 11 -15 20 -20 20 -6 0 -18 -9 -27 -20 -10 -11 -28 -20
-40 -20 -13 0 -22 -5 -20 -12 1 -6 -5 -13 -13 -15 -10 -2 -20 8 -27 28 -10 25
-16 29 -32 24 -12 -4 -21 -2 -21 4 0 6 -11 11 -25 11 -14 0 -25 5 -25 10 0 6
4 10 8 10 4 0 9 14 10 30 3 34 -7 38 -29 11 -11 -12 -13 -23 -8 -34 6 -10 5
-18 -1 -22 -13 -8 -32 4 -25 15 3 5 3 21 -1 35 -6 25 -37 35 -49 15 -3 -5 -1
-10 6 -10 10 0 10 -3 2 -11 -13 -13 -33 -4 -33 15 0 7 -11 19 -25 26 -21 11
-32 11 -60 1 -20 -7 -45 -14 -58 -16 -44 -7 -67 -18 -67 -31 0 -19 -10 -17
-30 6 -16 18 -20 19 -46 6 -16 -8 -54 -17 -84 -20 -139 -14 -171 -19 -176 -27
-3 -5 -25 -9 -50 -9 -30 0 -50 -6 -63 -19 -11 -11 -21 -18 -23 -15 -10 10
-168 1 -187 -10 -4 -3 -40 -7 -81 -10 -40 -3 -79 -11 -87 -18 -8 -6 -36 -13
-61 -14 -29 -1 -46 -6 -44 -13 1 -7 -6 -9 -22 -5 -13 3 -35 0 -48 -7 -12 -7
-27 -13 -33 -14 -13 0 -19 -35 -7 -35 6 0 9 -16 9 -36 -2 -28 -7 -39 -24 -45
-17 -6 -23 -5 -23 6 0 19 -16 19 -24 0 -4 -11 -21 -14 -71 -12 -65 2 -65 2
-71 34 -3 17 -13 34 -21 37 -12 5 -14 1 -10 -14 7 -28 -7 -25 -28 6 -9 15 -12
23 -6 20 6 -4 11 -1 11 8 0 24 -13 26 -65 10 -27 -8 -57 -12 -67 -8 -13 4 -21
-1 -27 -18 -7 -15 -10 -17 -10 -7 -1 25 -55 28 -114 7 -35 -13 -87 -21 -157
-23 -58 -2 -145 -7 -195 -11 -49 -3 -128 -7 -175 -7 -48 0 -88 -5 -92 -11 -5
-8 -13 -7 -26 1 -12 7 -23 8 -29 2 -5 -5 -37 -12 -71 -15 -53 -6 -62 -5 -62 9
0 18 33 39 65 43 11 1 34 6 50 11 17 5 40 8 53 7 12 -1 22 3 22 8 0 5 12 9 28
8 15 -1 30 -1 35 0 18 6 29 8 57 9 18 1 30 6 30 15 0 10 12 13 48 12 26 -1 63
4 82 12 41 18 45 18 88 20 21 1 32 7 32 17 0 18 5 18 31 5 15 -8 19 -7 19 5 0
9 9 15 26 15 16 0 23 4 18 11 -4 7 1 9 12 7 11 -2 18 -10 17 -16 -3 -13 10
-16 21 -4 12 11 60 10 69 -2 5 -7 12 -4 22 8 8 11 15 22 15 26 0 8 -48 5 -57
-3 -3 -4 -17 -7 -30 -7 -35 0 -31 36 5 43 15 3 32 1 38 -4 13 -10 24 -2 24 19
0 8 -6 12 -15 8 -8 -3 -15 0 -16 7 0 9 -2 9 -6 0 -6 -15 -33 -17 -33 -3 0 6
-13 10 -30 10 -16 0 -30 -4 -30 -10 0 -5 -9 -10 -20 -10 -18 0 -18 1 -2 30 11
18 20 26 26 20 13 -13 66 -13 66 0 0 6 -8 10 -18 10 -11 0 -27 9 -37 20 -10
12 -24 19 -31 16 -7 -3 -15 3 -18 12 -3 9 -15 23 -27 31 -19 11 -21 11 -15 -4
4 -11 2 -15 -6 -13 -7 3 -13 11 -13 18 0 7 -8 16 -19 20 -17 6 -17 7 -2 23 19
18 17 21 -8 11 -9 -3 -16 -15 -16 -26 0 -13 -5 -18 -14 -15 -9 4 -17 -1 -20
-11 -2 -9 -4 -3 -4 13 1 17 -3 38 -7 48 -9 21 -40 24 -32 2 5 -11 0 -13 -26
-8 -38 7 -40 9 -43 30 -9 57 -14 64 -37 52 -13 -8 -17 -14 -9 -17 14 -4 16
-38 2 -47 -6 -3 -7 1 -4 9 4 9 -1 18 -10 22 -9 3 -16 12 -16 20 0 8 -10 14
-22 15 -21 1 -20 2 5 11 22 8 27 16 27 44 0 23 -4 33 -11 28 -6 -3 -8 -17 -4
-31 6 -24 5 -25 -33 -18 -32 5 -41 3 -46 -10 -5 -14 -9 -15 -21 -5 -10 9 -15
9 -15 1 0 -6 -7 -11 -16 -11 -12 0 -15 -7 -12 -25 6 -28 -4 -32 -24 -12 -7 8
-30 19 -50 26 -35 12 -36 13 -31 54 2 23 7 49 10 57 12 30 11 40 -3 40 -8 0
-14 -7 -14 -15 0 -8 -4 -15 -10 -15 -5 0 -10 5 -10 10 0 6 -18 10 -39 10 -22
0 -43 5 -46 10 -4 7 -11 7 -18 2 -7 -5 -31 -8 -54 -6 -29 3 -43 0 -43 -8 0 -6
-7 -3 -15 8 -14 19 -15 19 -21 -4 -5 -19 -9 -20 -22 -10 -10 8 -17 9 -19 3 -2
-6 -21 -10 -43 -8 -22 1 -40 -2 -40 -8 0 -15 -27 -10 -34 6 -4 10 1 15 14 15
11 0 20 5 20 10 0 13 -6 13 -47 -2 -18 -7 -33 -16 -33 -20 0 -15 -51 -8 -56 7
-4 8 -9 15 -13 15 -11 0 -8 -44 3 -53 6 -5 -3 -6 -21 -3 -18 3 -35 1 -38 -4
-3 -6 -26 -10 -50 -10 -24 0 -47 -4 -50 -10 -10 -16 -28 -11 -21 6 4 10 1 14
-6 11 -15 -5 -11 -39 5 -49 8 -5 6 -8 -4 -8 -9 0 -20 7 -23 16 -3 8 -10 12
-16 9 -6 -3 -7 1 -4 9 3 9 10 16 14 16 15 0 21 33 8 42 -8 5 -1 8 20 8 31 0
45 21 22 35 -19 12 -10 26 13 19 30 -9 34 -14 17 -24 -8 -5 -11 -12 -7 -16 4
-4 2 -13 -5 -21 -6 -7 -8 -16 -6 -19 3 -3 12 9 19 25 16 35 26 38 46 14 13
-17 14 -16 12 7 -1 14 -1 31 0 38 1 14 31 17 31 2 0 -16 25 -11 47 10 18 16
22 17 27 4 3 -9 4 -20 0 -25 -10 -17 11 -9 41 16 17 14 25 24 18 23 -6 -2 -11
2 -12 7 -1 6 15 10 35 10 24 1 42 8 53 21 22 26 67 54 75 47 14 -14 5 -34 -12
-29 -11 4 -27 -2 -40 -14 -28 -26 -28 -34 -1 -20 11 7 23 9 27 6 3 -3 14 2 24
11 17 15 20 15 28 3 12 -19 33 0 25 21 -7 19 -53 39 -72 32 -13 -5 -15 -2 -10
16 5 20 3 22 -19 18 -13 -2 -24 0 -24 4 0 5 -6 9 -14 9 -22 0 -24 22 -4 42 10
10 18 23 18 28 0 14 -44 30 -48 19 -2 -5 -10 -9 -17 -9 -11 0 -12 -7 -4 -32 5
-17 7 -34 4 -36 -6 -7 22 -32 37 -33 10 0 10 -2 1 -6 -7 -2 -13 -12 -13 -21 0
-13 -7 -10 -26 11 -19 21 -23 32 -15 40 18 18 13 25 -14 19 -15 -2 -25 0 -25
7 0 6 7 11 15 11 17 0 19 18 5 40 -6 10 -10 11 -10 3 0 -7 -5 -13 -11 -13 -6
0 -8 7 -5 16 4 11 1 14 -12 10 -9 -3 -24 -1 -31 4 -12 7 -9 11 12 21 52 23 18
78 -48 79 -36 0 -67 36 -37 42 9 2 25 -5 35 -16 13 -14 20 -17 28 -9 7 7 8 17
3 25 -5 7 -7 20 -6 29 2 12 -5 16 -28 15 -31 -1 -40 -10 -17 -19 7 -4 6 -6 -4
-6 -28 -2 -30 26 -3 44 14 9 22 20 19 25 -3 4 2 15 10 23 20 21 19 27 -5 27
-11 0 -20 -4 -20 -8 0 -13 -54 -8 -77 7 -12 9 -19 21 -15 29 4 12 0 14 -21 8
-16 -4 -27 -2 -27 4 0 5 7 10 15 10 8 0 15 7 15 15 0 22 8 19 37 -15 20 -24
33 -30 64 -30 21 0 38 3 38 8 -4 25 2 42 13 36 7 -5 21 -9 30 -9 14 -1 15 1 7
12 -6 7 -18 13 -25 13 -8 0 -14 4 -14 10 0 5 -7 7 -15 4 -9 -4 -13 -15 -11
-29 4 -19 -1 -24 -27 -28 -40 -6 -56 7 -40 32 11 17 8 19 -25 24 -20 2 -43 0
-49 -6 -12 -9 -19 8 -14 36 0 4 -6 7 -14 7 -8 0 -15 -6 -15 -12 -1 -22 -21 20
-25 51 -2 16 -10 40 -19 53 -15 23 -15 56 -1 91 10 24 -1 21 -32 -7 -26 -25
-54 -26 -34 -2 13 15 4 27 -14 20 -7 -3 -16 -1 -20 5 -3 6 -15 11 -26 11 -10
0 -19 4 -19 10 0 6 -9 6 -24 0 -21 -7 -23 -6 -19 11 5 16 12 19 39 14 19 -2
34 -1 34 3 0 5 13 7 29 4 16 -2 32 1 35 7 4 6 1 11 -6 11 -9 0 -9 3 2 10 8 5
15 20 15 32 0 23 14 26 53 13 18 -6 15 -52 -5 -59 -15 -6 -15 -9 -3 -16 10 -6
17 -2 25 13 14 28 7 90 -10 84 -6 -3 -18 -1 -25 3 -8 5 -22 4 -31 -1 -30 -15
-32 9 -5 35 35 31 33 38 -9 30 -35 -6 -35 -6 -31 26 1 18 10 38 19 45 19 14
22 31 12 73 -7 32 -35 46 -35 17 0 -8 -7 -15 -16 -15 -9 0 -14 6 -11 14 3 7
-4 21 -15 30 -15 13 -17 20 -9 30 13 15 -6 36 -36 40 -10 2 -20 11 -21 20 -3
15 -1 16 16 7 12 -6 30 -11 41 -11 12 0 21 -4 21 -10 0 -5 8 -10 18 -10 14 1
13 4 -6 20 -13 11 -23 27 -22 37 4 35 0 54 -10 48 -6 -4 -8 -16 -4 -27 4 -15
2 -19 -12 -16 -17 3 -21 15 -26 90 -2 29 -6 37 -18 33 -75 -22 -89 -17 -91 35
0 21 -2 22 -8 6 -7 -17 -8 -16 -24 7 -9 14 -14 33 -10 42 3 10 0 21 -8 25 -22
14 -5 20 29 11 27 -8 32 -7 32 7 0 13 2 13 14 -4 8 -10 18 -16 22 -11 4 4 2
13 -4 19 -7 7 -12 19 -12 28 0 19 -80 26 -92 7 -6 -9 -8 -9 -8 0 0 7 6 18 13
25 15 13 11 52 -4 43 -10 -7 -44 43 -35 52 3 4 15 -2 25 -13 31 -32 59 -53 64
-47 3 2 -9 18 -26 33 -25 22 -29 31 -20 41 15 15 -1 49 -22 49 -8 0 -15 5 -15
10 0 6 -4 10 -10 10 -5 0 -10 -7 -10 -16 0 -14 -3 -14 -15 -4 -14 12 -12 17
15 41 l30 28 -24 26 c-14 15 -22 33 -19 41 7 19 23 18 23 -1 0 -8 7 -15 16
-15 11 0 14 6 9 20 -4 13 -1 22 9 26 9 3 13 10 10 16 -3 5 -14 2 -25 -8 -11
-9 -22 -14 -26 -11 -3 4 -12 2 -19 -4 -17 -14 -35 -3 -28 16 4 8 10 12 16 9 5
-3 17 -3 26 1 15 6 14 8 -8 20 -19 11 -21 14 -7 15 10 0 17 8 17 19 0 11 5 23
10 26 21 13 8 32 -37 52 -41 18 -45 22 -29 29 13 5 21 3 24 -4 7 -21 22 -13
22 12 0 51 -12 86 -31 86 -10 0 -21 5 -24 10 -3 6 4 10 16 10 l22 0 -23 25
c-28 29 -19 46 10 20 11 -10 20 -16 20 -12 0 3 3 12 6 21 4 12 0 16 -15 16
-12 0 -24 8 -27 18 -3 9 -12 29 -20 44 -10 18 -11 29 -3 33 6 4 13 -2 16 -14
3 -12 9 -21 14 -21 5 0 9 -9 9 -19 0 -11 5 -23 11 -27 8 -4 9 0 4 15 -4 12 -2
21 4 21 6 0 11 7 11 16 0 14 -3 14 -15 4 -21 -17 -19 4 1 25 13 13 14 16 3 15
-28 -4 -39 0 -39 15 0 12 4 13 19 5 30 -15 32 -13 26 24 -4 20 -2 36 4 40 6 4
11 17 11 29 0 16 -3 18 -12 9 -14 -14 -58 -16 -58 -2 0 5 9 15 20 22 23 15 26
28 6 28 -17 0 -21 5 -30 43 -6 24 -4 28 11 25 10 -2 17 -10 16 -16 -2 -7 2
-12 7 -12 6 0 10 9 10 20 0 11 -5 19 -12 17 -7 -1 -17 8 -22 20 -6 12 -17 24
-26 27 -8 2 2 4 23 5 37 1 45 12 28 39 -4 7 -14 12 -21 10 -7 -2 -15 3 -18 11
-3 10 0 12 11 8 22 -8 28 14 9 35 -13 16 -13 19 9 27 20 8 17 10 -25 10 -43 1
-47 3 -35 17 11 14 10 19 -9 34 -25 20 -28 32 -9 29 26 -3 38 1 31 12 -4 7 -1
10 7 7 8 -3 14 -19 14 -39 1 -27 5 -35 23 -37 12 -2 22 1 22 7 0 6 -4 11 -9
11 -13 0 -24 93 -16 130 6 27 10 31 30 26 13 -3 27 -2 30 4 3 5 18 10 33 11
15 0 20 3 12 6 -8 2 -25 9 -37 15 -12 6 -28 8 -37 5 -11 -4 -13 -1 -9 11 4 9
11 20 17 25 7 5 5 12 -6 20 -13 10 -15 21 -10 41 7 25 9 27 21 12 7 -9 20 -16
28 -16 12 0 13 3 5 13 -6 7 -9 23 -5 36 4 17 1 23 -16 28 -17 4 -19 8 -10 19
6 8 18 14 25 14 10 0 13 7 8 25 -5 19 -2 25 10 25 9 0 16 -5 16 -11 0 -5 4 -8
9 -5 4 3 6 28 3 56 -4 42 -2 49 11 45 10 -4 18 3 25 24 13 36 1 41 -21 9 -23
-35 -33 -13 -13 28 15 33 15 37 1 48 -14 10 -14 13 0 31 14 17 16 17 11 3 -3
-10 -1 -18 3 -18 12 0 21 27 15 44 -3 8 -1 17 5 21 20 12 12 27 -11 19 -19 -6
-18 -2 8 20 40 32 48 33 40 1 -5 -18 -2 -25 9 -25 10 0 15 10 15 34 0 19 5 38
10 41 16 10 12 43 -7 54 -16 10 -16 11 5 17 24 7 26 12 14 32 -5 7 -16 10 -25
6 -10 -3 -17 -1 -17 5 0 7 6 14 14 17 8 3 12 12 9 20 -3 8 0 14 6 14 6 0 11
-7 11 -15 0 -8 5 -15 10 -15 14 0 13 8 -7 51 -10 21 -24 37 -32 36 -8 -1 -16
4 -18 11 -4 11 16 17 41 13 5 -1 6 7 3 18 -3 12 3 27 14 37 18 16 19 16 19
-10 0 -16 4 -25 10 -21 6 3 10 -1 10 -9 0 -9 4 -16 9 -16 16 0 23 20 12 34 -6
7 -8 16 -4 19 3 4 1 7 -5 7 -7 0 -12 8 -12 18 0 10 -6 24 -12 31 -10 10 -10
12 -1 7 7 -4 21 2 32 13 17 17 26 19 46 11 15 -6 27 -10 29 -10 1 0 1 14 -2
30 -3 18 0 30 7 30 6 0 11 -4 11 -10 0 -5 5 -10 10 -10 6 0 10 9 10 20 0 13
-7 20 -20 20 -18 0 -19 3 -10 21 7 11 18 18 25 15 7 -2 16 2 19 10 3 8 1 14
-5 14 -6 0 -7 5 -4 11 4 6 13 8 21 5 14 -6 39 29 30 43 -3 4 15 23 39 41 49
37 53 45 28 58 -14 9 -14 10 6 17 12 4 28 2 36 -5 11 -9 14 -6 17 17 2 16 9
28 17 28 8 0 16 10 17 23 2 12 -1 22 -6 22 -14 0 -12 22 5 44 11 15 17 16 29
7 11 -9 15 -8 20 5 4 10 2 14 -6 12 -13 -5 -43 41 -34 50 3 2 19 -7 36 -22 38
-31 60 -34 53 -6 -3 11 -9 20 -13 20 -15 0 -21 37 -11 64 12 31 36 36 28 6 -4
-17 0 -22 24 -27 16 -3 26 -9 24 -14 -3 -4 -1 -10 4 -13 11 -7 21 17 21 54 0
20 -5 27 -16 26 -26 -2 -29 25 -4 31 18 5 21 11 16 34 -3 16 -1 29 4 29 6 0
10 -9 10 -20 0 -11 7 -20 16 -20 11 0 14 -6 9 -20 -3 -11 -2 -20 3 -20 14 0
23 43 10 51 -15 9 1 32 18 25 8 -3 14 -1 14 5 0 7 -12 8 -32 4 -31 -7 -32 -6
-13 9 11 8 24 16 29 16 5 0 18 8 29 18 19 16 20 16 15 -5 -4 -13 -3 -25 0 -27
12 -6 54 13 48 23 -3 5 4 11 16 15 18 4 20 8 10 18 -10 10 -17 10 -31 1 -10
-7 -21 -9 -25 -6 -9 10 4 23 24 23 10 0 33 13 51 30 29 26 35 28 49 15 18 -16
50 -20 50 -6 0 5 -13 11 -30 15 -23 4 -30 11 -30 30 0 13 7 29 15 36 13 11 15
8 15 -19 0 -33 1 -34 24 -25 19 7 21 40 4 47 -8 4 -7 6 4 6 9 1 23 -6 32 -14
12 -13 19 -13 41 -3 25 11 27 15 21 60 -5 33 -3 48 5 48 6 0 9 -6 6 -14 -9
-22 14 -35 42 -25 19 7 21 12 11 24 -9 11 -4 18 30 35 42 21 79 23 92 5 12
-17 29 9 31 51 2 33 5 38 22 36 11 -2 23 -9 27 -15 5 -8 8 -6 8 5 0 9 -7 24
-16 33 -9 9 -14 18 -11 21 8 8 47 -15 48 -29 1 -7 4 -2 7 11 9 30 26 33 30 6
2 -17 8 -21 25 -16 31 8 50 30 43 48 -5 13 -9 14 -21 4 -19 -16 -33 -4 -17 12
7 7 12 20 12 30 0 10 5 18 10 18 6 0 10 -9 10 -19 0 -31 19 -35 51 -12 15 11
35 21 44 21 8 0 15 6 16 13 0 9 2 9 6 -1 3 -7 -2 -21 -11 -31 -16 -17 -15 -19
4 -24 25 -7 35 12 27 52 -4 21 -2 31 9 35 12 5 14 -1 8 -29 -6 -33 -5 -34 22
-26 15 4 30 13 32 21 3 9 -1 11 -14 6 -18 -7 -18 -6 -2 10 17 17 18 17 38 -1
16 -14 20 -15 20 -3 0 8 15 27 34 43 22 19 32 34 29 46 -4 14 0 19 15 19 14 0
21 9 26 31 4 22 10 30 21 26 8 -4 17 -2 21 4 3 5 13 7 22 5 12 -4 23 4 34 25
10 16 23 29 30 28 7 -1 27 3 43 10 18 8 49 10 75 7 25 -3 52 -2 60 4 9 5 19 5
26 0 6 -6 13 -8 15 -6z m-417 -152 c2 -4 1 -14 -3 -21 -6 -9 -10 -7 -14 8 -5
20 7 29 17 13z m1116 -12 c0 -5 -2 -10 -4 -10 -3 0 -8 5 -11 10 -3 6 -1 10 4
10 6 0 11 -4 11 -10z m-1628 -205 c-15 -33 -46 -54 -59 -41 -4 3 1 6 11 6 11
0 16 6 14 18 -4 19 20 52 38 52 8 0 7 -11 -4 -35z m18 -51 c0 -8 -4 -12 -10
-9 -5 3 -10 10 -10 16 0 5 5 9 10 9 6 0 10 -7 10 -16z m2191 -76 c7 -18 14
-36 17 -40 2 -5 -3 -8 -11 -8 -14 0 -37 40 -37 65 0 26 18 16 31 -17z m59 -23
c0 -8 -4 -15 -9 -15 -13 0 -22 16 -14 24 11 11 23 6 23 -9z m90 -23 c0 -4 -9
-13 -20 -20 -23 -14 -26 -8 -7 13 13 16 27 19 27 7z m-2535 -41 c-9 -16 -25
-3 -18 15 4 10 9 12 15 6 6 -6 7 -15 3 -21z m-182 -61 c4 -4 0 -13 -10 -21
-17 -13 -17 -13 -4 4 13 16 13 19 0 17 -32 -5 -69 1 -69 10 0 12 69 3 83 -10z
m2833 -87 c-3 -3 -18 -2 -33 2 l-28 8 30 12 c26 11 30 11 33 -2 2 -8 1 -17 -2
-20z m20 -40 c-10 -10 -19 5 -10 18 6 11 8 11 12 0 2 -7 1 -15 -2 -18z m217
-190 c-7 -2 -21 -2 -30 0 -10 3 -4 5 12 5 17 0 24 -2 18 -5z m37 -42 c0 -5 2
-16 5 -24 3 -7 0 -14 -7 -14 -7 0 -13 11 -13 24 0 13 3 23 8 23 4 0 7 -4 7 -9z
m55 -31 c3 -5 1 -10 -4 -10 -6 0 -11 5 -11 10 0 6 2 10 4 10 3 0 8 -4 11 -10z
m-3567 -27 c-15 -15 -30 -24 -34 -20 -7 7 35 46 51 47 5 0 -3 -12 -17 -27z
m3537 -13 c3 -5 -1 -10 -9 -10 -9 0 -16 5 -16 10 0 6 4 10 9 10 6 0 13 -4 16
-10z m-3645 -40 c0 -5 -5 -10 -11 -10 -5 0 -7 5 -4 10 3 6 8 10 11 10 2 0 4
-4 4 -10z m80 -25 c0 -8 -4 -15 -10 -15 -5 0 -10 7 -10 15 0 8 5 15 10 15 6 0
10 -7 10 -15z m-69 -48 c-10 -9 -11 -8 -5 6 3 10 9 15 12 12 3 -3 0 -11 -7
-18z m3 -32 c-4 -8 -11 -15 -18 -15 -6 0 -4 -5 4 -11 12 -9 12 -10 -3 -5 -13
4 -20 0 -24 -14 -3 -11 -10 -20 -15 -20 -5 0 -8 3 -6 8 24 49 33 62 47 65 9 3
17 5 18 6 1 0 0 -6 -3 -14z m3786 -55 c0 -5 -4 -10 -10 -10 -5 0 -10 5 -10 10
0 6 5 10 10 10 6 0 10 -4 10 -10z m-3905 -80 c3 -5 1 -10 -4 -10 -6 0 -11 5
-11 10 0 6 2 10 4 10 3 0 8 -4 11 -10z m-35 -90 c0 -13 -5 -18 -15 -14 -8 4
-15 12 -15 20 0 8 7 14 15 14 8 0 15 -9 15 -20z m4083 -5 c-7 -21 -13 -19 -13
6 0 11 4 18 10 14 5 -3 7 -12 3 -20z m-4198 -55 c3 -6 -1 -7 -9 -4 -18 7 -21
14 -7 14 6 0 13 -4 16 -10z m4190 -70 c-3 -5 -11 -10 -16 -10 -6 0 -7 5 -4 10
3 6 11 10 16 10 6 0 7 -4 4 -10z m65 -25 c14 -27 11 -38 -6 -27 -15 9 -28 52
-16 52 5 0 15 -11 22 -25z m-4360 -135 c0 -5 -2 -10 -4 -10 -3 0 -8 5 -11 10
-3 6 -1 10 4 10 6 0 11 -4 11 -10z m4465 -50 c3 -5 1 -10 -4 -10 -6 0 -11 5
-11 10 0 6 2 10 4 10 3 0 8 -4 11 -10z m-4430 -70 c3 -5 -3 -10 -15 -10 -12 0
-18 5 -15 10 3 6 10 10 15 10 5 0 12 -4 15 -10z m4475 -138 c0 -5 7 -9 15 -9
8 0 15 5 15 10 0 6 3 7 6 4 4 -4 1 -13 -5 -21 -10 -12 -16 -13 -32 -3 -20 13
-25 27 -9 27 6 0 10 -4 10 -8z m-4555 -82 c3 -5 2 -10 -4 -10 -5 0 -13 5 -16
10 -3 6 -2 10 4 10 5 0 13 -4 16 -10z m5 -100 c0 -5 -7 -10 -16 -10 -8 0 -12
5 -9 10 3 6 10 10 16 10 5 0 9 -4 9 -10z m-60 -169 c0 -6 -4 -13 -10 -16 -5
-3 -10 1 -10 9 0 9 5 16 10 16 6 0 10 -4 10 -9z m4690 -35 c0 -16 -18 -31 -27
-22 -8 8 5 36 17 36 5 0 10 -6 10 -14z m80 -46 c0 -5 -4 -10 -10 -10 -5 0 -10
5 -10 10 0 6 5 10 10 10 6 0 10 -4 10 -10z m-35 -30 c3 -5 -1 -10 -9 -10 -9 0
-16 5 -16 10 0 6 4 10 9 10 6 0 13 -4 16 -10z m75 -44 c0 -3 -4 -8 -10 -11 -5
-3 -10 -1 -10 4 0 6 5 11 10 11 6 0 10 -2 10 -4z m-35 -52 c13 -5 14 -8 3 -15
-19 -13 -28 -11 -28 6 0 17 2 18 25 9z m-4835 -24 c0 -19 -11 -26 -23 -14 -8
8 3 34 14 34 5 0 9 -9 9 -20z m4850 -50 c0 -5 -5 -10 -11 -10 -5 0 -7 5 -4 10
3 6 8 10 11 10 2 0 4 -4 4 -10z m90 0 c0 -5 -5 -10 -11 -10 -5 0 -7 5 -4 10 3
6 8 10 11 10 2 0 4 -4 4 -10z m-4956 -141 c-8 -14 -44 -10 -44 5 0 9 8 12 25
8 14 -2 22 -8 19 -13z m4950 -44 c-4 -8 -7 -15 -9 -15 -2 0 -5 7 -9 15 -3 9 0
15 9 15 9 0 12 -6 9 -15z m-5001 -85 c-3 -11 -7 -20 -9 -20 -2 0 -4 9 -4 20 0
11 4 20 9 20 5 0 7 -9 4 -20z m-12 -57 c-12 -20 -14 -14 -5 12 4 9 9 14 11 11
3 -2 0 -13 -6 -23z m69 -73 c0 -5 -4 -10 -10 -10 -5 0 -10 5 -10 10 0 6 5 10
10 10 6 0 10 -4 10 -10z m4930 -30 c24 -15 7 -18 -20 -3 -14 7 -18 13 -10 13
8 0 22 -4 30 -10z m-4945 -20 c3 -5 2 -10 -4 -10 -5 0 -13 5 -16 10 -3 6 -2
10 4 10 5 0 13 -4 16 -10z m4978 -177 c11 -10 -24 -43 -45 -43 -24 0 -23 21 2
27 11 3 20 9 20 14 0 11 14 12 23 2z m27 -53 c-8 -5 -22 -9 -30 -9 -10 0 -8 3
5 9 27 12 43 12 25 0z m-36 -31 c-8 -14 -24 -10 -24 6 0 9 6 12 15 9 8 -4 12
-10 9 -15z m-4884 -102 c0 -1 -12 -3 -28 -5 -15 -1 -34 -3 -42 -5 -8 -1 -15 2
-15 8 0 5 7 8 17 7 9 -2 19 2 23 8 4 7 12 7 26 0 10 -6 19 -12 19 -13z m4850
-167 c0 -5 -4 -10 -10 -10 -5 0 -10 5 -10 10 0 6 5 10 10 10 6 0 10 -4 10 -10z
m45 -36 c0 -10 3 -24 8 -31 5 -8 -2 -11 -23 -11 l-31 1 21 22 c16 17 17 24 7
34 -10 11 -9 13 3 9 8 -3 15 -13 15 -24z m-4955 -4 c0 -5 -5 -10 -11 -10 -5 0
-7 5 -4 10 3 6 8 10 11 10 2 0 4 -4 4 -10z m35 -39 c3 -5 1 -12 -4 -15 -5 -3
-11 1 -15 9 -6 16 9 21 19 6z m4903 -31 c7 -12 8 -20 2 -20 -5 0 -10 5 -10 10
0 6 -6 10 -14 10 -8 0 -18 5 -21 10 -3 6 2 10 12 10 10 0 24 -9 31 -20z m12
-61 c0 -5 -4 -9 -10 -9 -5 0 -10 7 -10 16 0 8 5 12 10 9 6 -3 10 -10 10 -16z
m3 -44 c-4 -16 -53 -16 -53 0 0 9 10 13 28 12 15 -1 26 -7 25 -12z m-4938 -45
c3 -5 2 -10 -4 -10 -5 0 -13 5 -16 10 -3 6 -2 10 4 10 5 0 13 -4 16 -10z
m4890 -40 c-3 -5 -13 -10 -21 -10 -8 0 -14 5 -14 10 0 6 9 10 21 10 11 0 17
-4 14 -10z m-4800 -60 c3 -5 -1 -10 -9 -10 -9 0 -16 5 -16 10 0 6 4 10 9 10 6
0 13 -4 16 -10z m4755 -113 c0 -7 -5 -19 -10 -27 -15 -23 -32 7 -17 31 12 19
27 16 27 -4z m54 -2 c-4 -8 -10 -15 -15 -15 -4 0 -6 7 -3 15 4 8 10 15 15 15
4 0 6 -7 3 -15z m-4779 -85 c3 -5 1 -10 -4 -10 -6 0 -11 5 -11 10 0 6 2 10 4
10 3 0 8 -4 11 -10z m145 -40 c11 -20 -5 -60 -23 -60 -16 0 -38 28 -27 35 5 3
10 1 10 -4 0 -6 7 -11 15 -11 17 0 20 25 5 35 -6 4 -8 11 -5 16 9 13 13 11 25
-11z m4543 -85 c4 -8 2 -17 -3 -20 -6 -4 -10 3 -10 14 0 25 6 27 13 6z m-43
-29 c0 -2 -7 -6 -15 -10 -8 -3 -15 -1 -15 4 0 6 7 10 15 10 8 0 15 -2 15 -4z
m-4480 -80 c0 -2 -7 -7 -16 -10 -8 -3 -12 -2 -9 4 6 10 25 14 25 6z m-40 -60
c0 -3 -4 -8 -10 -11 -5 -3 -10 -1 -10 4 0 6 5 11 10 11 6 0 10 -2 10 -4z m150
-57 c0 -5 -4 -9 -10 -9 -5 0 -10 7 -10 16 0 8 5 12 10 9 6 -3 10 -10 10 -16z
m-30 -18 c0 -13 -39 -40 -45 -31 -4 6 -1 10 5 10 7 0 9 8 5 19 -5 16 -2 18 15
14 11 -3 20 -8 20 -12z m4560 9 c0 -5 -4 -10 -10 -10 -5 0 -10 5 -10 10 0 6 5
10 10 10 6 0 10 -4 10 -10z m-30 -240 c0 -5 -4 -10 -10 -10 -5 0 -10 5 -10 10
0 6 5 10 10 10 6 0 10 -4 10 -10z m-4560 -129 c0 -6 -4 -13 -10 -16 -5 -3 -10
1 -10 9 0 9 5 16 10 16 6 0 10 -4 10 -9z m100 -57 c0 -14 -3 -14 -15 -4 -8 7
-15 14 -15 16 0 2 7 4 15 4 8 0 15 -7 15 -16z m-75 -93 c3 -5 1 -12 -5 -16 -5
-3 -10 1 -10 9 0 18 6 21 15 7z m10036 -16 c11 -8 12 -35 1 -35 -5 0 -9 -6
-10 -12 -9 -86 -68 -144 -142 -139 -19 1 -56 -5 -82 -13 -40 -12 -48 -12 -48
-1 0 8 -13 22 -30 32 -16 9 -31 24 -31 33 -3 27 -8 54 -14 75 -9 31 23 43 155
58 111 13 182 13 201 2z m-9821 -137 c0 -13 -23 -5 -28 10 -2 7 2 10 12 6 9
-3 16 -11 16 -16z m6635 -3 c22 -14 68 -38 101 -55 59 -28 124 -90 124 -117 0
-21 -119 -73 -167 -73 -12 0 -33 -5 -47 -12 -26 -11 -29 -19 -40 -121 -7 -63
-29 -93 -85 -119 -58 -27 -113 -29 -140 -4 -27 25 -26 40 4 80 14 18 25 39 25
47 0 8 6 21 13 28 16 17 -18 44 -42 32 -15 -8 -79 -18 -169 -27 -36 -4 -47 -1
-62 18 -25 29 -25 82 -1 134 19 42 35 101 29 107 -6 8 57 54 82 60 14 3 54 9
90 12 36 4 90 13 120 20 82 20 120 18 165 -10z m-6570 -66 c11 -17 2 -18 -19
-3 -17 12 -17 14 -4 14 9 0 20 -5 23 -11z m4375 1 c0 -5 -2 -10 -4 -10 -3 0
-8 5 -11 10 -3 6 -1 10 4 10 6 0 11 -4 11 -10z m-4290 -110 c0 -6 -9 -20 -20
-32 -17 -19 -20 -19 -20 -4 0 17 19 45 33 46 4 0 7 -5 7 -10z m-160 -50 c0 -5
-2 -10 -4 -10 -3 0 -8 5 -11 10 -3 6 -1 10 4 10 6 0 11 -4 11 -10z m-86 -15
c11 -8 15 -15 10 -15 -6 0 -19 7 -30 15 -10 8 -14 14 -9 14 6 0 19 -6 29 -14z
m5901 -72 c20 -20 14 -64 -13 -93 -19 -21 -94 -46 -151 -52 -80 -7 -49 73 52
132 59 34 88 37 112 13z m-5555 -57 c0 -3 -4 -8 -10 -11 -5 -3 -10 -1 -10 4 0
6 5 11 10 11 6 0 10 -2 10 -4z m-4660 -86 c0 -5 -8 -10 -17 -10 -15 0 -16 2
-3 10 19 12 20 12 20 0z m-275 -10 c3 -5 1 -10 -4 -10 -6 0 -11 5 -11 10 0 6
2 10 4 10 3 0 8 -4 11 -10z m169 1 c7 -11 -34 -18 -98 -17 -30 1 -51 6 -53 14
-4 9 15 12 71 12 41 0 77 -4 80 -9z m53 -7 c-3 -3 -12 -4 -19 -1 -8 3 -5 6 6
6 11 1 17 -2 13 -5z m-1969 -75 c6 -15 22 -10 22 6 0 8 5 15 10 15 20 0 10
-38 -12 -44 -37 -10 -68 -7 -69 7 0 10 -2 10 -6 0 -2 -7 -16 -13 -29 -13 -18
0 -24 5 -24 21 0 18 5 21 30 17 17 -3 30 -1 30 4 0 11 44 -1 48 -13z m352 11
c0 -15 -17 -20 -84 -28 -62 -8 -96 -1 -96 18 0 11 29 16 113 17 37 1 67 -3 67
-7z m6010 -70 c0 -5 -5 -10 -11 -10 -5 0 -7 5 -4 10 3 6 8 10 11 10 2 0 4 -4
4 -10z m450 -25 c-11 -28 1 -33 20 -10 9 11 16 12 26 4 7 -6 18 -8 24 -4 5 3
10 2 10 -3 0 -5 -10 -12 -22 -16 -19 -5 -21 -8 -8 -16 13 -9 13 -12 -2 -21
-10 -5 -18 -15 -18 -20 0 -6 4 -8 9 -4 5 3 12 1 16 -5 3 -5 2 -10 -4 -10 -18
0 -23 -39 -7 -56 23 -22 20 -32 -9 -26 -27 5 -31 -4 -15 -28 9 -13 11 -13 20
0 8 13 10 12 11 -5 1 -11 1 -29 0 -39 -1 -11 3 -22 8 -25 5 -4 3 -23 -6 -46
-8 -22 -15 -53 -14 -70 0 -16 -3 -24 -6 -17 -4 10 -8 9 -18 -5 -11 -14 -15
-15 -28 -4 -9 7 -21 10 -27 6 -5 -3 -13 1 -16 9 -3 9 -12 16 -18 16 -7 0 -17
5 -24 12 -15 15 -52 21 -52 8 0 -6 5 -10 10 -10 6 0 10 -9 10 -20 0 -22 19
-27 37 -9 7 7 12 4 16 -10 6 -24 -17 -35 -43 -21 -10 5 -26 7 -34 4 -9 -3 -16
-1 -16 4 0 6 6 12 13 15 6 2 1 2 -13 0 -14 -3 -26 -9 -28 -14 -5 -12 -42 -12
-42 0 0 5 6 12 13 15 6 2 3 4 -8 3 -11 -1 -20 3 -20 8 0 11 9 11 44 0 21 -6
23 -5 19 18 -3 16 0 28 8 31 8 3 14 13 14 23 0 15 -2 15 -14 -2 -14 -19 -15
-19 -34 -2 -18 17 -20 17 -35 -5 -9 -13 -16 -18 -16 -11 -1 6 3 14 8 17 4 3 6
16 4 29 -4 19 -11 24 -34 23 -35 -1 -39 -16 -4 -16 14 0 25 -5 25 -11 0 -5 -4
-8 -9 -4 -13 8 -36 -36 -24 -44 6 -3 12 -15 15 -26 3 -11 9 -29 13 -40 4 -11
3 -15 -2 -9 -4 6 -14 13 -22 15 -8 3 -15 18 -17 34 -2 16 -10 34 -18 40 -8 6
-14 20 -13 31 1 12 -4 19 -15 18 -10 -1 -19 8 -22 22 -8 32 -26 31 -26 -1 0
-14 -3 -25 -7 -25 -22 1 -53 14 -53 22 0 6 7 8 15 5 22 -9 30 14 10 30 -11 7
-14 13 -8 13 7 0 15 -4 18 -10 14 -23 26 -7 24 32 -3 28 1 43 10 46 8 3 11 0
7 -6 -3 -6 -2 -14 4 -17 8 -5 8 -11 0 -20 -15 -18 16 -68 37 -61 8 4 24 6 36
6 18 0 19 2 7 10 -8 5 -10 10 -4 10 5 0 15 -5 22 -12 9 -9 12 -6 12 15 0 15
-6 30 -14 33 -22 9 -28 34 -11 50 21 21 19 33 -4 27 -10 -3 -22 0 -26 7 -9 15
13 40 37 40 10 0 21 7 24 15 4 8 12 15 19 15 6 0 27 8 46 17 19 10 42 16 52
15 10 -2 17 3 17 12 0 16 45 23 108 17 15 -1 21 2 17 8 -3 6 1 11 9 11 12 0
14 -5 6 -25z m-710 5 c0 -5 -2 -10 -4 -10 -3 0 -8 5 -11 10 -3 6 -1 10 4 10 6
0 11 -4 11 -10z m240 -16 c0 -8 -5 -14 -11 -14 -6 0 -8 -9 -4 -20 4 -14 2 -20
-8 -20 -20 0 -30 29 -16 46 9 11 9 14 0 14 -7 0 -10 4 -7 9 9 13 46 1 46 -15z
m6611 -13 c18 -1 59 -81 59 -117 0 -84 -83 -127 -166 -88 l-34 16 0 74 c0 73
0 73 36 98 22 15 46 23 63 21 14 -2 33 -4 42 -4z m-5623 -33 c-6 -18 -28 -21
-28 -4 0 9 7 16 16 16 9 0 14 -5 12 -12z m-878 -72 c0 -7 7 -19 15 -26 23 -19
19 -77 -5 -90 -17 -9 -20 -8 -20 9 0 11 5 23 10 26 6 3 10 15 10 26 0 11 -4
18 -9 15 -5 -3 -11 1 -15 9 -3 8 -13 15 -23 15 -15 0 -15 2 3 15 24 18 34 19
34 1z m-95 -46 c4 -6 -5 -10 -20 -10 -15 0 -24 4 -20 10 3 6 12 10 20 10 8 0
17 -4 20 -10z m1265 -47 c-1 -15 -30 -46 -37 -40 -3 4 2 16 12 27 19 21 25 24
25 13z m-80 -33 c0 -5 -10 -10 -22 -10 -19 0 -20 2 -8 10 19 13 30 13 30 0z
m140 0 c0 -5 -4 -10 -10 -10 -5 0 -10 5 -10 10 0 6 5 10 10 10 6 0 10 -4 10
-10z m-1415 -40 c4 -6 12 -9 19 -8 12 3 16 -3 16 -24 0 -6 -7 -4 -18 5 -10 10
-31 17 -45 17 -15 0 -27 5 -27 10 0 13 47 13 55 0z m1350 1 c9 -16 -9 -20 -23
-5 -10 12 -10 14 2 14 8 0 17 -4 21 -9z m80 -1 c-3 -5 -18 -10 -32 -10 -20 0
-24 -4 -20 -20 6 -22 -8 -26 -33 -10 -13 8 -12 10 3 10 10 0 17 8 17 20 0 16
7 20 36 20 21 0 33 -4 29 -10z m-1276 -49 c9 -6 10 -11 2 -15 -13 -8 -31 1
-31 15 0 11 11 11 29 0z m-44 -31 c3 -5 2 -10 -4 -10 -5 0 -13 5 -16 10 -3 6
-2 10 4 10 5 0 13 -4 16 -10z m1378 -3 c-2 -4 -5 -7 -8 -7 -3 0 -9 0 -15 0 -5
0 -10 4 -10 9 0 5 8 8 18 7 9 -2 16 -6 15 -9z m-1153 -1 c0 -3 -4 -8 -10 -11
-5 -3 -10 -1 -10 4 0 6 5 11 10 11 6 0 10 -2 10 -4z m3213 -36 c4 -3 -17 -8
-48 -9 -50 -2 -74 10 -42 22 15 6 79 -3 90 -13z m387 0 c0 -5 -4 -10 -10 -10
-5 0 -10 5 -10 10 0 6 5 10 10 10 6 0 10 -4 10 -10z m-31904 -46 c-3 -8 -3
-21 0 -29 6 -14 8 -13 20 2 11 15 15 16 23 4 5 -8 7 -20 4 -27 -2 -7 2 -28 10
-46 8 -18 16 -40 16 -48 4 -59 24 -186 31 -195 12 -15 31 -187 25 -233 -3 -26
0 -45 8 -54 7 -7 14 -38 16 -68 1 -36 7 -58 17 -63 8 -5 12 -13 8 -18 -9 -15
19 -67 39 -73 16 -4 18 -11 12 -48 -3 -24 -8 -50 -11 -59 -2 -8 5 -25 15 -36
11 -11 17 -24 14 -27 -4 -3 -2 -6 4 -6 6 0 18 -11 27 -24 13 -21 14 -34 4 -88
-6 -34 -16 -66 -22 -70 -13 -9 -100 -11 -108 -3 -10 10 14 100 28 108 20 11
17 26 -11 63 -14 18 -28 47 -31 63 -4 17 -10 28 -15 25 -5 -3 -6 -17 -3 -31 6
-23 4 -25 -17 -18 -17 4 -20 4 -10 -3 12 -9 12 -14 -2 -36 -9 -14 -17 -37 -17
-51 0 -14 -4 -25 -9 -25 -5 0 -11 -14 -15 -31 -5 -26 -8 -29 -21 -19 -8 7 -20
10 -27 7 -9 -3 -14 10 -16 45 -1 26 -7 61 -13 76 -23 58 -21 94 5 121 23 23
24 30 16 68 -6 23 -7 124 -4 230 10 316 3 534 -18 576 -5 11 -5 17 2 17 5 0
10 12 10 26 0 15 4 23 11 19 6 -4 8 -13 5 -21z m28148 5 c-8 -14 -24 -10 -24
6 0 9 6 12 15 9 8 -4 12 -10 9 -15z m5124 -53 c6 -3 9 -13 6 -21 -4 -8 15 -34
45 -63 28 -27 51 -55 51 -61 0 -6 5 -11 10 -11 6 0 10 -16 10 -35 0 -28 4 -35
20 -35 25 0 25 -3 -4 -59 -34 -66 -63 -201 -66 -311 -2 -88 -8 -252 -9 -275
-2 -30 7 -122 13 -137 5 -10 3 -71 -3 -135 -7 -65 -11 -156 -10 -203 0 -47 0
-89 -1 -95 -1 -5 -1 -18 -1 -28 5 -41 -62 -67 -171 -67 -61 0 -89 11 -55 23 9
3 9 7 -1 19 -7 9 -12 31 -10 50 2 42 -19 98 -38 98 -8 0 -34 -19 -57 -43 l-43
-42 -21 25 c-16 20 -18 30 -11 50 7 17 6 36 -2 58 -6 18 -13 55 -14 83 -2 42
-7 52 -27 62 -17 9 -25 22 -27 47 -1 19 -10 63 -19 97 -13 52 -18 61 -30 51
-17 -14 -12 -70 8 -95 12 -14 12 -16 -2 -11 -14 6 -17 -4 -18 -75 -2 -115 -4
-134 -18 -148 -13 -13 -37 -3 -28 12 4 5 -3 9 -15 9 -17 0 -20 -6 -18 -31 1
-17 6 -33 10 -35 18 -11 7 -25 -14 -18 -21 6 -21 5 -9 -10 8 -9 20 -15 26 -12
13 5 35 -12 35 -27 0 -5 -10 -7 -21 -4 -13 4 -28 -1 -38 -10 -15 -15 -16 -15
-19 0 -5 23 -15 21 -40 -8 -26 -30 -27 -35 -7 -35 8 0 15 -7 15 -15 0 -8 -4
-15 -10 -15 -5 0 -10 -7 -10 -15 0 -8 -5 -15 -10 -15 -6 0 -10 6 -9 13 5 32
-44 77 -84 77 -21 0 -28 -37 -10 -44 12 -5 13 -9 3 -21 -11 -14 -15 -14 -31 1
-18 16 -19 16 -19 1 0 -10 5 -17 11 -17 7 0 9 -9 5 -22 -4 -13 -9 -34 -12 -48
-11 -58 -17 -63 -104 -98 -26 -10 -175 -35 -290 -49 -77 -8 -143 -5 -151 9 -9
13 -19 132 -24 258 -1 58 -7 123 -12 145 -8 36 -10 38 -17 17 -5 -15 -13 -21
-22 -18 -9 3 -14 -1 -14 -14 0 -10 -7 -26 -15 -34 -23 -23 -68 -125 -62 -140
4 -9 0 -12 -11 -9 -10 2 -31 -3 -47 -11 -15 -8 -32 -13 -35 -11 -4 2 -13 -8
-19 -23 -9 -18 -9 -28 -2 -30 19 -6 12 -22 -9 -22 -23 0 -24 -8 -10 -44 8 -23
7 -26 -10 -26 -15 0 -20 -7 -20 -27 0 -25 -19 -72 -20 -49 0 5 -6 3 -14 -4 -8
-6 -79 -18 -158 -26 -79 -7 -172 -18 -208 -24 -99 -15 -137 -13 -159 9 -14 14
-34 19 -84 20 -37 0 -69 -4 -73 -10 -3 -6 -17 -8 -30 -5 -14 4 -24 2 -24 -4 0
-5 -5 -10 -10 -10 -6 0 -8 11 -4 25 5 21 3 25 -15 25 -16 0 -23 -8 -27 -29 -5
-23 -16 -34 -48 -47 -51 -21 -181 -38 -372 -50 -120 -8 -117 -10 -135 107 -6
41 -16 84 -21 96 -6 13 -12 52 -12 89 -1 51 -5 69 -19 79 -19 13 -16 55 6 83
7 9 6 25 -1 50 -6 20 -13 49 -16 63 -6 28 -33 63 -56 71 -11 3 -8 9 13 22 22
15 25 21 16 37 -9 17 -12 17 -32 5 -12 -7 -35 -17 -50 -20 -31 -7 -32 -27 -1
-36 23 -6 29 -40 7 -40 -12 0 -14 -9 -11 -42 6 -54 -16 -105 -37 -88 -18 15
-35 5 -35 -20 0 -22 -19 -30 -43 -18 -22 11 -43 0 -29 -14 7 -7 7 -19 2 -33
-10 -26 -8 -64 4 -84 5 -7 5 -16 0 -20 -11 -7 -12 -111 -2 -111 4 0 3 -12 -2
-26 -13 -33 -13 -80 0 -105 8 -15 7 -19 -3 -19 -8 0 -17 -8 -19 -18 -9 -32
-109 -60 -243 -69 -228 -14 -246 -10 -250 44 -2 15 -8 66 -15 113 -7 47 -14
108 -16 135 -2 28 -4 52 -5 55 -3 7 -8 156 -11 350 -2 91 -7 171 -12 178 -4 7
-5 19 -2 27 2 7 0 16 -7 18 -9 3 -8 8 2 20 9 11 10 17 2 17 -6 0 -11 8 -11 18
0 10 -4 22 -10 28 -5 5 -6 22 -1 39 4 17 3 47 -2 68 -7 26 -6 41 2 51 9 10 8
15 -4 20 -8 3 -15 12 -15 20 0 8 -8 21 -18 28 -11 8 -19 26 -20 45 0 25 4 32
24 37 13 4 24 11 24 17 0 6 -4 8 -9 4 -5 -3 -12 -1 -15 4 -3 5 -15 7 -26 4
-24 -6 -27 14 -5 43 17 22 19 34 5 34 -5 0 -12 -11 -16 -25 -3 -14 -10 -22
-15 -19 -5 3 -9 -1 -9 -8 0 -8 -5 -6 -11 5 -5 9 -17 17 -25 17 -20 0 -29 27
-16 53 5 12 13 30 16 41 5 15 9 16 21 6 10 -9 15 -9 15 -1 0 6 6 11 14 11 8 0
16 7 20 15 8 21 26 19 26 -2 1 -15 3 -15 19 5 11 12 27 22 36 22 9 0 29 7 45
15 17 9 30 13 30 11 0 -3 11 -1 24 4 37 14 280 44 411 50 6 1 28 -1 50 -4 50
-6 254 12 277 25 10 5 29 9 42 9 14 0 37 5 52 11 43 16 404 51 444 43 19 -4
46 -6 60 -5 73 5 121 10 127 14 5 3 40 6 78 8 39 2 75 6 80 9 16 10 88 31 118
34 15 1 30 5 33 9 4 3 19 3 35 0 16 -3 35 -1 41 5 7 5 37 10 67 11 30 0 59 5
64 10 7 7 16 7 28 0 12 -6 35 -6 66 2 26 6 72 8 100 4 49 -6 92 -2 336 26 104
13 121 6 111 -48 -3 -18 -1 -46 5 -61 6 -15 13 -44 15 -64 3 -21 12 -52 20
-69 9 -18 16 -36 16 -41 0 -5 5 -14 10 -21 6 -7 16 -20 23 -29 12 -17 54 -23
137 -20 31 2 54 10 75 27 17 14 48 39 70 56 22 17 60 50 85 73 57 54 165 136
179 136 6 0 11 4 11 9 0 5 21 19 46 31 25 12 51 31 57 41 7 11 15 19 19 19 4
0 21 13 39 29 26 24 46 31 113 40 203 27 279 29 314 7z m566 1 c-3 -8 6 -18
21 -25 16 -7 25 -19 24 -30 -1 -9 1 -24 4 -32 24 -57 7 -162 -29 -183 -8 -4
-14 -14 -14 -22 0 -8 -18 -25 -40 -37 -23 -14 -40 -31 -40 -41 0 -10 -4 -15
-10 -12 -14 9 -12 -29 2 -43 9 -9 8 -12 -5 -12 -20 0 -22 -21 -5 -38 10 -10
10 -15 -1 -22 -9 -5 -14 -23 -13 -45 1 -28 -2 -36 -12 -32 -18 7 -27 -15 -15
-34 15 -24 10 -39 -15 -49 -18 -7 -23 -15 -20 -37 1 -15 8 -29 13 -31 19 -6
12 -22 -10 -22 -12 0 -23 8 -26 20 -7 26 -20 26 -28 -1 -6 -17 -13 -20 -36
-15 -16 3 -29 2 -29 -3 0 -13 38 -43 41 -33 6 15 49 25 49 12 0 -19 -24 -37
-57 -44 -28 -6 -31 -5 -26 12 7 27 -17 40 -30 16 -10 -18 -11 -18 -17 0 -10
31 1 74 20 79 16 4 18 13 14 78 -5 65 -4 71 10 60 9 -8 16 -20 16 -27 0 -8 5
-14 10 -14 13 0 13 27 0 35 -6 4 -8 10 -5 15 3 4 -4 10 -15 13 -21 5 -27 31
-10 42 8 5 8 11 0 20 -8 10 -3 26 20 64 19 30 32 67 34 92 1 22 9 45 17 50 18
11 4 34 -35 57 -22 13 -30 14 -33 5 -3 -7 -13 -13 -23 -13 -10 0 -20 -6 -23
-12 -2 -7 -8 -10 -12 -5 -5 4 -1 13 9 20 14 10 15 18 7 39 -11 29 2 41 37 31
11 -2 23 0 26 5 4 7 18 7 39 1 17 -5 33 -9 34 -9 2 0 3 8 3 18 1 22 68 65 92
58 12 -3 17 0 15 7 -3 7 12 29 31 50 37 38 55 48 46 24z m-34144 -87 c0 -5 -1
-10 -2 -10 -34 -6 -111 -10 -107 -6 5 5 62 19 102 25 4 1 7 -3 7 -9z m30200
-40 c0 -5 -4 -10 -10 -10 -5 0 -10 5 -10 10 0 6 5 10 10 10 6 0 10 -4 10 -10z
m4854 -38 c22 -61 23 -72 11 -96 -12 -22 -11 -31 12 -78 35 -72 35 -188 0
-283 -8 -22 -18 -81 -22 -132 -5 -63 -13 -100 -26 -120 -10 -15 -19 -22 -19
-15 0 13 -47 62 -60 62 -4 0 -12 19 -18 43 -21 82 -22 121 -3 177 10 30 15 60
10 65 -4 6 -6 72 -5 148 3 126 5 140 25 158 11 11 21 24 21 30 0 5 10 23 21
39 22 30 43 30 53 2z m-1264 -32 c0 -5 -4 -10 -10 -10 -5 0 -10 5 -10 10 0 6
5 10 10 10 6 0 10 -4 10 -10z m-33872 -115 c3 -25 2 -27 -12 -16 -8 7 -21 11
-28 9 -12 -5 -37 18 -38 35 0 4 17 6 38 5 33 -3 37 -7 40 -33z m-1 -67 c-3 -7
-5 -2 -5 12 0 14 2 19 5 13 2 -7 2 -19 0 -25z m271 20 c20 -20 14 -26 -45 -48
l-58 -22 -14 21 c-9 14 -24 21 -47 21 -44 0 -45 20 -1 21 17 0 41 4 52 9 30
13 99 12 113 -2z m29122 -72 c49 -5 50 -5 50 -17 0 -6 -7 -8 -16 -5 -14 5 -15
4 -4 -9 7 -8 20 -15 29 -15 14 0 61 -34 61 -43 0 -2 -12 -4 -27 -5 -14 -1 -28
-4 -31 -6 -2 -3 -6 -53 -8 -113 -9 -254 -13 -296 -26 -304 -10 -7 -10 -9 2 -9
12 0 15 -13 13 -68 -3 -84 -7 -114 -17 -131 -5 -7 -9 -82 -11 -166 -1 -84 -5
-157 -8 -162 -4 -5 -1 -25 5 -45 8 -28 7 -42 -7 -71 -9 -20 -15 -44 -11 -52 3
-8 2 -15 -3 -15 -14 0 -23 -49 -26 -142 -4 -101 -10 -125 -33 -132 -36 -11
-160 -26 -222 -26 -84 0 -94 13 -96 128 -1 46 -6 88 -11 95 -5 7 -8 30 -7 52
1 22 -3 47 -10 55 -28 32 -26 49 4 65 17 9 30 22 30 31 0 8 8 18 18 21 22 9
32 23 32 51 0 13 -6 22 -15 22 -9 0 -19 8 -22 18 -4 9 -12 21 -20 25 -7 4 -13
17 -13 27 0 10 -4 21 -9 24 -7 5 -18 45 -21 76 -1 3 -9 41 -18 85 -19 90 -18
125 5 125 12 0 14 6 8 28 -13 52 -13 97 2 114 13 14 12 20 -4 44 -14 23 -18
49 -19 134 0 58 -4 130 -8 161 -7 46 -5 62 9 83 10 14 13 26 9 26 -5 0 -1 5 9
11 10 6 53 13 95 15 42 3 115 11 162 17 46 7 98 11 115 10 16 -2 46 -5 65 -7z
m-29120 -30 c-8 -8 -26 -17 -38 -21 -22 -6 -23 -5 -13 14 8 13 22 21 38 21 24
0 25 -2 13 -14z m29260 -6 c0 -5 -5 -10 -11 -10 -5 0 -7 5 -4 10 3 6 8 10 11
10 2 0 4 -4 4 -10z m-29350 -10 c0 -5 -2 -10 -4 -10 -3 0 -8 5 -11 10 -3 6 -1
10 4 10 6 0 11 -4 11 -10z m28277 -76 c24 -25 43 -49 43 -54 0 -5 13 -33 28
-64 l29 -55 2 -263 c1 -258 5 -364 15 -463 3 -27 8 -120 11 -205 3 -85 7 -174
9 -197 2 -24 -1 -43 -5 -43 -13 0 -11 -44 3 -58 9 -9 8 -12 -4 -12 -19 0 -30
-24 -17 -37 6 -6 2 -16 -11 -28 -20 -18 -21 -18 -42 3 -15 14 -22 34 -23 61 0
21 -3 37 -7 34 -5 -2 -8 3 -8 11 0 9 5 16 10 16 15 0 12 16 -6 34 -8 9 -13 20
-9 26 6 9 -10 49 -24 60 -4 3 -13 19 -21 35 -8 17 -16 33 -18 38 -2 4 3 4 12
1 18 -7 22 11 5 22 -7 4 -9 23 -5 49 4 33 2 44 -9 49 -9 3 -15 18 -15 37 0 20
-10 43 -29 65 -24 26 -29 40 -25 68 5 41 -10 83 -37 109 -10 10 -19 29 -19 42
0 13 -7 30 -15 39 -8 8 -15 21 -15 30 0 8 -4 18 -10 21 -5 3 -10 20 -10 37 0
23 -4 29 -16 24 -8 -3 -12 -2 -9 4 3 6 1 10 -4 10 -16 0 -13 46 3 59 12 10 9
17 -20 44 -34 30 -35 35 -35 99 0 37 -5 70 -10 73 -6 4 -6 13 0 23 6 11 5 20
-4 27 -20 16 4 166 28 174 10 4 18 10 18 14 -2 21 2 25 32 30 19 3 35 0 39 -8
8 -13 65 -8 74 6 2 5 -7 11 -21 15 -14 3 -25 10 -25 15 0 13 44 11 59 -3 10
-11 16 -9 28 10 9 12 20 22 26 22 6 0 30 -20 54 -46z m1053 1 c0 -8 -4 -15
-10 -15 -5 0 -10 7 -10 15 0 8 5 15 10 15 6 0 10 -7 10 -15z m150 -235 c0 -5
-10 -10 -22 -10 -19 0 -20 2 -8 10 19 13 30 13 30 0z m4405 -19 c-3 -6 -11 -8
-17 -5 -6 4 -5 9 3 15 16 10 23 4 14 -10z m-6425 -49 c0 -10 -7 -19 -15 -19
-15 0 -20 18 -8 30 12 13 23 7 23 -11z m6340 4 c0 -3 -4 -8 -10 -11 -5 -3 -10
-1 -10 4 0 6 5 11 10 11 6 0 10 -2 10 -4z m-4310 -76 c0 -5 -5 -10 -11 -10 -5
0 -7 5 -4 10 3 6 8 10 11 10 2 0 4 -4 4 -10z m-2002 -21 c-2 -6 -8 -10 -13
-10 -5 0 -11 4 -13 10 -2 6 4 11 13 11 9 0 15 -5 13 -11z m-2 -132 c1 -26 -2
-47 -7 -47 -5 0 -9 7 -9 15 0 9 -7 18 -15 21 -20 8 -19 24 1 24 12 0 15 6 11
21 -3 13 -1 19 6 16 7 -2 13 -25 13 -50z m544 43 c0 -5 -2 -10 -4 -10 -3 0 -8
5 -11 10 -3 6 -1 10 4 10 6 0 11 -4 11 -10z m5966 -27 c-11 -11 -17 4 -9 23 7
18 8 18 11 1 2 -10 1 -21 -2 -24z m-6542 -139 c-9 -13 -18 -23 -20 -21 -7 6
21 55 28 51 4 -3 0 -16 -8 -30z m36 -27 c0 -7 -9 -18 -21 -25 -17 -11 -20 -11
-13 0 20 36 34 46 34 25z m-20 -117 c0 -5 -4 -10 -10 -10 -5 0 -10 5 -10 10 0
6 5 10 10 10 6 0 10 -4 10 -10z m13872 -34 c8 12 118 18 118 5 0 -5 -6 -12
-12 -14 -7 -3 0 -6 15 -6 25 -1 27 -3 13 -16 -8 -8 -18 -15 -23 -15 -4 0 -19
-9 -33 -20 l-25 -20 23 0 c12 0 22 5 22 10 0 6 6 10 14 10 13 0 15 -16 7 -59
-1 -2 -7 2 -14 8 -8 6 -17 8 -20 5 -8 -8 18 -34 33 -34 7 0 9 -8 5 -20 -4 -12
-2 -20 5 -20 7 0 14 9 17 20 3 11 14 20 25 20 30 0 11 -31 -30 -46 -1 -1 4
-14 12 -30 12 -22 13 -30 3 -36 -8 -5 -13 -1 -15 11 -2 10 -14 24 -28 31 -13
7 -24 19 -24 27 0 7 -7 13 -15 13 -8 0 -15 -7 -15 -15 0 -8 -7 -15 -15 -15 -8
0 -15 4 -15 9 0 5 7 11 15 15 24 9 18 45 -9 56 -13 5 -30 22 -38 37 -7 16 -23
29 -36 31 -25 4 -31 22 -7 22 9 0 15 6 14 13 -1 6 2 21 6 31 8 19 9 19 15 1 4
-10 9 -14 12 -9z m-11147 -96 c-3 -5 -11 -10 -16 -10 -6 0 -7 5 -4 10 3 6 11
10 16 10 6 0 7 -4 4 -10z m2584 -23 c0 -21 -1 -21 -9 -2 -12 28 -12 37 0 30 6
-3 10 -16 9 -28z m-749 15 c0 -13 -12 -22 -22 -16 -10 6 -1 24 13 24 5 0 9 -4
9 -8z m-1883 -32 c0 -28 -1 -29 -18 -14 -14 13 -15 19 -6 30 18 20 24 17 24
-16z m11398 20 c4 -6 -5 -10 -20 -10 -15 0 -24 4 -20 10 3 6 12 10 20 10 8 0
17 -4 20 -10z m17 -40 c3 -25 2 -30 -7 -30 -5 0 -11 9 -11 20 -1 20 15 29 18
10z m38 -60 c0 -5 -9 -10 -20 -10 -11 0 -20 5 -20 10 0 6 9 10 20 10 11 0 20
-4 20 -10z m-140 -40 c0 -5 -4 -10 -10 -10 -5 0 -10 5 -10 10 0 6 5 10 10 10
6 0 10 -4 10 -10z m93 -28 c-7 -4 -16 -19 -22 -32 -9 -24 -10 -24 -10 8 -1 27
3 32 22 32 14 0 18 -3 10 -8z m-113 -12 c0 -5 -4 -10 -10 -10 -5 0 -10 5 -10
10 0 6 5 10 10 10 6 0 10 -4 10 -10z m60 -40 c0 -5 -4 -10 -10 -10 -5 0 -10 5
-10 10 0 6 5 10 10 10 6 0 10 -4 10 -10z m80 -25 c0 -9 -6 -12 -15 -9 -8 4
-22 1 -30 -6 -12 -10 -15 -9 -15 4 0 9 8 16 20 16 11 0 20 5 20 11 0 5 5 7 10
4 6 -3 10 -13 10 -20z m-1980 -101 c0 -13 7 -15 30 -10 25 4 30 2 30 -13 0
-29 26 -46 46 -30 14 11 18 11 29 -4 7 -10 19 -15 29 -11 10 4 16 1 16 -7 0
-7 8 -22 19 -33 20 -23 35 -92 21 -101 -9 -6 -152 30 -180 45 -10 5 -20 6 -24
3 -3 -3 -6 -1 -6 5 0 7 4 12 9 12 5 0 13 9 16 21 4 12 12 18 21 15 7 -3 16 -1
19 3 2 5 -5 11 -16 14 -16 4 -20 11 -16 26 3 13 1 18 -8 15 -7 -3 -27 2 -44
11 -18 9 -48 17 -68 18 -20 1 -38 7 -40 14 -3 8 9 11 36 9 22 -2 45 1 53 5 20
13 28 11 28 -7z m270 -304 c0 -20 2 -25 13 -39 16 -19 17 -151 2 -151 -7 0
-23 -10 -37 -23 -30 -28 -75 -32 -102 -10 -33 28 -66 44 -76 38 -6 -3 -7 0 -5
7 4 11 -7 13 -56 8 -61 -6 -62 -6 -115 38 -57 47 -65 65 -36 78 23 10 44 5 58
-13 6 -9 16 -13 21 -10 6 4 24 -6 41 -21 21 -20 40 -28 65 -28 33 0 67 -22 67
-43 0 -13 70 25 87 48 7 10 10 34 7 63 -4 38 -2 48 13 57 23 13 53 14 53 1z
m-8035 -450 c3 -6 -1 -13 -9 -16 -9 -3 -13 -10 -10 -15 8 -14 -24 -42 -41 -35
-21 8 -19 27 4 33 11 3 21 13 24 24 6 21 22 25 32 9z m7570 -180 c3 -5 -1 -10
-9 -10 -9 0 -16 5 -16 10 0 6 4 10 9 10 6 0 13 -4 16 -10z m65 6 c0 -3 -4 -8
-10 -11 -5 -3 -10 -1 -10 4 0 6 5 11 10 11 6 0 10 -2 10 -4z m210 -151 c36 -2
79 -7 95 -10 17 -3 46 -1 65 5 19 5 37 6 41 2 13 -13 -6 -77 -23 -76 -10 1
-14 -6 -12 -21 2 -26 32 -75 45 -75 5 0 9 -11 9 -25 0 -14 -3 -25 -6 -25 -3 0
-46 20 -95 45 -59 30 -102 45 -127 45 -47 0 -83 -10 -77 -21 3 -4 -8 -3 -25 2
-31 11 -39 24 -17 32 6 2 9 8 5 12 -5 5 -17 0 -27 -9 -15 -14 -24 -15 -39 -7
-11 6 -22 8 -25 5 -11 -11 -59 -11 -63 1 -3 6 0 25 6 41 8 20 8 30 1 32 -18 6
-12 22 8 22 10 0 24 7 31 15 7 8 19 15 27 15 7 0 16 -7 19 -15 8 -19 24 -20
24 -1 0 17 24 24 65 19 17 -2 59 -6 95 -8z m-658 -102 c57 -30 85 -55 99 -91
14 -36 11 -98 -6 -112 -25 -20 -19 -59 10 -66 25 -6 33 -28 15 -39 -5 -3 -7
-12 -4 -20 7 -16 -43 -45 -78 -45 -16 0 -27 9 -36 29 -7 16 -27 45 -45 65 -50
55 -54 61 -50 73 2 6 0 34 -5 61 -5 27 -5 58 -1 70 5 13 4 22 -1 22 -6 0 -10
11 -10 24 0 64 28 71 112 29z m-6952 -27 c0 -3 -4 -8 -10 -11 -5 -3 -10 -1
-10 4 0 6 5 11 10 11 6 0 10 -2 10 -4z m-200 -326 c0 -5 -5 -10 -11 -10 -5 0
-7 5 -4 10 3 6 8 10 11 10 2 0 4 -4 4 -10z m7656 -45 c10 -21 9 -26 -11 -39
-18 -12 -31 -12 -64 -4 -42 11 -46 15 -33 33 27 38 93 43 108 10z m-496 -190
c0 -8 17 -17 43 -22 l42 -9 0 -51 c-1 -36 -6 -58 -20 -72 -10 -12 -19 -29 -20
-39 -1 -16 -39 -98 -70 -152 -20 -35 -5 -46 46 -31 40 12 43 11 65 -12 21 -23
24 -38 28 -129 2 -57 1 -138 -3 -181 -4 -43 -4 -80 -2 -83 9 -8 8 -347 0 -376
-5 -17 -4 -28 2 -28 15 0 4 -81 -12 -91 -10 -6 -11 -11 -3 -16 12 -9 13 -467
1 -479 -4 -4 -1 -14 6 -22 9 -12 9 -16 0 -19 -16 -6 -17 -73 -2 -73 6 0 8 -7
5 -16 -3 -8 0 -27 8 -42 13 -26 11 -102 -3 -102 -11 0 -8 -115 3 -122 8 -6 6
-11 -4 -17 -8 -6 -11 -13 -7 -17 4 -4 2 -13 -4 -20 -7 -8 -7 -14 1 -19 14 -9
13 -42 -2 -48 -10 -3 -10 -9 0 -28 16 -30 22 -74 15 -111 -5 -25 -9 -27 -42
-23 -20 3 -37 9 -39 15 -2 5 -12 10 -23 10 -20 0 -26 15 -9 25 6 3 10 11 10
18 0 8 -3 8 -12 -1 -9 -9 -15 -7 -25 6 -8 9 -12 11 -8 5 4 -8 0 -13 -9 -13 -9
0 -16 -4 -16 -10 0 -10 15 -14 34 -11 5 1 6 -5 2 -14 -9 -25 12 -55 39 -55 26
0 46 -21 27 -28 -15 -5 -16 -29 -2 -37 6 -3 14 5 20 19 11 30 49 36 48 9 0
-10 3 -26 7 -35 5 -13 3 -18 -9 -18 -9 0 -16 -7 -16 -15 0 -8 5 -15 10 -15 6
0 9 -6 8 -12 -4 -19 -30 -37 -45 -31 -7 3 -13 0 -13 -6 0 -7 -18 -10 -45 -9
-30 1 -45 6 -45 15 0 9 8 11 24 7 17 -4 30 0 45 15 17 17 22 18 34 6 14 -14
27 -10 27 7 0 5 -4 6 -10 3 -6 -3 -10 4 -10 17 0 18 -2 20 -10 8 -6 -10 -10
-11 -10 -2 0 6 -3 11 -7 11 -25 -4 -34 3 -28 20 3 11 1 22 -4 25 -6 4 -8 13
-4 21 3 9 -1 15 -10 15 -24 0 -70 27 -58 35 15 9 14 36 -1 34 -36 -6 -66 35
-34 47 16 6 9 54 -8 54 -7 0 -11 12 -10 30 1 17 -2 33 -7 36 -5 3 -7 10 -3 15
3 5 10 7 15 4 10 -7 12 6 3 30 -5 13 -9 14 -15 4 -4 -8 -11 -11 -14 -7 -4 3 0
16 7 27 11 18 11 23 -2 31 -13 9 -13 11 0 20 13 9 13 11 0 20 -10 7 -12 12 -4
18 8 5 8 25 2 67 -20 131 -25 249 -11 263 16 16 16 25 3 38 -6 6 -13 34 -17
62 -3 29 -10 52 -14 52 -5 0 -9 8 -9 18 0 14 2 15 10 2 13 -20 13 -8 0 26 -6
15 -12 51 -12 78 -1 28 -4 56 -7 61 -3 6 -6 51 -7 100 0 50 -6 107 -13 128 -7
21 -10 48 -7 60 3 11 1 39 -4 62 -5 22 -12 96 -16 165 -3 69 -9 145 -13 170
-9 69 -2 160 13 160 7 0 19 12 26 28 11 23 14 24 18 9 3 -16 6 -15 18 8 7 14
15 42 16 61 1 22 12 43 30 61 19 18 28 37 28 58 0 17 4 35 8 41 27 30 61 295
39 303 -5 2 1 9 14 16 26 15 39 11 39 -10z m748 -157 c18 -35 32 -70 32 -79 0
-9 -18 -33 -40 -53 -44 -40 -50 -61 -20 -71 11 -3 20 -11 20 -17 0 -5 5 -8 12
-6 17 6 48 -23 48 -43 0 -10 6 -19 12 -21 9 -3 8 -9 -5 -22 -9 -9 -21 -15 -25
-12 -5 3 -28 -15 -52 -39 l-43 -44 8 -63 c4 -35 6 -76 5 -93 -2 -16 -4 -59 -4
-95 l-1 -65 35 1 c33 2 67 13 100 33 21 13 53 25 64 22 4 -1 13 5 20 14 7 10
18 14 29 9 14 -5 16 -13 11 -43 -4 -20 -13 -40 -20 -44 -8 -4 -14 -19 -14 -33
0 -13 -7 -41 -15 -61 -8 -19 -15 -46 -15 -59 0 -12 -4 -26 -10 -29 -5 -3 -10
-17 -10 -31 0 -14 -6 -24 -14 -24 -18 0 -13 -69 5 -81 7 -4 33 0 58 8 25 8 53
15 61 15 56 1 139 -6 160 -14 23 -9 24 -10 8 -22 -10 -7 -18 -20 -18 -29 0 -9
-9 -21 -20 -27 -11 -6 -18 -15 -15 -21 4 -5 3 -9 -2 -8 -25 4 -33 -3 -27 -25
4 -16 1 -25 -10 -29 -9 -4 -16 -18 -16 -35 0 -15 -4 -32 -8 -37 -18 -22 -35
-89 -23 -93 6 -2 11 -8 11 -14 0 -7 -5 -7 -13 1 -11 8 -18 7 -29 -7 -19 -21
-34 -77 -18 -67 5 3 10 2 10 -3 0 -5 10 -13 23 -17 21 -7 21 -8 -6 -12 -21 -3
-27 -9 -23 -20 3 -8 9 -27 12 -41 5 -22 4 -25 -7 -14 -7 6 -17 12 -21 12 -14
0 -9 -27 7 -40 8 -7 15 -8 15 -2 0 5 10 13 23 17 12 4 24 8 27 9 3 2 18 8 34
15 23 9 27 14 17 24 -9 9 -14 9 -21 -2 -7 -12 -11 -12 -24 -2 -17 15 -22 36
-6 26 6 -3 10 -1 10 4 0 15 33 14 48 -1 9 -9 12 -7 12 9 0 23 -22 36 -45 27
-9 -4 -15 0 -15 10 0 10 8 16 21 16 16 0 20 5 16 20 -6 25 12 38 24 18 5 -10
18 -14 33 -11 21 4 24 2 19 -15 -6 -25 34 -82 53 -75 18 7 19 -36 2 -73 -11
-23 -10 -28 9 -44 13 -10 32 -16 47 -13 28 6 56 -16 56 -41 0 -23 -28 -20 -35
4 -4 11 -11 18 -16 14 -9 -5 -6 -79 7 -128 4 -16 2 -26 -5 -26 -6 0 -8 -7 -5
-15 4 -9 0 -15 -9 -15 -8 0 -20 -7 -27 -15 -10 -12 -10 -15 4 -15 9 0 16 5 16
10 0 17 17 11 25 -7 13 -35 15 -62 4 -69 -6 -3 -15 -1 -19 6 -5 8 -10 9 -14 1
-4 -5 3 -20 14 -31 21 -21 21 -22 3 -35 -10 -8 -21 -15 -25 -15 -14 0 -23 5
-20 13 1 4 -2 7 -8 7 -5 0 -10 -4 -10 -10 0 -5 -8 -10 -17 -11 -14 0 -12 -3 5
-10 13 -5 20 -13 17 -19 -4 -6 6 -10 22 -10 22 0 25 2 13 10 -13 8 -12 10 3
10 9 0 17 -6 17 -14 0 -7 6 -26 14 -40 14 -28 11 -66 -5 -66 -5 0 -9 8 -9 18
-1 22 -36 69 -46 60 -4 -4 -1 -15 7 -24 12 -14 10 -19 -14 -38 -31 -25 -36
-42 -7 -26 16 9 18 8 14 -5 -4 -10 -16 -14 -32 -13 -22 3 -27 -2 -32 -26 -6
-36 -30 -47 -30 -15 0 22 0 22 -29 -5 -20 -20 -37 -27 -50 -23 -24 6 -28 -12
-9 -31 10 -10 10 -14 0 -21 -7 -4 -10 -15 -6 -24 4 -10 1 -17 -6 -17 -6 0 -14
8 -17 18 -5 20 -76 72 -98 72 -18 0 -18 -5 -5 -30 8 -15 6 -20 -10 -25 -11 -3
-24 -3 -30 0 -20 13 -9 -14 12 -29 15 -11 18 -16 8 -16 -19 0 -43 -37 -34 -51
4 -8 10 -7 16 2 7 11 8 9 4 -4 -3 -10 -6 -24 -6 -30 0 -6 -7 -2 -15 9 -18 23
-19 70 -2 78 6 2 1 4 -13 3 -19 -2 -26 3 -28 21 -4 25 -22 30 -22 6 0 -10 -6
-14 -14 -11 -18 7 -42 -18 -26 -28 5 -3 10 -14 10 -24 0 -14 -6 -17 -30 -13
-16 2 -28 8 -25 12 3 5 14 6 24 3 19 -5 19 -4 3 30 -10 20 -26 37 -37 39 -14
2 -21 12 -23 35 -3 31 -6 33 -55 40 -29 4 -57 6 -64 5 -6 -2 -14 2 -18 8 -4 7
-12 7 -26 0 -15 -9 -19 -7 -19 6 0 10 -5 14 -15 10 -8 -3 -15 -1 -15 3 0 10
24 21 47 21 8 0 21 7 29 15 9 8 12 15 8 15 -3 0 -1 7 6 15 13 15 5 39 -11 30
-18 -12 -28 5 -19 30 10 26 0 67 -15 65 -20 -2 -15 29 4 35 12 3 21 11 21 16
0 12 -17 12 -25 -1 -10 -16 -26 0 -20 20 4 13 0 20 -15 25 -15 5 -20 13 -17
26 3 12 0 19 -9 19 -8 0 -14 5 -14 10 0 6 8 10 17 10 15 0 15 1 -2 13 -10 8
-15 19 -11 25 4 6 0 27 -8 46 -9 21 -14 66 -14 111 0 42 -2 79 -6 82 -3 4 -6
22 -6 40 0 19 -5 43 -10 54 -9 15 -7 21 5 25 8 3 15 10 15 16 0 5 -4 6 -10 3
-6 -4 -10 16 -10 52 0 32 -3 69 -7 82 -4 17 -3 22 5 17 7 -4 12 -1 12 6 0 7 3
23 6 36 5 17 2 22 -12 23 -11 0 -14 3 -6 6 6 2 10 9 7 13 -3 5 -7 58 -10 117
-2 59 -6 122 -9 138 -2 17 -1 47 4 68 4 20 4 40 -1 43 -10 6 -7 133 4 151 4 6
3 14 -1 17 -5 3 -9 70 -8 148 1 79 -2 148 -6 154 -13 17 2 44 23 44 10 0 19 5
19 11 0 5 8 9 18 8 9 -2 42 6 72 16 30 11 57 19 60 20 10 1 70 59 70 67 0 5
13 22 29 38 15 16 31 43 35 61 9 47 7 99 -4 99 -5 0 -10 5 -10 10 0 12 37 50
48 50 4 0 22 -28 40 -62z m-3518 -8 c13 -8 12 -11 -5 -25 -11 -8 -38 -25 -60
-37 -22 -11 -43 -26 -47 -32 -12 -19 -19 1 -13 36 5 26 14 37 43 50 44 19 62
21 82 8z m3830 -40 c0 -20 -5 -30 -15 -30 -21 0 -30 27 -15 45 19 23 30 18 30
-15z m-1908 -165 c15 -22 30 -51 33 -65 3 -14 26 -47 50 -74 25 -27 45 -53 45
-57 0 -5 11 -11 24 -15 14 -3 27 -12 30 -20 4 -10 21 -13 71 -10 60 4 67 2 95
-24 32 -30 31 -28 44 -163 2 -21 6 -40 9 -43 2 -3 2 -25 -1 -49 -2 -24 -1 -52
3 -62 4 -10 7 -47 6 -83 -2 -83 -3 -73 3 -161 3 -42 8 -88 11 -102 4 -15 0
-37 -10 -57 -14 -27 -15 -34 -3 -41 7 -5 16 -9 20 -9 4 0 6 -36 4 -81 -1 -49
3 -90 10 -104 13 -26 9 -36 -12 -28 -8 3 -14 0 -14 -6 0 -6 -13 -17 -30 -26
-16 -9 -30 -22 -30 -29 0 -8 14 -19 30 -25 17 -5 30 -17 30 -25 0 -8 6 -16 13
-19 7 -2 12 -24 13 -58 1 -135 4 -159 17 -159 11 0 13 -45 13 -222 -1 -123 -5
-229 -10 -237 -5 -8 -4 -16 2 -20 6 -3 10 -35 9 -72 0 -36 3 -70 7 -77 4 -7 2
-12 -3 -12 -14 0 -14 -37 -1 -45 6 -3 8 -16 5 -28 -5 -24 -17 -254 -16 -299 1
-16 -3 -28 -9 -28 -5 0 -10 -5 -10 -10 0 -6 6 -9 13 -8 8 2 12 -14 13 -52 1
-53 -10 -85 -26 -75 -4 3 -4 -12 1 -33 5 -23 4 -49 -2 -70 -6 -18 -8 -39 -5
-47 4 -12 1 -12 -19 -3 -14 6 -25 15 -25 20 0 4 -9 8 -20 8 -27 0 -25 -24 3
-44 15 -12 18 -18 10 -22 -20 -9 -15 -24 7 -24 11 0 20 7 20 15 0 8 9 15 20
15 17 0 20 -6 17 -34 -1 -23 -8 -36 -19 -40 -10 -2 -18 0 -18 5 0 5 -16 9 -35
9 -25 0 -35 -4 -35 -16 0 -8 -4 -13 -9 -10 -5 3 -8 -2 -7 -12 1 -13 -6 -16
-29 -14 -16 2 -31 5 -33 6 -6 6 11 36 20 36 5 0 6 -4 3 -10 -3 -5 1 -10 10
-10 26 0 13 33 -16 40 -16 5 -33 2 -44 -6 -29 -21 -58 -18 -50 5 4 14 0 23
-15 31 -11 6 -20 19 -20 30 0 11 -9 24 -20 30 -11 6 -18 15 -15 20 8 13 -24
28 -46 23 -12 -4 -19 0 -19 10 0 8 9 17 20 20 11 3 20 12 20 21 0 22 -13 20
-28 -5 -9 -14 -20 -19 -33 -16 -12 3 -19 0 -19 -9 0 -8 -10 -14 -26 -14 -18 0
-25 -5 -22 -17 4 -22 28 -29 28 -9 0 9 4 16 8 16 4 0 6 -16 4 -36 -3 -23 -9
-34 -17 -30 -7 2 -18 -1 -24 -7 -8 -8 -11 -8 -11 1 0 7 5 12 10 12 19 0 10 19
-25 55 -30 29 -34 39 -29 62 7 25 5 26 -8 15 -14 -11 -16 -9 -15 20 2 20 7 32
15 30 6 -1 12 5 12 13 0 8 -7 15 -17 15 -24 0 -93 32 -93 44 0 5 -7 18 -17 28
-15 17 -15 18 11 18 16 0 25 4 21 10 -3 6 1 12 9 15 52 16 51 16 36 25 -8 5
-26 6 -41 3 -22 -4 -28 -2 -28 13 -2 75 -7 94 -22 94 -9 0 -19 7 -23 15 -3 8
-13 15 -22 15 -8 0 -14 5 -12 11 2 6 7 10 11 10 4 -1 16 -1 27 -1 12 0 20 -7
20 -17 0 -14 2 -14 20 2 19 17 20 17 28 -6 7 -17 5 -27 -5 -34 -12 -9 -11 -14
7 -30 16 -14 23 -16 32 -7 20 20 55 14 73 -14 16 -26 16 -26 -7 -20 l-23 7 23
-17 c12 -9 22 -24 22 -33 0 -12 2 -13 9 -3 4 7 12 12 17 11 5 -1 17 -1 27 0
23 1 22 21 -1 21 -10 0 -23 5 -30 12 -15 15 -16 48 -2 48 6 0 10 7 10 16 0 9
6 14 13 11 7 -3 19 4 26 14 9 16 9 25 -1 46 -13 27 -38 43 -38 24 0 -6 7 -11
16 -11 14 0 14 -3 4 -15 -14 -17 -35 -21 -24 -4 3 6 1 15 -7 20 -11 6 -10 11
4 27 9 10 17 22 17 25 0 14 -33 6 -47 -10 -8 -10 -11 -12 -7 -4 3 7 1 17 -7
21 -9 6 -2 11 21 17 44 11 48 26 11 40 -25 9 -32 8 -49 -9 -16 -16 -24 -18
-40 -9 -16 8 -21 7 -26 -4 -3 -8 -11 -15 -18 -15 -16 0 -40 -48 -28 -55 5 -3
13 3 19 12 5 10 13 14 17 10 10 -10 -11 -43 -25 -39 -6 1 -11 -2 -11 -8 0 -5
-8 -10 -18 -10 -15 0 -19 8 -20 38 -2 50 6 72 27 72 18 0 41 18 41 33 0 5 -6
4 -14 -2 -7 -6 -25 -10 -40 -9 -23 2 -25 4 -12 14 22 15 20 24 -4 24 -28 0
-39 49 -15 67 18 12 18 13 1 13 -15 0 -17 5 -12 28 7 26 12 50 18 82 2 8 8 21
12 29 9 15 9 57 0 176 -8 107 -6 164 14 306 5 31 7 71 6 88 -1 17 3 31 8 31 7
0 8 23 3 68 -11 97 -13 261 -2 302 4 19 13 53 19 75 6 22 10 77 9 123 -1 45 4
102 10 125 15 55 19 108 23 307 2 91 9 178 15 194 7 16 9 31 7 34 -3 2 0 14 6
25 6 12 11 50 10 86 -1 133 52 180 110 96z m1206 -13 c6 -18 -15 -14 -22 4 -4
10 -1 14 6 12 6 -2 14 -10 16 -16z m2 -47 c0 -8 -4 -15 -10 -15 -5 0 -10 7
-10 15 0 8 5 15 10 15 6 0 10 -7 10 -15z m-3142 -182 c9 -3 22 -7 27 -8 25 -3
65 -26 65 -35 0 -7 25 -11 68 -10 101 2 138 -16 98 -49 -14 -12 -147 -31 -206
-30 -19 1 -79 -3 -132 -9 -54 -6 -107 -8 -118 -5 -12 3 -20 0 -20 -7 0 -10 -3
-10 -15 0 -8 7 -15 21 -15 32 0 11 -5 28 -10 38 -8 14 -6 28 7 52 l18 33 78
-3 c42 -2 85 1 94 7 16 9 24 8 61 -6z m465 -54 c-4 -15 -43 -29 -43 -15 0 17
13 32 29 33 14 1 17 -3 14 -18z m3491 -32 c17 -12 17 -14 3 -20 -11 -4 -21 1
-27 13 -12 23 -2 26 24 7z m-3477 -177 c1 -36 -2 -76 -7 -90 -4 -14 -11 -40
-14 -57 -5 -28 -2 -33 14 -33 17 0 18 -3 8 -31 -14 -41 -45 -59 -96 -56 -23 1
-43 -1 -44 -5 -4 -10 -75 -20 -135 -19 -47 1 -51 0 -46 -20 5 -20 10 -20 119
-13 97 6 114 5 114 -8 0 -8 -9 -23 -20 -33 -11 -10 -20 -15 -20 -11 0 3 -18
-5 -40 -19 -33 -21 -61 -28 -143 -35 -100 -9 -152 -15 -232 -25 -56 -7 -125 4
-119 19 3 7 1 31 -5 54 -5 25 -5 44 0 48 5 3 9 0 9 -6 0 -14 36 -4 71 21 14
10 29 15 33 12 3 -4 15 3 26 15 l21 22 -44 0 c-78 0 -107 10 -107 36 0 12 5
26 11 30 8 5 8 9 -1 14 -17 10 -1 59 24 72 11 6 32 13 46 15 34 4 75 11 75 13
0 0 20 3 43 5 51 4 74 28 67 67 -4 24 0 29 23 34 15 4 32 10 37 15 6 4 46 12
89 18 44 6 81 12 82 14 1 1 38 2 81 2 l78 0 2 -65z m-397 -36 c0 -17 -22 -14
-28 4 -2 7 3 12 12 12 9 0 16 -7 16 -16z m4540 -142 c0 -13 -12 -22 -22 -16
-10 6 -1 24 13 24 5 0 9 -4 9 -8z m55 -2 c3 -5 1 -10 -4 -10 -6 0 -11 5 -11
10 0 6 2 10 4 10 3 0 8 -4 11 -10z m-65 -56 c0 -8 -4 -14 -10 -14 -5 0 -10 9
-10 21 0 11 5 17 10 14 6 -3 10 -13 10 -21z m120 -4 c0 -5 -7 -10 -16 -10 -8
0 -12 5 -9 10 3 6 10 10 16 10 5 0 9 -4 9 -10z m-10 -74 c0 -3 -4 -8 -10 -11
-5 -3 -10 -1 -10 4 0 6 5 11 10 11 6 0 10 -2 10 -4z m-320 -326 c0 -5 -4 -10
-10 -10 -5 0 -10 5 -10 10 0 6 5 10 10 10 6 0 10 -4 10 -10z m-10 -25 c0 -1
-9 -5 -20 -8 -12 -3 -20 0 -20 8 0 8 8 11 20 8 11 -3 20 -7 20 -8z m-610 -35
c0 -5 -4 -10 -10 -10 -5 0 -10 5 -10 10 0 6 5 10 10 10 6 0 10 -4 10 -10z
m500 -101 c0 -6 -4 -7 -10 -4 -5 3 -10 11 -10 16 0 6 5 7 10 4 6 -3 10 -11 10
-16z m-70 -109 c-18 -14 -27 -15 -32 -7 -5 8 0 13 12 15 11 2 20 11 20 20 0
13 2 14 13 3 10 -10 7 -16 -13 -31z m95 10 c-2 -4 -16 -5 -31 -2 -16 3 -21 7
-14 12 15 9 52 1 45 -10z m53 2 c2 -7 -3 -12 -12 -12 -9 0 -16 7 -16 16 0 17
22 14 28 -4z m-104 -20 c2 -4 -4 -13 -14 -19 -15 -10 -17 -9 -13 8 5 20 18 25
27 11z m-104 -37 c10 -12 10 -15 -4 -15 -9 0 -16 7 -16 15 0 8 2 15 4 15 2 0
9 -7 16 -15z m-27 -70 c4 -8 2 -17 -3 -20 -6 -4 -10 3 -10 14 0 25 6 27 13 6z
m547 -75 c0 -5 -4 -10 -10 -10 -5 0 -10 5 -10 10 0 6 5 10 10 10 6 0 10 -4 10
-10z m-569 -10 c5 0 9 -4 9 -10 0 -5 -6 -10 -14 -10 -8 0 -16 -6 -19 -12 -3
-10 -8 -10 -16 -2 -16 14 -2 47 16 40 8 -3 19 -6 24 -6z m-906 -91 c-5 -13 1
-26 17 -39 23 -19 15 -26 -16 -14 -11 4 -16 19 -16 46 0 24 4 37 10 33 6 -4 8
-15 5 -26z m916 -52 c-10 -9 -11 -8 -5 6 3 10 9 15 12 12 3 -3 0 -11 -7 -18z
m-41 -37 c0 -11 -4 -20 -9 -20 -11 0 -22 26 -14 34 12 12 23 5 23 -14z m-837
-6 c12 -4 12 -10 3 -30 -6 -13 -15 -24 -19 -24 -5 0 -5 5 -1 11 3 6 1 15 -6
19 -7 4 -9 13 -6 19 8 13 9 13 29 5z m877 -14 c0 -5 -2 -10 -4 -10 -3 0 -8 5
-11 10 -3 6 -1 10 4 10 6 0 11 -4 11 -10z m-852 -51 c-2 -6 -7 -10 -11 -10 -4
1 -15 1 -24 1 -15 0 -16 2 -3 10 20 13 43 13 38 -1z m992 -39 c0 -5 -7 -10
-16 -10 -8 0 -12 5 -9 10 3 6 10 10 16 10 5 0 9 -4 9 -10z m45 -10 c3 -5 -1
-10 -10 -10 -9 0 -13 5 -10 10 3 6 8 10 10 10 2 0 7 -4 10 -10z m-1085 -30 c0
-5 -4 -10 -10 -10 -5 0 -10 5 -10 10 0 6 5 10 10 10 6 0 10 -4 10 -10z m825
-80 c-3 -5 -12 -7 -20 -3 -21 7 -19 13 6 13 11 0 18 -4 14 -10z m-795 -9 c0
-6 -4 -13 -10 -16 -5 -3 -10 1 -10 9 0 9 5 16 10 16 6 0 10 -4 10 -9z m86 -12
c16 -18 16 -19 -2 -19 -11 0 -25 5 -32 12 -9 9 -13 7 -18 -5 -9 -26 -22 -20
-17 7 6 29 44 32 69 5z m84 2 c0 -5 -5 -11 -12 -13 -8 -3 -5 -12 10 -28 16
-18 19 -27 11 -37 -9 -10 -7 -14 6 -20 12 -4 23 0 31 12 8 10 14 14 14 7 0
-10 -19 -61 -27 -72 -2 -2 -17 11 -34 30 -27 33 -29 33 -26 11 2 -14 9 -27 15
-29 6 -2 8 -10 5 -18 -3 -8 1 -14 11 -14 9 0 16 -7 16 -16 0 -9 -6 -14 -12
-11 -7 2 -21 -2 -30 -10 -17 -15 -38 -10 -38 9 0 6 9 8 20 5 23 -6 23 -6 10
27 -12 32 -27 34 -26 4 1 -26 -39 -38 -58 -17 -8 9 -7 11 6 6 23 -8 34 11 13
20 -10 3 -31 6 -49 7 -25 1 -32 6 -34 24 -3 20 0 23 18 17 21 -7 21 -6 4 20
-13 19 -14 29 -5 38 6 6 11 7 11 2 0 -6 4 -4 8 3 7 10 14 10 37 -2 15 -8 31
-20 35 -27 5 -7 15 -9 26 -4 11 5 22 7 27 7 11 -3 9 16 -3 23 -5 3 -10 1 -10
-5 0 -6 -4 -9 -9 -5 -5 3 -9 19 -9 35 1 25 5 30 25 30 12 0 23 -4 23 -9z m528
-8 c-4 -22 -22 -20 -26 1 -2 10 3 16 13 16 10 0 15 -7 13 -17z m-1068 -53 c0
-5 -4 -10 -10 -10 -5 0 -10 5 -10 10 0 6 5 10 10 10 6 0 10 -4 10 -10z m-140
-22 c0 -13 -23 -5 -28 10 -2 7 2 10 12 6 9 -3 16 -11 16 -16z m1035 -8 c8 -13
-5 -13 -25 0 -13 8 -13 10 2 10 9 0 20 -4 23 -10z m-1001 -9 c7 -11 -11 -26
-41 -35 -15 -5 -23 -3 -23 4 0 7 9 14 20 17 11 3 20 9 20 14 0 12 17 12 24 0z
m1106 -1 c0 -5 -4 -10 -10 -10 -5 0 -10 5 -10 10 0 6 5 10 10 10 6 0 10 -4 10
-10z m-285 -62 c1 -42 0 -46 -16 -37 -14 7 -19 5 -24 -10 -3 -11 -13 -22 -22
-25 -12 -5 -13 -9 -3 -21 9 -11 7 -16 -9 -27 -29 -18 -26 -29 7 -23 26 5 26 5
4 -5 -29 -13 -72 -3 -72 17 0 19 22 41 38 35 7 -2 10 2 6 12 -9 22 -54 21 -55
-1 -1 -10 -1 -21 0 -25 0 -4 -10 -10 -24 -14 -30 -7 -33 -24 -5 -24 11 0 20
-4 20 -10 0 -15 -29 -12 -45 4 -12 11 -11 17 7 35 11 12 17 25 13 29 -3 4 -11
-1 -16 -11 -12 -20 -38 -22 -64 -4 -13 11 -15 16 -6 22 7 4 18 2 24 -4 16 -16
27 -14 27 5 0 10 5 14 15 10 9 -3 18 1 21 9 3 7 19 17 35 20 16 4 29 10 29 15
0 18 35 21 48 3 11 -16 14 -16 22 -3 10 16 13 35 10 63 -1 13 4 18 16 15 13
-2 17 -15 19 -50z m162 26 c2 -6 -5 -14 -17 -17 -15 -4 -20 0 -20 15 0 21 30
23 37 2z m-57 -4 c0 -5 -9 -10 -20 -10 -11 0 -20 5 -20 10 0 6 9 10 20 10 11
0 20 -4 20 -10z m110 -22 c0 -13 -23 -5 -28 10 -2 7 2 10 12 6 9 -3 16 -11 16
-16z m-575 -8 c-6 -19 -4 -19 19 -8 30 13 44 5 27 -16 -9 -11 -8 -15 5 -20 16
-6 15 -8 -2 -21 -18 -14 -18 -14 0 -15 15 0 17 -6 14 -30 -5 -32 1 -37 19 -19
6 6 19 9 29 6 17 -4 17 -6 -3 -12 -24 -8 -31 -29 -13 -40 6 -4 7 -11 4 -17 -4
-6 -10 -6 -17 1 -15 15 -25 14 -29 -3 -3 -13 -6 -13 -22 0 -17 12 -18 14 -3
14 33 0 16 76 -19 84 -26 7 -34 40 -11 50 8 3 7 9 -7 20 -16 13 -17 18 -6 31
17 21 23 19 15 -5z m-425 -10 c0 -5 -2 -10 -4 -10 -3 0 -8 5 -11 10 -3 6 -1
10 4 10 6 0 11 -4 11 -10z m908 -20 c3 -21 2 -22 -12 -11 -19 16 -21 44 -3 39
6 -3 14 -15 15 -28z m-978 -2 c0 -16 -3 -19 -11 -11 -6 6 -8 16 -5 22 11 17
16 13 16 -11z m1016 -53 c-4 -14 -14 -25 -23 -25 -15 0 -15 1 0 18 10 10 17
25 17 32 0 7 3 11 6 7 4 -3 4 -18 0 -32z m94 31 c0 -3 -4 -8 -10 -11 -5 -3
-10 -1 -10 4 0 6 5 11 10 11 6 0 10 -2 10 -4z m-950 -16 c0 -5 -4 -10 -10 -10
-5 0 -10 5 -10 10 0 6 5 10 10 10 6 0 10 -4 10 -10z m695 -20 c-3 -5 -13 -10
-21 -10 -8 0 -12 5 -9 10 3 6 13 10 21 10 8 0 12 -4 9 -10z m-705 -25 c0 -8
-4 -15 -10 -15 -5 0 -7 7 -4 15 4 8 8 15 10 15 2 0 4 -7 4 -15z m990 -14 c0
-12 -28 -22 -34 -12 -3 5 -3 11 1 15 9 9 33 7 33 -3z m55 -1 c-3 -5 -11 -10
-16 -10 -6 0 -7 5 -4 10 3 6 11 10 16 10 6 0 7 -4 4 -10z m-690 -40 c-5 -15
-10 -19 -17 -12 -5 5 -7 20 -3 32 5 15 10 19 17 12 5 -5 7 -20 3 -32z m585 20
c0 -5 -4 -10 -10 -10 -5 0 -10 5 -10 10 0 6 5 10 10 10 6 0 10 -4 10 -10z
m-942 -56 c3 -48 3 -48 -17 -30 -11 10 -18 23 -15 27 3 5 0 9 -5 9 -6 0 -11
-13 -11 -30 0 -26 -4 -30 -27 -30 -26 1 -27 2 -10 14 17 13 17 15 -3 29 -21
15 -21 15 9 22 22 5 31 12 31 26 0 14 6 18 23 15 19 -2 22 -10 25 -52z m478
19 c-10 -10 -19 5 -10 18 6 11 8 11 12 0 2 -7 1 -15 -2 -18z m414 17 c0 -5 -4
-10 -10 -10 -5 0 -10 5 -10 10 0 6 5 10 10 10 6 0 10 -4 10 -10z m-383 -22
c-3 -8 -6 -5 -6 6 -1 11 2 17 5 13 3 -3 4 -12 1 -19z m178 12 c3 -5 1 -10 -4
-10 -6 0 -11 5 -11 10 0 6 2 10 4 10 3 0 8 -4 11 -10z m160 -8 c-3 -3 -11 0
-18 7 -9 10 -8 11 6 5 10 -3 15 -9 12 -12z m-7310 -11 c-3 -6 -11 -8 -17 -5
-6 4 -5 9 3 15 16 10 23 4 14 -10z m7264 -3 c19 -2 36 -8 38 -15 3 -7 -3 -10
-15 -6 -11 2 -23 0 -26 -6 -4 -7 1 -11 13 -11 12 0 21 -4 21 -10 0 -16 -33
-11 -56 8 -12 10 -25 29 -29 42 -7 21 -5 23 6 13 8 -6 29 -13 48 -15z m-241
-19 c-3 -8 -7 -3 -11 10 -4 17 -3 21 5 13 5 -5 8 -16 6 -23z m-185 -10 c3 -12
10 -18 16 -14 11 6 15 -6 11 -39 -1 -10 4 -22 10 -26 7 -4 9 -13 6 -19 -11
-17 -46 -13 -46 4 0 9 -7 18 -16 22 -16 6 -16 7 0 18 14 11 14 14 -4 30 -15
13 -16 20 -7 31 17 19 24 17 30 -7z m247 2 c0 -12 -20 -25 -27 -18 -7 7 6 27
18 27 5 0 9 -4 9 -9z m-750 -16 c0 -8 -7 -15 -15 -15 -8 0 -15 7 -15 15 0 8 7
15 15 15 8 0 15 -7 15 -15z m656 5 c9 0 13 -4 10 -9 -4 -5 -3 -17 0 -26 5 -13
8 -14 15 -3 6 9 9 7 9 -9 0 -16 -4 -21 -16 -16 -10 4 -17 -1 -21 -16 -9 -35
-19 -23 -15 19 4 39 3 40 -27 40 -17 0 -31 4 -31 9 0 11 30 20 48 15 8 -2 20
-4 28 -4z m164 0 c0 -5 -2 -10 -4 -10 -3 0 -8 5 -11 10 -3 6 -1 10 4 10 6 0
11 -4 11 -10z m35 -10 c3 -5 1 -10 -4 -10 -6 0 -11 5 -11 10 0 6 2 10 4 10 3
0 8 -4 11 -10z m-1895 -40 c0 -5 -2 -10 -4 -10 -3 0 -8 5 -11 10 -3 6 -1 10 4
10 6 0 11 -4 11 -10z m1850 0 c8 -5 13 -10 10 -10 -60 -9 -80 -8 -80 5 0 17
46 20 70 5z m-694 -27 c-10 -10 -19 5 -10 18 6 11 8 11 12 0 2 -7 1 -15 -2
-18z m-1179 5 c-2 -7 3 -18 12 -25 14 -11 14 -12 1 -13 -21 0 -44 37 -27 43
18 8 19 8 14 -5z m1113 8 c0 -3 -4 -8 -10 -11 -5 -3 -10 -1 -10 4 0 6 5 11 10
11 6 0 10 -2 10 -4z m410 -26 c0 -5 -5 -10 -11 -10 -5 0 -7 5 -4 10 3 6 8 10
11 10 2 0 4 -4 4 -10z m228 -18 c2 -7 -3 -12 -12 -12 -9 0 -16 7 -16 16 0 17
22 14 28 -4z m-58 -23 c0 -16 -31 -22 -43 -10 -9 10 -9 12 3 9 8 -2 14 2 13 9
-2 7 4 10 12 7 8 -4 15 -10 15 -15z m-5916 -11 c-3 -5 -11 -7 -18 -5 -7 3 -23
-1 -37 -9 -31 -17 -40 -17 -33 0 3 8 12 12 20 9 8 -3 14 0 14 5 0 12 29 20 47
14 7 -2 10 -8 7 -14z m5820 6 c4 -9 4 -19 1 -22 -3 -3 -5 0 -5 6 0 7 -7 12
-16 12 -8 0 -12 5 -9 10 9 15 22 12 29 -6z m-1563 -31 c12 -15 12 -16 -4 -10
-10 4 -23 7 -28 7 -5 0 -9 5 -9 10 0 16 26 12 41 -7z m1774 8 c7 -12 -12 -24
-25 -16 -11 7 -4 25 10 25 5 0 11 -4 15 -9z m-160 -11 c3 -5 1 -10 -4 -10 -6
0 -11 5 -11 10 0 6 2 10 4 10 3 0 8 -4 11 -10z m772 -12 c-3 -8 -6 -5 -6 6 -1
11 2 17 5 13 3 -3 4 -12 1 -19z m-873 -3 c-4 -8 -10 -12 -15 -9 -14 8 -10 24
6 24 9 0 12 -6 9 -15z m166 11 c0 -2 -7 -9 -15 -16 -13 -11 -14 -10 -9 4 5 14
24 23 24 12z m-1700 -41 c0 -8 -7 -15 -15 -15 -8 0 -15 7 -15 15 0 8 7 15 15
15 8 0 15 -7 15 -15z m1627 -22 c6 23 23 22 23 -3 0 -13 -7 -20 -20 -20 -11 0
-20 5 -20 10 0 6 -7 10 -15 10 -18 0 -20 17 -2 23 6 2 16 -6 21 -17 8 -19 10
-19 13 -3z m143 3 c0 -14 -10 -32 -22 -40 -28 -20 -35 -20 -35 -1 0 8 4 12 8
9 10 -6 40 37 33 48 -3 4 0 8 5 8 6 0 11 -11 11 -24z m-216 3 c-6 -11 -44 -12
-44 -1 0 4 11 8 25 8 14 1 22 -2 19 -7z m-1464 -53 c0 -2 3 -11 6 -19 4 -12 0
-14 -15 -10 -27 7 -36 33 -11 33 11 0 20 -2 20 -4z m1060 -6 c0 -5 -2 -10 -4
-10 -3 0 -8 5 -11 10 -3 6 -1 10 4 10 6 0 11 -4 11 -10z m470 -30 c0 -5 -2
-10 -4 -10 -3 0 -8 5 -11 10 -3 6 -1 10 4 10 6 0 11 -4 11 -10z m-910 -31 c0
-5 -4 -9 -10 -9 -5 0 -10 7 -10 16 0 8 5 12 10 9 6 -3 10 -10 10 -16z m1037
-29 c1 -11 -2 -22 -8 -25 -5 -4 -9 5 -9 19 0 30 15 35 17 6z m-1653 -29 c3 -5
-1 -14 -8 -20 -12 -10 -14 -9 -11 6 2 10 4 19 4 21 2 5 10 2 15 -7z m614 -36
c-1 -28 -5 -42 -10 -37 -8 8 -1 82 7 82 2 0 3 -20 3 -45z m-564 -28 c6 -5 -4
-5 -21 -2 -35 7 -45 -7 -17 -23 23 -13 0 -26 -32 -18 -37 10 -30 30 21 57 20
10 31 12 34 5 2 -6 9 -15 15 -19z m142 1 c-3 -13 -6 -26 -6 -30 0 -5 -3 -8 -7
-8 -5 0 -9 14 -10 30 -2 22 2 30 14 30 11 0 14 -6 9 -22z m72 -24 c-10 -10
-28 6 -28 24 0 15 1 15 17 -1 9 -9 14 -19 11 -23z m90 -127 c2 -15 -1 -27 -7
-27 -6 0 -11 9 -11 21 0 15 -5 19 -15 15 -15 -6 -20 5 -8 18 15 14 38 0 41
-27z m165 -6 c-2 -6 8 -11 21 -11 28 0 42 -15 25 -26 -6 -3 -23 2 -37 13 -29
21 -43 48 -21 41 8 -3 13 -11 12 -17z m64 13 c-3 -3 -12 -4 -19 -1 -8 3 -5 6
6 6 11 1 17 -2 13 -5z m-102 -53 c-3 -11 -1 -22 5 -26 13 -8 13 -25 0 -25 -5
0 -10 7 -10 15 0 9 -6 12 -15 9 -20 -8 -19 5 3 27 22 23 25 23 17 0z m-25985
-2159 c31 -25 20 -39 -47 -58 -49 -14 -57 -14 -70 -1 -23 23 -8 57 25 57 15 0
34 5 42 10 21 13 25 13 50 -8z m17090 -938 c0 -8 5 -12 10 -9 19 12 110 -6
110 -21 0 -10 8 -12 29 -8 21 4 38 0 60 -17 17 -12 31 -25 31 -28 0 -3 -61 -6
-135 -6 -145 0 -150 2 -141 52 3 15 1 20 -9 17 -18 -7 -31 16 -14 27 23 15 59
11 59 -7z m-7 -534 c14 -11 30 -20 35 -20 31 0 134 -89 146 -126 3 -11 0 -28
-6 -37 -19 -26 -92 -9 -148 34 -59 44 -133 136 -126 155 8 21 69 18 99 -6z"/>
<path d="M31114 39122 c3 -6 -4 -18 -16 -27 -20 -13 -21 -17 -8 -25 8 -5 21
-10 28 -10 15 0 16 56 0 66 -6 4 -8 3 -4 -4z"/>
<path d="M31175 39070 c-3 -5 3 -10 14 -10 12 0 21 5 21 10 0 6 -6 10 -14 10
-8 0 -18 -4 -21 -10z"/>
<path d="M31375 39000 c-8 -13 -1 -24 14 -19 6 3 7 10 2 18 -6 10 -10 10 -16
1z"/>
<path d="M30189 38884 c-9 -11 -8 -18 1 -29 14 -17 45 -21 35 -5 -4 6 -2 17 4
24 9 10 7 15 -8 19 -11 3 -25 -1 -32 -9z"/>
<path d="M29890 38755 c0 -8 4 -15 10 -15 5 0 7 7 4 15 -4 8 -8 15 -10 15 -2
0 -4 -7 -4 -15z"/>
<path d="M29930 38730 c0 -5 5 -10 11 -10 5 0 7 5 4 10 -3 6 -8 10 -11 10 -2
0 -4 -4 -4 -10z"/>
<path d="M29843 38713 c-18 -7 -16 -23 2 -23 8 0 15 7 15 15 0 8 -1 15 -2 14
-2 0 -9 -3 -15 -6z"/>
<path d="M29890 38689 c0 -5 5 -7 10 -4 6 3 10 8 10 11 0 2 -4 4 -10 4 -5 0
-10 -5 -10 -11z"/>
<path d="M31910 38686 c0 -8 4 -17 9 -20 5 -4 7 3 4 14 -6 23 -13 26 -13 6z"/>
<path d="M29720 38645 c0 -8 2 -15 4 -15 2 0 6 7 10 15 3 8 1 15 -4 15 -6 0
-10 -7 -10 -15z"/>
<path d="M29484 38494 c3 -9 6 -19 6 -22 0 -9 20 21 20 31 0 4 -7 7 -16 7 -11
0 -14 -5 -10 -16z"/>
<path d="M32243 38419 c-6 -6 -9 -18 -6 -26 4 -11 9 -10 24 6 11 11 19 23 19
26 0 9 -26 5 -37 -6z"/>
<path d="M29410 38389 c0 -5 5 -7 10 -4 6 3 10 8 10 11 0 2 -4 4 -10 4 -5 0
-10 -5 -10 -11z"/>
<path d="M32417 38234 c-8 -8 1 -24 14 -24 5 0 9 7 9 15 0 15 -12 20 -23 9z"/>
<path d="M29150 38139 c-14 -25 -7 -34 17 -24 10 5 24 7 31 6 6 -1 12 3 12 9
0 5 -7 10 -16 10 -8 0 -12 5 -9 10 3 6 -1 10 -9 10 -8 0 -20 -9 -26 -21z"/>
<path d="M29100 38120 c0 -5 4 -10 9 -10 5 0 8 -8 6 -17 -1 -10 0 -12 2 -5 3
7 8 10 13 7 4 -3 6 4 3 15 -5 20 -33 29 -33 10z"/>
<path d="M32480 38090 c0 -5 7 -10 16 -10 8 0 12 5 9 10 -3 6 -10 10 -16 10
-5 0 -9 -4 -9 -10z"/>
<path d="M32550 38070 c0 -5 5 -10 10 -10 6 0 10 5 10 10 0 6 -4 10 -10 10 -5
0 -10 -4 -10 -10z"/>
<path d="M32567 38034 c-9 -10 2 -24 19 -24 8 0 14 7 14 15 0 15 -21 21 -33 9z"/>
<path d="M32605 38009 c-10 -14 -1 -21 19 -13 9 3 13 10 10 15 -7 12 -21 11
-29 -2z"/>
<path d="M28928 37843 c6 -2 18 -2 25 0 6 3 1 5 -13 5 -14 0 -19 -2 -12 -5z"/>
<path d="M32725 37750 c-3 -5 -2 -10 4 -10 5 0 13 5 16 10 3 6 2 10 -4 10 -5
0 -13 -4 -16 -10z"/>
<path d="M28800 37668 c0 -9 -6 -19 -12 -21 -10 -4 -10 -6 0 -6 14 -1 28 26
18 36 -3 4 -6 -1 -6 -9z"/>
<path d="M28792 37615 c-16 -19 -3 -19 22 0 14 11 16 15 5 15 -8 -1 -20 -7
-27 -15z"/>
<path d="M28700 37539 c0 -11 5 -17 10 -14 6 3 10 13 10 21 0 8 -4 14 -10 14
-5 0 -10 -9 -10 -21z"/>
<path d="M32870 37421 c0 -4 11 -6 25 -3 14 2 25 6 25 8 0 2 -11 4 -25 4 -14
0 -25 -4 -25 -9z"/>
<path d="M33042 37098 c3 -7 15 -15 27 -16 16 -3 22 1 19 10 -3 7 -15 15 -27
16 -16 3 -22 -1 -19 -10z"/>
<path d="M33115 36879 c-4 -6 -5 -12 -2 -15 2 -3 7 2 10 11 7 17 1 20 -8 4z"/>
<path d="M28555 36840 c-3 -5 1 -10 9 -10 9 0 16 5 16 10 0 6 -4 10 -9 10 -6
0 -13 -4 -16 -10z"/>
<path d="M33120 36780 c0 -5 5 -10 10 -10 6 0 10 5 10 10 0 6 -4 10 -10 10 -5
0 -10 -4 -10 -10z"/>
<path d="M33120 36730 c0 -5 5 -10 10 -10 6 0 10 5 10 10 0 6 -4 10 -10 10 -5
0 -10 -4 -10 -10z"/>
<path d="M28540 36720 c0 -5 5 -10 10 -10 6 0 10 5 10 10 0 6 -4 10 -10 10 -5
0 -10 -4 -10 -10z"/>
<path d="M28495 36640 c-3 -5 -1 -10 4 -10 6 0 11 5 11 10 0 6 -2 10 -4 10 -3
0 -8 -4 -11 -10z"/>
<path d="M33170 36640 c-12 -8 -11 -10 8 -10 12 0 22 5 22 10 0 13 -11 13 -30
0z"/>
<path d="M28530 36620 c0 -5 5 -10 11 -10 5 0 7 5 4 10 -3 6 -8 10 -11 10 -2
0 -4 -4 -4 -10z"/>
<path d="M28512 36575 c-18 -10 -20 -14 -8 -18 8 -3 20 1 27 9 16 20 9 23 -19
9z"/>
<path d="M28509 36508 c-7 -24 -5 -38 6 -38 8 0 11 7 8 20 -5 17 -11 26 -14
18z"/>
<path d="M33200 36426 c0 -9 7 -19 15 -23 25 -9 27 2 5 22 -18 17 -20 17 -20
1z"/>
<path d="M33150 36410 c0 -5 5 -10 10 -10 6 0 10 5 10 10 0 6 -4 10 -10 10 -5
0 -10 -4 -10 -10z"/>
<path d="M28486 36340 c1 -16 -2 -30 -7 -30 -5 0 -9 -4 -9 -10 0 -5 6 -9 13
-7 7 1 11 -6 9 -18 -3 -20 -2 -20 13 -1 18 23 20 46 4 46 -8 0 -8 4 1 15 13
16 6 35 -14 35 -7 0 -11 -12 -10 -30z"/>
<path d="M33212 36248 c3 -7 13 -15 22 -16 12 -3 17 1 14 10 -3 7 -13 15 -22
16 -12 3 -17 -1 -14 -10z"/>
<path d="M28494 36225 c3 -9 6 -19 6 -21 0 -2 7 -4 15 -4 21 0 19 13 -6 29
-19 11 -21 11 -15 -4z"/>
<path d="M33290 36040 c0 -5 5 -10 10 -10 6 0 10 5 10 10 0 6 -4 10 -10 10 -5
0 -10 -4 -10 -10z"/>
<path d="M33221 35854 c0 -11 3 -14 6 -6 3 7 2 16 -1 19 -3 4 -6 -2 -5 -13z"/>
<path d="M28500 35846 c0 -22 17 -28 24 -10 9 22 8 24 -9 24 -8 0 -15 -6 -15
-14z"/>
<path d="M33240 35802 c0 -21 6 -31 20 -35 24 -6 28 18 4 27 -8 3 -13 10 -9
15 3 5 1 12 -5 16 -6 4 -10 -6 -10 -23z"/>
<path d="M28515 35800 c3 -5 8 -10 11 -10 2 0 4 5 4 10 0 6 -5 10 -11 10 -5 0
-7 -4 -4 -10z"/>
<path d="M33290 35795 c0 -6 5 -16 11 -22 6 -6 13 -26 15 -43 4 -30 2 -32 -21
-28 -14 3 -25 1 -25 -5 0 -9 76 -4 86 6 3 3 2 22 -2 42 -4 24 -9 33 -15 24 -6
-10 -13 -7 -28 12 -11 13 -20 19 -21 14z"/>
<path d="M28525 35740 c-3 -5 -2 -10 4 -10 5 0 13 5 16 10 3 6 2 10 -4 10 -5
0 -13 -4 -16 -10z"/>
<path d="M33245 35740 c3 -5 12 -7 20 -3 21 7 19 13 -6 13 -11 0 -18 -4 -14
-10z"/>
<path d="M33220 35680 c0 -5 5 -10 11 -10 5 0 7 5 4 10 -3 6 -8 10 -11 10 -2
0 -4 -4 -4 -10z"/>
<path d="M33200 35640 c0 -5 5 -10 11 -10 5 0 7 5 4 10 -3 6 -8 10 -11 10 -2
0 -4 -4 -4 -10z"/>
<path d="M28560 35540 c0 -5 5 -10 11 -10 5 0 7 5 4 10 -3 6 -8 10 -11 10 -2
0 -4 -4 -4 -10z"/>
<path d="M28588 35483 c7 -3 16 -2 19 1 4 3 -2 6 -13 5 -11 0 -14 -3 -6 -6z"/>
<path d="M28559 35443 c-17 -4 -15 -43 2 -43 5 0 6 6 3 14 -3 9 5 18 23 24 20
8 22 10 8 10 -11 0 -27 -2 -36 -5z"/>
<path d="M33255 35410 c3 -5 10 -10 16 -10 5 0 9 5 9 10 0 6 -7 10 -16 10 -8
0 -12 -4 -9 -10z"/>
<path d="M33240 35390 c0 -5 5 -10 11 -10 5 0 7 5 4 10 -3 6 -8 10 -11 10 -2
0 -4 -4 -4 -10z"/>
<path d="M28610 35360 c0 -5 10 -10 23 -10 18 0 19 2 7 10 -19 13 -30 13 -30
0z"/>
<path d="M33265 35220 c-3 -5 -1 -10 4 -10 6 0 11 5 11 10 0 6 -2 10 -4 10 -3
0 -8 -4 -11 -10z"/>
<path d="M28725 35200 c-3 -5 -1 -10 4 -10 6 0 11 5 11 10 0 6 -2 10 -4 10 -3
0 -8 -4 -11 -10z"/>
<path d="M33196 35188 c3 -4 12 -8 20 -8 8 0 14 4 14 8 0 4 -9 8 -19 8 -11 0
-17 -4 -15 -8z"/>
<path d="M28596 35124 c-4 -12 -1 -14 14 -9 15 5 21 0 26 -20 6 -24 10 -26 37
-21 16 3 33 6 38 6 5 0 9 5 9 11 0 5 -4 7 -10 4 -5 -3 -30 6 -55 20 -54 30
-51 29 -59 9z"/>
<path d="M28750 35080 c0 -5 4 -10 9 -10 6 0 13 5 16 10 3 6 -1 10 -9 10 -9 0
-16 -4 -16 -10z"/>
<path d="M33160 35070 c0 -5 5 -10 10 -10 6 0 10 5 10 10 0 6 -4 10 -10 10 -5
0 -10 -4 -10 -10z"/>
<path d="M28746 35001 c-4 -5 -2 -12 3 -15 5 -4 12 -2 15 3 4 5 2 12 -3 15 -5
4 -12 2 -15 -3z"/>
<path d="M33120 34847 c0 -6 48 -57 54 -57 1 0 2 10 1 23 -2 12 -8 21 -15 19
-7 -1 -18 3 -26 9 -8 6 -14 9 -14 6z"/>
<path d="M28900 34780 c0 -5 5 -10 10 -10 6 0 10 5 10 10 0 6 -4 10 -10 10 -5
0 -10 -4 -10 -10z"/>
<path d="M28870 34769 c0 -5 5 -7 10 -4 6 3 10 8 10 11 0 2 -4 4 -10 4 -5 0
-10 -5 -10 -11z"/>
<path d="M33170 34767 c0 -8 9 -17 21 -20 15 -4 19 -1 17 11 -4 21 -38 29 -38
9z"/>
<path d="M33208 34718 c5 -5 16 -8 23 -6 8 3 3 7 -10 11 -17 4 -21 3 -13 -5z"/>
<path d="M28870 34666 c0 -15 21 -56 29 -56 5 0 3 14 -5 30 -14 27 -24 38 -24
26z"/>
<path d="M28840 34610 c0 -5 5 -10 10 -10 6 0 10 5 10 10 0 6 -4 10 -10 10 -5
0 -10 -4 -10 -10z"/>
<path d="M33195 34521 c-6 -11 9 -23 19 -14 9 9 7 23 -3 23 -6 0 -12 -4 -16
-9z"/>
<path d="M28966 34485 c4 -9 13 -15 21 -13 23 5 20 23 -4 26 -18 3 -21 0 -17
-13z"/>
<path d="M28885 34460 c3 -5 8 -10 11 -10 2 0 4 5 4 10 0 6 -5 10 -11 10 -5 0
-7 -4 -4 -10z"/>
<path d="M28985 34440 c3 -5 8 -10 11 -10 2 0 4 5 4 10 0 6 -5 10 -11 10 -5 0
-7 -4 -4 -10z"/>
<path d="M28928 34373 c7 -3 16 -2 19 1 4 3 -2 6 -13 5 -11 0 -14 -3 -6 -6z"/>
<path d="M33246 34355 c-3 -8 -1 -15 4 -15 6 0 10 7 10 15 0 8 -2 15 -4 15 -2
0 -6 -7 -10 -15z"/>
<path d="M28938 34283 c7 -3 16 -2 19 1 4 3 -2 6 -13 5 -11 0 -14 -3 -6 -6z"/>
<path d="M29045 34280 c3 -5 8 -10 11 -10 2 0 4 5 4 10 0 6 -5 10 -11 10 -5 0
-7 -4 -4 -10z"/>
<path d="M33210 34279 c0 -5 5 -7 10 -4 6 3 10 8 10 11 0 2 -4 4 -10 4 -5 0
-10 -5 -10 -11z"/>
<path d="M28974 34255 c3 -9 6 -19 6 -21 0 -2 6 -4 14 -4 21 0 12 34 -9 39
-13 2 -16 -1 -11 -14z"/>
<path d="M29180 33980 c20 -13 33 -13 25 0 -3 6 -14 10 -23 10 -15 0 -15 -2
-2 -10z"/>
<path d="M33360 33971 c0 -12 6 -21 15 -21 8 0 15 4 15 9 0 5 -7 14 -15 21
-13 10 -15 9 -15 -9z"/>
<path d="M29349 33863 c-1 -5 -1 -11 0 -15 0 -5 -8 -8 -19 -8 -14 0 -18 -5
-13 -17 4 -11 8 -12 11 -5 2 7 10 12 18 12 8 0 14 5 14 10 0 6 7 10 16 10 8 0
12 5 9 10 -7 12 -34 14 -36 3z"/>
<path d="M29400 33730 c0 -5 5 -10 10 -10 6 0 10 5 10 10 0 6 -4 10 -10 10 -5
0 -10 -4 -10 -10z"/>
<path d="M29410 33691 c-7 -14 -7 -21 0 -21 5 0 10 5 10 10 0 15 40 12 42 -2
7 -63 39 -93 51 -48 4 14 -2 25 -19 36 -13 9 -21 20 -18 25 3 5 -1 9 -10 9 -8
0 -21 3 -29 6 -10 3 -20 -3 -27 -15z"/>
<path d="M33425 33620 c-4 -6 3 -10 14 -10 25 0 27 6 6 13 -8 4 -17 2 -20 -3z"/>
<path d="M29205 33460 c-3 -5 -1 -10 4 -10 6 0 11 5 11 10 0 6 -2 10 -4 10 -3
0 -8 -4 -11 -10z"/>
<path d="M29075 33430 c3 -5 8 -10 11 -10 2 0 4 5 4 10 0 6 -5 10 -11 10 -5 0
-7 -4 -4 -10z"/>
<path d="M29945 33410 c3 -5 8 -10 11 -10 2 0 4 5 4 10 0 6 -5 10 -11 10 -5 0
-7 -4 -4 -10z"/>
<path d="M29880 33375 c-8 -9 -8 -15 -2 -15 12 0 26 19 19 26 -2 2 -10 -2 -17
-11z"/>
<path d="M30089 33308 c-1 -7 -1 -17 0 -21 1 -5 -7 -6 -18 -2 -16 5 -18 2 -14
-15 6 -21 45 -29 41 -7 -2 7 5 11 17 10 11 -1 14 0 8 3 -7 3 -13 12 -13 19 0
18 -20 30 -21 13z"/>
<path d="M33160 33255 c0 -8 5 -15 10 -15 6 0 10 7 10 15 0 8 -4 15 -10 15 -5
0 -10 -7 -10 -15z"/>
<path d="M30165 33230 c4 -6 11 -8 16 -5 14 9 11 15 -7 15 -8 0 -12 -5 -9 -10z"/>
<path d="M31707 33190 c-13 -11 -27 -16 -31 -13 -3 3 -6 0 -6 -8 0 -8 5 -20
12 -27 9 -9 8 -12 -4 -12 -9 0 -24 -3 -33 -7 -15 -5 -16 -3 -6 15 7 14 8 23 1
27 -5 3 -10 1 -10 -5 0 -6 -11 -15 -25 -22 -13 -6 -22 -15 -19 -20 3 -4 9 -6
14 -3 5 3 27 1 48 -4 37 -8 65 -2 63 13 -3 19 1 19 14 2 12 -16 18 -17 27 -8
14 14 54 16 62 4 3 -5 27 -8 53 -8 38 1 47 5 45 18 -2 12 5 15 30 13 18 -2 45
-6 59 -10 21 -6 27 -3 32 14 3 14 0 21 -9 21 -8 0 -14 -4 -14 -10 0 -5 -7 -7
-16 -3 -14 5 -12 8 7 19 29 16 24 17 -18 5 -20 -6 -33 -6 -35 0 -5 15 -80 24
-76 10 2 -7 -8 -20 -22 -29 -23 -16 -24 -16 -12 0 12 15 10 18 -15 24 -15 4
-32 9 -38 12 -22 13 -56 9 -78 -8z m208 -11 c11 -17 -1 -21 -15 -4 -8 9 -8 15
-2 15 6 0 14 -5 17 -11z m-140 -19 c-3 -5 -13 -10 -21 -10 -8 0 -12 5 -9 10 3
6 13 10 21 10 8 0 12 -4 9 -10z"/>
<path d="M31550 33190 c0 -5 7 -10 15 -10 8 0 15 5 15 10 0 6 -7 10 -15 10 -8
0 -15 -4 -15 -10z"/>
<path d="M30330 33161 c0 -5 5 -13 10 -16 6 -3 10 -2 10 4 0 5 -4 13 -10 16
-5 3 -10 2 -10 -4z"/>
<path d="M33090 33156 c0 -9 5 -16 10 -16 6 0 10 4 10 9 0 6 -4 13 -10 16 -5
3 -10 -1 -10 -9z"/>
<path d="M31412 33113 c2 -13 15 -19 46 -21 27 -2 42 1 42 8 0 7 7 9 16 6 9
-4 26 -3 38 0 21 7 21 7 -2 15 -12 5 -33 4 -48 -1 -33 -13 -74 -13 -74 0 0 6
-5 10 -11 10 -6 0 -9 -8 -7 -17z"/>
<path d="M30487 33056 c-3 -8 2 -21 12 -30 17 -15 18 -14 18 14 0 31 -20 42
-30 16z"/>
<path d="M30640 33030 c0 -5 5 -10 11 -10 5 0 7 5 4 10 -3 6 -8 10 -11 10 -2
0 -4 -4 -4 -10z"/>
<path d="M32505 32990 c-3 -5 -1 -10 4 -10 6 0 11 5 11 10 0 6 -2 10 -4 10 -3
0 -8 -4 -11 -10z"/>
<path d="M29225 33320 c-3 -5 1 -10 9 -10 9 0 16 5 16 10 0 6 -4 10 -9 10 -6
0 -13 -4 -16 -10z"/>
<path d="M29211 33263 c-1 -18 21 -63 31 -63 12 0 10 18 -3 25 -6 4 -14 17
-19 29 -5 11 -9 16 -9 9z"/>
<path d="M29125 33190 c23 -25 31 -25 45 0 7 14 7 20 0 20 -5 0 -10 -7 -10
-15 0 -8 -4 -15 -10 -15 -5 0 -10 4 -10 9 0 5 -8 12 -17 15 -15 6 -15 4 2 -14z"/>
<path d="M29250 33165 c0 -8 5 -15 10 -15 6 0 10 7 10 15 0 8 -4 15 -10 15 -5
0 -10 -7 -10 -15z"/>
<path d="M29296 33155 c4 -8 11 -15 16 -15 6 0 5 6 -2 15 -7 8 -14 15 -16 15
-2 0 -1 -7 2 -15z"/>
<path d="M29215 33150 c3 -5 8 -10 11 -10 2 0 4 5 4 10 0 6 -5 10 -11 10 -5 0
-7 -4 -4 -10z"/>
<path d="M29247 33114 c-12 -13 -8 -22 14 -27 15 -4 19 -1 17 10 -3 18 -21 27
-31 17z"/>
<path d="M30070 32341 c0 -6 5 -13 10 -16 6 -3 10 1 10 9 0 9 -4 16 -10 16 -5
0 -10 -4 -10 -9z"/>
<path d="M30200 32186 c0 -19 5 -38 10 -41 6 -4 10 8 10 29 0 19 -4 38 -10 41
-6 4 -10 -8 -10 -29z"/>
<path d="M33398 31773 c7 -3 16 -2 19 1 4 3 -2 6 -13 5 -11 0 -14 -3 -6 -6z"/>
<path d="M33952 31760 c-19 -18 -24 -29 -24 -50 0 -3 3 -16 7 -29 5 -16 4 -21
-4 -17 -7 4 -11 -1 -11 -13 0 -11 -4 -22 -9 -25 -18 -12 -19 -56 0 -66 31 -17
38 -11 45 40 4 32 11 50 20 50 16 0 16 2 4 55 -6 28 -6 42 3 47 8 5 9 10 1 18
-7 7 -17 4 -32 -10z"/>
<path d="M30996 31758 c5 -7 0 -9 -14 -6 -13 4 -23 0 -26 -8 -3 -8 -2 -14 2
-14 4 0 17 -3 30 -6 19 -5 22 -2 22 20 0 14 -5 26 -11 26 -5 0 -7 -5 -3 -12z"/>
<path d="M30961 31694 c0 -11 3 -14 6 -6 3 7 2 16 -1 19 -3 4 -6 -2 -5 -13z"/>
<path d="M32758 31668 c17 -17 15 -38 -3 -38 -15 0 -22 -20 -7 -20 4 0 17 -3
29 -6 18 -5 25 -1 32 17 11 31 -7 59 -38 59 -20 0 -22 -3 -13 -12z"/>
<path d="M33361 31564 c0 -11 3 -14 6 -6 3 7 2 16 -1 19 -3 4 -6 -2 -5 -13z"/>
<path d="M33582 31560 c0 -14 2 -19 5 -12 2 6 2 18 0 25 -3 6 -5 1 -5 -13z"/>
<path d="M33515 31500 c-3 -5 -1 -10 4 -10 6 0 11 5 11 10 0 6 -2 10 -4 10 -3
0 -8 -4 -11 -10z"/>
<path d="M33560 31495 c0 -8 4 -15 10 -15 5 0 7 7 4 15 -4 8 -8 15 -10 15 -2
0 -4 -7 -4 -15z"/>
<path d="M34550 32252 c0 -15 4 -20 16 -15 9 3 12 9 7 12 -4 3 -11 10 -15 15
-5 5 -8 0 -8 -12z"/>
<path d="M34476 32214 c-10 -25 1 -29 14 -5 6 12 7 21 1 21 -5 0 -12 -7 -15
-16z"/>
<path d="M29922 32315 c0 -16 2 -22 5 -12 2 9 2 23 0 30 -3 6 -5 -1 -5 -18z"/>
<path d="M40250 29820 c0 -5 5 -10 10 -10 6 0 10 5 10 10 0 6 -4 10 -10 10 -5
0 -10 -4 -10 -10z"/>
<path d="M39680 27180 c0 -5 5 -10 11 -10 5 0 7 5 4 10 -3 6 -8 10 -11 10 -2
0 -4 -4 -4 -10z"/>
<path d="M39650 26939 c0 -5 5 -7 10 -4 6 3 10 8 10 11 0 2 -4 4 -10 4 -5 0
-10 -5 -10 -11z"/>
<path d="M39735 26860 c-3 -5 -1 -10 4 -10 6 0 11 5 11 10 0 6 -2 10 -4 10 -3
0 -8 -4 -11 -10z"/>
<path d="M40820 27570 c0 -11 -5 -20 -11 -20 -5 0 -7 -4 -4 -10 9 -15 22 -12
29 8 3 9 9 23 12 30 3 7 -1 12 -10 12 -9 0 -16 -8 -16 -20z"/>
<path d="M40850 27300 c0 -5 7 -10 15 -10 8 0 15 5 15 10 0 6 -7 10 -15 10 -8
0 -15 -4 -15 -10z"/>
<path d="M40920 27280 c0 -5 5 -10 10 -10 6 0 10 5 10 10 0 6 -4 10 -10 10 -5
0 -10 -4 -10 -10z"/>
<path d="M40820 27265 c0 -8 7 -15 15 -15 8 0 15 4 15 9 0 5 -7 11 -15 15 -9
3 -15 0 -15 -9z"/>
<path d="M40880 27224 c0 -10 -6 -14 -15 -10 -8 3 -15 2 -15 -3 0 -5 -9 -11
-21 -14 -30 -8 -18 -33 15 -29 20 2 26 -2 26 -18 0 -11 -7 -20 -15 -20 -8 0
-15 -7 -15 -15 0 -24 19 -18 32 10 13 29 23 32 32 9 3 -8 10 -12 16 -9 14 9
12 25 -3 25 -7 0 -18 9 -24 20 -10 15 -10 22 2 34 19 18 19 22 0 30 -9 3 -15
0 -15 -10z"/>
<path d="M40716 27213 c-6 -14 -5 -15 5 -6 7 7 10 15 7 18 -3 3 -9 -2 -12 -12z"/>
<path d="M40925 27200 c-4 -6 3 -10 14 -10 25 0 27 6 6 13 -8 4 -17 2 -20 -3z"/>
<path d="M40692 27178 c-15 -15 -15 -28 0 -28 6 0 8 3 5 7 -4 3 -2 12 4 20 14
16 7 17 -9 1z"/>
<path d="M40796 27142 c-4 -7 -4 -17 0 -23 5 -8 1 -8 -14 0 -25 13 -35 14 -28
2 3 -5 -3 -11 -14 -14 -11 -3 -20 -12 -20 -21 0 -9 -5 -16 -12 -16 -6 0 -9 -3
-6 -6 4 -3 18 2 32 11 14 9 33 14 43 11 30 -9 43 6 35 39 -5 19 -11 25 -16 17z"/>
<path d="M40237 27113 c-4 -3 -7 -11 -7 -17 0 -6 5 -5 12 2 6 6 9 14 7 17 -3
3 -9 2 -12 -2z"/>
<path d="M40615 27100 c3 -5 8 -10 11 -10 2 0 4 5 4 10 0 6 -5 10 -11 10 -5 0
-7 -4 -4 -10z"/>
<path d="M40280 27065 c-10 -12 -8 -16 15 -25 14 -5 23 -14 20 -20 -3 -5 -1
-10 4 -10 14 0 14 1 -5 38 -18 37 -18 37 -34 17z"/>
<path d="M40620 27060 c0 -5 5 -10 10 -10 6 0 10 5 10 10 0 6 -4 10 -10 10 -5
0 -10 -4 -10 -10z"/>
<path d="M40226 27031 c-4 -6 7 -17 24 -26 34 -18 38 -31 11 -38 -13 -3 -18
-12 -16 -31 2 -14 -1 -26 -6 -26 -5 0 -9 -4 -9 -10 0 -17 20 -11 56 17 24 18
38 23 45 16 8 -8 7 -13 0 -17 -13 -9 -14 -26 -2 -26 5 0 12 8 16 19 3 10 13
18 23 17 10 0 16 6 16 17 -1 9 3 18 10 19 6 0 16 2 21 3 6 2 16 3 23 4 6 0 12
6 12 11 0 18 -49 10 -69 -11 -23 -25 -101 -36 -101 -14 0 7 15 16 33 21 l32 8
-33 3 c-18 3 -30 9 -27 14 4 5 1 9 -6 9 -7 0 -20 7 -30 16 -11 10 -19 12 -23
5z"/>
<path d="M40755 27022 c-7 -18 -6 -19 25 -24 16 -2 26 2 28 13 4 22 -45 32
-53 11z"/>
<path d="M40865 27009 c-9 -29 25 -53 40 -29 3 6 -1 10 -10 10 -12 0 -15 6
-10 20 3 11 2 20 -4 20 -5 0 -13 -10 -16 -21z"/>
<path d="M40795 26975 c-16 -6 -31 -17 -33 -25 -2 -8 -9 -18 -15 -22 -25 -15
4 -19 57 -6 35 8 56 18 56 26 0 8 -6 12 -14 9 -9 -4 -16 1 -18 11 -3 15 -8 16
-33 7z m10 -35 c3 -5 1 -10 -4 -10 -6 0 -11 5 -11 10 0 6 2 10 4 10 3 0 8 -4
11 -10z"/>
<path d="M40686 26965 c-3 -9 1 -15 10 -15 12 0 15 -7 12 -25 -3 -14 -1 -28 3
-31 5 -3 9 1 10 8 0 7 2 23 3 34 3 26 -29 51 -38 29z"/>
<path d="M40286 26901 c-4 -7 -5 -15 -2 -18 9 -9 19 4 14 18 -4 11 -6 11 -12
0z"/>
<path d="M40736 26881 c-7 -11 22 -23 35 -15 5 3 7 10 4 15 -8 12 -32 12 -39
0z"/>
<path d="M40410 26860 c-11 -7 -7 -10 18 -10 17 0 32 5 32 10 0 13 -30 13 -50
0z"/>
<path d="M40480 26860 c0 -5 5 -10 11 -10 5 0 7 5 4 10 -3 6 -8 10 -11 10 -2
0 -4 -4 -4 -10z"/>
<path d="M38885 26740 c3 -5 8 -10 11 -10 2 0 4 5 4 10 0 6 -5 10 -11 10 -5 0
-7 -4 -4 -10z"/>
<path d="M38860 26608 c0 -19 2 -20 10 -8 13 19 13 30 0 30 -5 0 -10 -10 -10
-22z"/>
<path d="M38897 26402 c-10 -10 -17 -22 -17 -26 0 -9 49 27 50 37 0 13 -17 7
-33 -11z"/>
<path d="M38840 26344 c0 -8 5 -12 10 -9 6 3 10 10 10 16 0 5 -4 9 -10 9 -5 0
-10 -7 -10 -16z"/>
<path d="M38710 26320 c20 -13 40 -13 40 0 0 6 -12 10 -27 10 -22 0 -25 -2
-13 -10z"/>
<path d="M38977 26286 c-6 -16 2 -28 14 -20 12 7 11 34 0 34 -5 0 -11 -6 -14
-14z"/>
<path d="M39266 26251 c-4 -7 -5 -15 -2 -18 9 -9 19 4 14 18 -4 11 -6 11 -12
0z"/>
<path d="M38700 26226 c-13 -35 -13 -36 4 -36 17 0 29 41 16 54 -6 6 -13 -1
-20 -18z"/>
<path d="M38808 26233 c6 -2 18 -2 25 0 6 3 1 5 -13 5 -14 0 -19 -2 -12 -5z"/>
<path d="M38748 26201 c-4 -25 -1 -30 21 -34 14 -3 29 -3 33 -1 13 8 -4 34
-23 34 -12 0 -16 5 -13 15 4 8 2 15 -4 15 -5 0 -12 -13 -14 -29z"/>
<path d="M38930 26171 c0 -5 5 -13 10 -16 6 -3 10 -2 10 4 0 5 -4 13 -10 16
-5 3 -10 2 -10 -4z"/>
<path d="M39088 26158 c5 -5 16 -8 23 -6 8 3 3 7 -10 11 -17 4 -21 3 -13 -5z"/>
<path d="M38858 26153 c7 -3 16 -2 19 1 4 3 -2 6 -13 5 -11 0 -14 -3 -6 -6z"/>
<path d="M38816 26085 c-9 -59 -2 -70 35 -48 34 20 37 39 9 48 -11 3 -20 15
-20 26 0 37 -18 18 -24 -26z"/>
<path d="M38886 26114 c-9 -24 -9 -24 31 -24 35 0 36 0 18 20 -22 24 -41 26
-49 4z"/>
<path d="M39040 26117 c0 -9 5 -17 10 -17 6 0 10 -7 10 -15 0 -8 -6 -15 -14
-15 -21 0 -28 -16 -13 -28 9 -8 20 -8 38 2 13 7 31 10 38 8 9 -3 11 0 6 7 -4
7 -13 10 -21 7 -7 -3 -16 -1 -19 5 -4 5 1 12 9 15 22 8 20 24 -2 24 -10 0 -23
5 -30 12 -9 9 -12 8 -12 -5z"/>
<path d="M39160 26066 c0 -8 -5 -16 -12 -18 -8 -3 -6 -6 4 -10 18 -7 33 28 17
38 -5 3 -9 -1 -9 -10z"/>
<path d="M39196 26072 c-3 -6 -1 -14 5 -17 15 -10 25 3 12 16 -7 7 -13 7 -17
1z"/>
<path d="M39270 26046 c0 -16 18 -31 27 -22 3 3 -2 12 -11 21 -14 14 -16 14
-16 1z"/>
<path d="M39005 26030 c-7 -12 2 -30 16 -30 5 0 9 9 9 20 0 21 -15 27 -25 10z"/>
<path d="M39060 26006 c0 -2 7 -6 15 -10 8 -3 15 -1 15 4 0 6 -7 10 -15 10 -8
0 -15 -2 -15 -4z"/>
<path d="M39146 25975 c-4 -11 -13 -14 -31 -9 -18 4 -27 2 -31 -11 -13 -34 12
-34 51 0 22 19 35 34 29 35 -7 0 -14 -7 -18 -15z"/>
<path d="M39184 25945 c3 -9 -3 -20 -14 -27 -21 -14 -27 -38 -9 -38 6 0 13 9
16 20 3 11 9 20 14 20 5 0 9 9 9 20 0 11 -5 20 -11 20 -6 0 -9 -7 -5 -15z"/>
<path d="M39125 25920 c3 -5 8 -10 11 -10 2 0 4 5 4 10 0 6 -5 10 -11 10 -5 0
-7 -4 -4 -10z"/>
<path d="M39201 25894 c0 -11 3 -14 6 -6 3 7 2 16 -1 19 -3 4 -6 -2 -5 -13z"/>
<path d="M36890 28630 c0 -5 5 -10 10 -10 6 0 10 5 10 10 0 6 -4 10 -10 10 -5
0 -10 -4 -10 -10z"/>
</g>
</svg>
