<svg id="Layer_1" data-name="Layer 1" xmlns="http://www.w3.org/2000/svg" xmlns:xlink="http://www.w3.org/1999/xlink" viewBox="0 0 277 314.03"><defs><style>.cls-1{fill:none;}.cls-2{clip-path:url(#clip-path);}.cls-3{fill:#fca714;}.cls-4{fill:#660606;}.cls-5{fill:#f2c988;}.cls-6{fill:#f0ba78;}.cls-7{fill:#e2a467;}.cls-8{fill:#bf8250;}.cls-9{fill:#ffd5a1;}.cls-10{fill:#fa4b4b;}.cls-11{fill:#fff;}.cls-12{opacity:0.1;}.cls-13{fill:#fcd214;}.cls-14{fill:#fcb714;}.cls-15{fill:#f25c5c;}.cls-16{fill:#ffe570;}.cls-17{fill:#d68411;}.cls-18{fill:#c43333;}.cls-19{fill:#ff9e9e;}.cls-20{fill:#e3e3e3;}</style><clipPath id="clip-path" transform="translate(-133.59 -90.26)"><rect class="cls-1" width="397.57" height="400"/></clipPath></defs><title>home2</title><g class="cls-2"><path class="cls-3" d="M11.88,378.15" transform="translate(-133.59 -90.26)"/><path class="cls-4" d="M161.33,135c-.49-3.34-1-6.82.07-10a15.91,15.91,0,0,1,2.85-5,11,11,0,0,1,4.74-3.8c3.12-1.08,6.5.23,9.33,1.72a26.64,26.64,0,0,1,.74-8.45,12.38,12.38,0,0,1,4.69-6.9,13.28,13.28,0,0,1,5.64-2,22.16,22.16,0,0,1,20.66,8.93,12.94,12.94,0,0,1,14-9.47c3.18.47,6,2.14,8.81,3.78l26.31,15.55c4,2.4,8.24,4.93,10.74,8.91,2.3,3.65,2.9,8.14,2.81,12.46-.28,13.48-6.64,26.29-6.58,40,1.26,11.37,3.07,22.88,8,33.23,5.61,11.88,14.93,21.53,24.08,31q21.58,22.21,43,44.43a321.6,321.6,0,0,1,40.46,48.76q-27.37,16.22-53.5,34.45C314,382.49,300,392.85,284.24,400.24c-3.6-.8-5.65-4.51-7.23-7.85-22.9-48.26-44.56-97.61-76.38-141.42-9.35-1.74-17-8.47-23.12-15.76S166.18,219.78,159,213.52c-2.65-2.32-5.6-4.4-7.62-7.28-2.89-4.12-3.56-9.39-3.25-14.28a30.77,30.77,0,0,1-4.2-30.81,11.71,11.71,0,0,1,2.61-4.05,4,4,0,0,1,4.54-.95,35.7,35.7,0,0,1-2-9.59,13.49,13.49,0,0,1,2.84-9.19A8.25,8.25,0,0,1,161.33,135Z" transform="translate(-133.59 -90.26)"/><path class="cls-4" d="M268.48,119.55A26.54,26.54,0,0,1,278,144c-1,6.05-4.07,12.15-2.32,18,1.05-6.09,3.64-11.81,5-17.84s1.25-12.88-2.55-17.76C275.76,123.41,272.26,121.51,268.48,119.55Z" transform="translate(-133.59 -90.26)"/><path class="cls-4" d="M170.89,236.54c6.59,8.82,13.82,18.12,24.25,21.63a11.62,11.62,0,0,1,3.54,1.56,9.44,9.44,0,0,1,1.87,2.2l14.88,21.71q-4.73-10-9.46-20.06c-1.34-2.84-2.84-5.85-5.56-7.4s-5.79-1.33-8.66-2.17c-3.19-.94-5.87-3.08-8.38-5.26A144.27,144.27,0,0,1,170.89,236.54Z" transform="translate(-133.59 -90.26)"/><path class="cls-4" d="M136.5,175.88a27.34,27.34,0,0,1,.17-13,17.23,17.23,0,0,1,7.65-10.27,21.63,21.63,0,0,1,3.12-16.89,21.89,21.89,0,0,0-8.15,15.61,3,3,0,0,1-1.09,2.47A18.39,18.39,0,0,0,136.5,175.88Z" transform="translate(-133.59 -90.26)"/><path class="cls-5" d="M177.23,229.61l1.29,1.68c6.41,8.19,14.53,16,25.1,18l.18.24a491.55,491.55,0,0,1,41.88,64.8q20.34,42.63,42.95,84.16,21.92-14.42,43.82-28.87c13.51-8.89,26.94-18,40.74-26.4,1.54-.94,3.06-1.9,4.58-2.86-22.53-27.58-45.8-54.6-70.52-80.32-8.3-8.33-15.63-16.84-22.95-25.35-5.71-6.63-11.47-13.33-15.43-21.13a59.73,59.73,0,0,1-5.35-15.95c-2-10.84-1.37-22.31,1-33.15,2.27-10.35,6-21.25,2.42-31.22-2.1-6.7-8.35-10.68-14.16-14.09L230.37,105.9a26.26,26.26,0,0,0-6.23-3l-.57-.13a8.62,8.62,0,0,0-6.16.65,15.3,15.3,0,0,0-3.59,3.4,48.93,48.93,0,0,0-3.33,4.94c-.16.26-.32.5-.48.77a24.07,24.07,0,0,0-20.61-9.34c-1.17.55-2.38,1.12-3.52,1.79a10.64,10.64,0,0,0-4.19,3.87c-1.82,3.27-.92,7.32-1.5,11-1.47,0-2.76-.75-4.14-1-3.63-.7-7.13,1.59-9.9,4a10.77,10.77,0,0,0-2.53,2.94c-1.6,3.13-.08,6.95-.6,10.42-2.73-.09-5.38,1.94-7.22,4.18a13.36,13.36,0,0,0-3.1,6.16c-.66,3.91,1.24,7.74,3.06,11.26a6.71,6.71,0,0,0-5.35,3,17.33,17.33,0,0,0-2.18,5.83c-.95,4-1.84,8.16-1.59,12.3s1.75,8.37,4.27,10.85a65.3,65.3,0,0,0,2.21,10.33,14.23,14.23,0,0,0,1.24,3.06c1.08,1.78,2.86,3,3.87,4.44C166,213.57,171.35,221.88,177.23,229.61Z" transform="translate(-133.59 -90.26)"/><path class="cls-6" d="M194.64,115.44a33.39,33.39,0,0,1,6.12,8.24c.74,1.39,1.34,3.16.42,4.42s-2.72,1.24-4.07.65a40.77,40.77,0,0,1-3.71-2.43,9,9,0,0,0-7.93-.57,5.27,5.27,0,0,0-3.27,3.34c-.63,2.58,1.58,4.88,3.35,6.86a30.07,30.07,0,0,1,4,5.76c.53,1,.76,2.63-.34,2.9a2,2,0,0,1-1.07-.15L177.87,141c-2.9-1-6.24-1.94-8.9-.4-2.92,1.69-3.61,5.82-2.43,9s3.74,5.56,6.23,7.85,5,4.68,6.26,7.83a42.23,42.23,0,0,0-14.63-9,8.07,8.07,0,0,0-4.58-.61,4.89,4.89,0,0,0-2.57,1.66,8.37,8.37,0,0,0-.91,1.42,17.5,17.5,0,0,0-1.5,5.19,9.14,9.14,0,0,0,0,4.56,9.23,9.23,0,0,0,2.13,3l9.49,10.07q-6.66-3.84-13.3-7.71c-.69-.39-1.58-.78-2.22-.31a1.92,1.92,0,0,0-.61,1.26,17.11,17.11,0,0,0,6.48,16.76c-1,2.37.19,5.07,1.73,7.11a29.59,29.59,0,0,0,4.66,4.7,23.61,23.61,0,0,0,7.61,4.6c9.95,3.25,21-4.36,31-1.15,5.17,1.67,9,6,12.78,9.9a12.09,12.09,0,0,0,4.11,3.18c1.62.64,3.7.49,4.58-.56-2.41,7.19-9.24,12-16.17,15-3.49,1.54-7.22,2.79-11,2.58A24.71,24.71,0,0,1,188,234.7c-3.68-1.5-7.25-3.3-10.81-5.09Q176,228,174.8,226.34c-4.22-5.67-8.38-11.44-13.57-16.13-.95-.87-2-1.7-3-2.49-1-1.42-2.79-2.66-3.87-4.44a14.23,14.23,0,0,1-1.24-3.06,65.3,65.3,0,0,1-2.21-10.33c-2.45-2.42-3.94-6.49-4.24-10.52,0-.1,0-.22,0-.33-.25-4.14.64-8.27,1.59-12.3a17.33,17.33,0,0,1,2.18-5.83,6.71,6.71,0,0,1,5.35-3c-1.82-3.52-3.72-7.35-3.06-11.26a13.36,13.36,0,0,1,3.1-6.16c1.84-2.24,4.49-4.27,7.22-4.18.52-3.47-1-7.29.6-10.42a10.77,10.77,0,0,1,2.53-2.94c2.77-2.45,6.27-4.74,9.9-4,1.38.26,2.67,1,4.14,1,.58-3.69-.32-7.74,1.5-11a9.71,9.71,0,0,1,3.31-3.34c.29-.19.58-.36.88-.53,4.36,0,8.87,1.94,11.05,5.71C194.58,111.47,193.79,114.6,194.64,115.44Z" transform="translate(-133.59 -90.26)"/><path class="cls-7" d="M186.45,227.86c2.57,1.22,5.64,2,7.17,4.42-6.63-.4-12.85-2.93-18.82-5.94-4.22-5.67-8.38-11.44-13.57-16.13a79.5,79.5,0,0,1,7.71,3.58C175.41,217.62,179.66,224.64,186.45,227.86Z" transform="translate(-133.59 -90.26)"/><path class="cls-7" d="M185,105.52a11.61,11.61,0,0,0-1.79,5.07c-.42,3.72.67,7.45,1.91,11a17.32,17.32,0,0,1-4.49.27c-1.82-.15-3.61-.57-5.44-.58a15.86,15.86,0,0,0-5.67,1.16,8.47,8.47,0,0,0-3.16,1.89,7.56,7.56,0,0,0-1.7,3.61,14.13,14.13,0,0,0,1.74,10.14,12.4,12.4,0,0,0-7.6,2.47,9.87,9.87,0,0,0-3.85,6.9c-.25,3.38,1.45,6.54,2.3,9.84.1.42.19.82.26,1.24a5.09,5.09,0,0,0-1.17.18,9.83,9.83,0,0,0-6,8.28,4.41,4.41,0,0,0,1.82,3.75c-.93-.62-2.32-.45-2.66.45a33.59,33.59,0,0,0-2.88,8.2c0-.1,0-.22,0-.33-.25-4.14.64-8.27,1.59-12.3a17.33,17.33,0,0,1,2.18-5.83,6.71,6.71,0,0,1,5.35-3c-1.82-3.52-3.72-7.35-3.06-11.26a13.36,13.36,0,0,1,3.1-6.16c1.84-2.24,4.49-4.27,7.22-4.18.52-3.47-1-7.29.6-10.42a10.77,10.77,0,0,1,2.53-2.94c2.77-2.45,6.27-4.74,9.9-4,1.38.26,2.67,1,4.14,1,.58-3.69-.32-7.74,1.5-11A9.71,9.71,0,0,1,185,105.52Z" transform="translate(-133.59 -90.26)"/><path class="cls-7" d="M158.37,184.33a10.66,10.66,0,0,1-7.56.45,11.78,11.78,0,0,0,6.22-2,10.74,10.74,0,0,1-6.28-8.44,90.58,90.58,0,0,0,14.08,11.69,31.28,31.28,0,0,0,9.42,4.66,13.68,13.68,0,0,0,10.23-1c3-1.78,5.1-5.4,4.53-8.81-2.66-4.65-7-8-11.43-11.13A213.16,213.16,0,0,0,158.9,158c4.85.73,9.17,3.36,13.24,6.08a189.88,189.88,0,0,1,16.14,12.08c1.73,1.44,3.58,3,5.82,3.25,2.58.3,5-1.17,7-2.86a8.52,8.52,0,0,0,2.55-3.17c1.23-3.13-.88-6.51-3-9.1-8.23-9.93-18.51-17.92-28.77-25.72a104.85,104.85,0,0,1,33.18,29.52c2.6-.28,5.37-1.19,6.77-3.41s1-5.28-.19-7.69-3-4.46-3.94-6.31a152.27,152.27,0,0,0-21.84-28.07c7.57,5.56,12.49,14,19.41,20.34a13.71,13.71,0,0,0,4.35,2.94c4.49,1.68,9.47-.9,13-4.12a5.69,5.69,0,0,1,2.74-1.72c1.08-.17,2.38.69,2,1.38.64,4.15-1.77,8.14-4.39,11.43-3.74,4.7-8.11,8.87-11.79,13.61s-6.71,10.25-7.2,15.94c-4,.75-6.81,4.92-10.87,5.4a2.27,2.27,0,0,0-.77.17,2,2,0,0,0-.74.84c-2.1,3.45-5.27,6.23-8.8,7.1a7.77,7.77,0,0,1-6.13,2.13,24.65,24.65,0,0,1-4.12-1.05,16,16,0,0,0-9.86.2,11.34,11.34,0,0,0-6.85,6.87c.12-4.88,3.94-9.41,8.48-10.88A14.72,14.72,0,0,1,154,189.59a9.17,9.17,0,0,0,4.4-1.57,17,17,0,0,1-4-1.1A4.67,4.67,0,0,0,158.37,184.33Z" transform="translate(-133.59 -90.26)"/><path class="cls-8" d="M212.32,150.27c1.25,2.49,2.52,5.21,2,7.93a86.4,86.4,0,0,1,10.37-12.69A29.44,29.44,0,0,1,212.32,150.27Z" transform="translate(-133.59 -90.26)"/><path class="cls-8" d="M168.35,191.82a39.8,39.8,0,0,0,9.93,1.35,15.79,15.79,0,0,0,9.41-3,10,10,0,0,0,4-8.75,9.49,9.49,0,0,0,8.22-1.85,18.19,18.19,0,0,0,5.18-6.93c.63-1.34,1.28-2.85,2.63-3.46-2,2.75-2.87,6.12-4,9.32a2.49,2.49,0,0,1-.45.87,2.71,2.71,0,0,1-1.32.6,16.76,16.76,0,0,0-4.33,1.86c-1.43.88-3,2-4.61,1.73a15.61,15.61,0,0,1-15.49,11.19c-2.1-.07-4.16-.56-6.26-.59a28.68,28.68,0,0,0-7.06,1,18.12,18.12,0,0,1,5.24-2.38l-1.14-.68a.23.23,0,0,1-.14-.18C168.16,191.87,168.32,191.88,168.35,191.82Z" transform="translate(-133.59 -90.26)"/><path class="cls-7" d="M174.93,187a12.59,12.59,0,0,0,5.53-3.71,35.82,35.82,0,0,0,3.9-5.48,6.22,6.22,0,0,1-1.4,3.95A12,12,0,0,1,174.93,187Z" transform="translate(-133.59 -90.26)"/><path class="cls-7" d="M181,187.93l4.56-4.54A10.12,10.12,0,0,1,181,187.93Z" transform="translate(-133.59 -90.26)"/><path class="cls-7" d="M189.45,171.83a72.91,72.91,0,0,0,7-7.71,4.53,4.53,0,0,1-1,2A24,24,0,0,1,189.45,171.83Z" transform="translate(-133.59 -90.26)"/><path class="cls-7" d="M193.79,173.87l6.44-7.47C198.39,169.11,196.51,171.85,193.79,173.87Z" transform="translate(-133.59 -90.26)"/><path class="cls-7" d="M192.6,134.47a45.84,45.84,0,0,1-5.51,6.84,4.5,4.5,0,0,0,2-1.17,9.5,9.5,0,0,0,2.41-2.65C191.81,136.83,192,136.08,192.6,134.47Z" transform="translate(-133.59 -90.26)"/><path class="cls-7" d="M205.29,152.75q-2.46,2.83-4.71,5.84a50.79,50.79,0,0,0,4.06-4.11C205.15,153.9,205.66,153.28,205.29,152.75Z" transform="translate(-133.59 -90.26)"/><path class="cls-7" d="M207.79,157.9l-2.22,4A5.07,5.07,0,0,0,207.79,157.9Z" transform="translate(-133.59 -90.26)"/><path class="cls-5" d="M267,133.22c3.61,10-.15,20.87-2.42,31.22-2.41,10.84-3.07,22.31-1,33.15a38,38,0,0,1-9.38,7.08c-11.41,5.93-25.5,3.88-37.31-1.22a13.3,13.3,0,0,1-5.71-4.16,19.82,19.82,0,0,1-4.33-15.93c1.24-7.16,6.28-13,10.8-18.63A182.12,182.12,0,0,0,235,138.51a18.64,18.64,0,0,1-6.73-7.52A35.5,35.5,0,0,1,206,148c-2.15.52-4.54.81-6.45-.31-2.75-1.6-3.31-5.5-2.25-8.49s3.32-5.38,5.2-7.94c4.53-6.14,7.15-13.46,9.68-20.65a26.56,26.56,0,0,1,1.66-3.76,15.3,15.3,0,0,1,3.59-3.4,8.62,8.62,0,0,1,6.16-.65l.57.14a25.85,25.85,0,0,1,6.23,3l22.45,13.23C258.63,122.54,264.88,126.52,267,133.22Z" transform="translate(-133.59 -90.26)"/><path class="cls-6" d="M215.77,176.28c-4.18,5.63-3.25,14.07,1.23,19.47s11.8,7.9,18.8,7.65c-3.89-4.09-7.51-8.56-9.74-13.75s-2.93-11.21-1-16.5a12.17,12.17,0,0,0-4.77,7,36.11,36.11,0,0,0-1,8.56,15.4,15.4,0,0,1,.25-15.94C218.27,174,216.69,175,215.77,176.28Z" transform="translate(-133.59 -90.26)"/><path class="cls-7" d="M245.94,141.13l-4.91,1c-2.82.55-5.75,1.15-8,2.9a161.52,161.52,0,0,1-12.82,18.37c-3.58,4.44-7.49,8.71-10.13,13.78s-3.9,11.19-1.86,16.53c-3.22-3.68-3.47-9.42-1.87-14.31s4.79-9.09,8.17-13,7-7.57,9.76-11.93c3.12-5,5-10.69,8.53-15.37a14.46,14.46,0,0,1-4.77-5.92,30.25,30.25,0,0,1-21,15.55,14.21,14.21,0,0,1-7-.21,7.06,7.06,0,0,1-4.78-4.89c-.53-2.42.59-4.86,1.79-7,4.56-8.27,10.7-16,13.54-24.81,2-3.31,4.15-6.57,6.92-8.34a8.62,8.62,0,0,1,6.16-.65,8.63,8.63,0,0,1-1.84.31A10.56,10.56,0,0,0,214.9,107c-2.36,3-2.88,7.14-4.78,10.48,2.42,2.56,5.11,4.92,5.24,8.07a9.15,9.15,0,0,1-1.13,4.28,27.9,27.9,0,0,1-9.55,11,7.2,7.2,0,0,1-3.24,1.36,2.9,2.9,0,0,1-2.95-1.49c-.74,3.28,2.4,5.43,5.43,5.82a15.17,15.17,0,0,0,9.59-2.39,45.21,45.21,0,0,0,7.76-6.41c2.69-2.58,5.47-5.31,6.6-8.86,1.21-3.78.36-7.87-.49-11.74a19.31,19.31,0,0,1,2,13c1.06,1.74,2.11,3.39,3.81,3.84,1.92.5,3.82-.73,5.37-1.94a82.45,82.45,0,0,0,7.14-6.32,29.77,29.77,0,0,1-10.8,10.78,4.72,4.72,0,0,0,2.2,1.28l-2.31,2.91c2.19.39,4.54-.8,7-.82A7.59,7.59,0,0,1,245.94,141.13Z" transform="translate(-133.59 -90.26)"/><path class="cls-7" d="M224.75,111.58a15.1,15.1,0,0,0-5.61-8.58,3.34,3.34,0,0,1,2.4,1.09,9.83,9.83,0,0,1,1.52,2.24C224,108.06,225,109.94,224.75,111.58Z" transform="translate(-133.59 -90.26)"/><path class="cls-7" d="M216.93,104.94a8.16,8.16,0,0,1,3.66,4,1.51,1.51,0,0,0-.37-1.38,13.25,13.25,0,0,0-1.87-2.09C217.92,105.13,217.36,104.75,216.93,104.94Z" transform="translate(-133.59 -90.26)"/><path class="cls-7" d="M221.49,199.28a25.71,25.71,0,0,0,22.74,6.2,53.82,53.82,0,0,1-11.68-1A26.07,26.07,0,0,1,221.49,199.28Z" transform="translate(-133.59 -90.26)"/><path class="cls-7" d="M231.56,201.3a16.46,16.46,0,0,0,9.75.26C237.73,201.89,234,202.11,231.56,201.3Z" transform="translate(-133.59 -90.26)"/><path class="cls-7" d="M183.42,195.92a28.25,28.25,0,0,1,22.09-3.55c-.81-1.57-2.78-2.09-4.54-2.28-7.18-.8-15,1.24-19.73,6.7C182.6,196.2,184,195.61,183.42,195.92Z" transform="translate(-133.59 -90.26)"/><path class="cls-6" d="M245.68,314.31q20.34,42.63,42.95,84.16l9.69-6.39-1.94-2.85a582.25,582.25,0,0,1-51.62-94.52c7.44,11.42,14.69,24.52,27.05,31.24-19.52-23.84-28.83-54.8-48.6-78.43a5.68,5.68,0,0,0-4.61-.37,22.08,22.08,0,0,1-6.94,1.94c-1.09.15-2.29.27-3.59.33s-2.84.15-4.27.09A491.55,491.55,0,0,1,245.68,314.31Z" transform="translate(-133.59 -90.26)"/><path class="cls-7" d="M245.68,314.31q20.34,42.63,42.95,84.16l3.06-2a386.76,386.76,0,0,1-21.93-39.66c-5.58-11.89-10.34-24.17-16.37-35.84-4.7-9.13-10.17-17.83-15.61-26.53,2.22-.34,3.44,1,4.3,2.59.72-.43.66-1.47.48-2.29-1.47-6.87-5.18-13-8.88-19a168.63,168.63,0,0,0-10.51-15.54,52.1,52.1,0,0,0-10.38-10.33c-.36-.28-.75-.53-1.13-.78-1.09.15-2.29.27-3.59.33s-2.84.15-4.27.09A491.55,491.55,0,0,1,245.68,314.31Z" transform="translate(-133.59 -90.26)"/><path class="cls-6" d="M254.64,222.18,239.76,234c-1.86,1.48-3.89,3.3-3.9,5.68a8.05,8.05,0,0,0,1.66,4.17l43.39,67.92a203,203,0,0,1-19.3-46.4c-2-7-3.75-14.18-4.14-21.48a59.35,59.35,0,0,1,4.77-26.6A38.51,38.51,0,0,0,254.64,222.18Z" transform="translate(-133.59 -90.26)"/><path class="cls-7" d="M193.69,239.78c3.14,2.46,7.67,2.46,11.39,1s6.82-4.1,9.84-6.71l9.73-8.42c3.17-2.74,6.34-5.49,9.71-8a87.58,87.58,0,0,1,25.9-13.05l1.27-4.78c.55,2.37,1,5.11-.47,7-1.66,2.11-4.77,2.06-7.41,2.53a24.66,24.66,0,0,0-8.7,3.84,116.54,116.54,0,0,0-17,13.87,13.46,13.46,0,0,0-3.38,4.18c-1.42,3.22-.18,7.05,1.87,9.9s4.84,5.1,7.05,7.84a24.56,24.56,0,0,1,3.4,5.62c-5.77-6.68-12-13.65-20.3-16.57A37.89,37.89,0,0,1,211,242.7a12.48,12.48,0,0,1-6.84,2.12C200.64,244.73,197.52,242.69,193.69,239.78Z" transform="translate(-133.59 -90.26)"/><path class="cls-7" d="M244,266.79c17.31,23.49,23.93,54.06,43.69,75.53C274.18,316.74,259.93,291.57,244,266.79Z" transform="translate(-133.59 -90.26)"/><path class="cls-7" d="M228.65,234a124.85,124.85,0,0,1,33.45-23A187,187,0,0,1,228.65,234Z" transform="translate(-133.59 -90.26)"/><path class="cls-7" d="M208.31,247.57q5.33-2.72,10.86-5A14.39,14.39,0,0,1,208.31,247.57Z" transform="translate(-133.59 -90.26)"/><path class="cls-7" d="M220.65,205.37a17.09,17.09,0,0,0,21.91,3.07A34.52,34.52,0,0,1,220.65,205.37Z" transform="translate(-133.59 -90.26)"/><path class="cls-9" d="M198.62,138.41a3,3,0,0,0,3.3,1.19,7.48,7.48,0,0,0,3.19-1.9A31.74,31.74,0,0,0,213,127.08a.75.75,0,0,0,.1-.54.85.85,0,0,0-.34-.39,15.1,15.1,0,0,1-4.39-5.14C205.68,127.29,200.68,132.44,198.62,138.41Z" transform="translate(-133.59 -90.26)"/><path class="cls-9" d="M222.82,104.23c4,2.12,8.62,4.48,10.22,8.71a31.38,31.38,0,0,1,1.65,13.21c.94.47,2.08.93,3,.43a3.33,3.33,0,0,0,.73-.62,26,26,0,0,1,8.26-5.58c2.78.81,4.43,4,4.17,6.83a11.23,11.23,0,0,1-4.28,7.3c2.06-1.27,4.32-2.58,6.72-2.3,2.92.35,5,3,6.42,6.22-1.68,4.16-5.63,6.87-9.23,9.57-7.63,5.71-14.8,12.88-17.39,22.06a27.81,27.81,0,0,0,4,23.28c3.58,5,9.5,9,15.4,8a16.08,16.08,0,0,0,6.15-3.12c-2.38-8.26-2.15-17.07-.83-25.57s3.73-16.77,5.68-25.15c.64-2.76,1.23-5.68.33-8.38a8.32,8.32,0,0,0-.3-6.14,19.26,19.26,0,0,0-3.51-5.18,43.93,43.93,0,0,0-6.46-6.11,74.54,74.54,0,0,0-8.41-5.2c-2.83-1.61-5.66-3.24-8.46-4.9a30.28,30.28,0,0,1-5-3.49c-1.15-1.06-1.72-1.05-2.87-2.11S224.16,104.31,222.82,104.23Z" transform="translate(-133.59 -90.26)"/><path class="cls-9" d="M176.27,148.88a131.64,131.64,0,0,1,23.1,20.82c-.9-4.19-4.16-7.42-7.27-10.37C187.33,154.78,182.21,150.05,176.27,148.88Z" transform="translate(-133.59 -90.26)"/><path class="cls-9" d="M186.8,128.81c3.34,1.33,5.15,4.89,7.88,7.24-.29-2.13-1.88-3.81-3.45-5.28a8.72,8.72,0,0,0-2.19-1.64A3.46,3.46,0,0,0,186.8,128.81Z" transform="translate(-133.59 -90.26)"/><path class="cls-9" d="M164.07,165.88c6.17,2.75,12.28,6.17,16.5,11.45a7,7,0,0,1,1.79,3.84c-1.62.14-2.89-1.29-3.93-2.54A67.11,67.11,0,0,0,164.07,165.88Z" transform="translate(-133.59 -90.26)"/><path class="cls-9" d="M197,106.58a23.68,23.68,0,0,1,11.16,8.47c-.65,1-1.3,2.08-2,3.12-.9-3.13-3.26-5.58-5.55-7.89C199.38,109,198.07,107.63,197,106.58Z" transform="translate(-133.59 -90.26)"/><path class="cls-9" d="M361.17,350.76c3-1.95,6.09-3.87,9.15-5.77q-4.81-6.12-9.78-12.13c-26.19-31.54-56.08-60-80.83-92.64-6.08-8-11.91-16.44-15.1-26,4.32,28,25,49.32,43.19,69.94C326.64,305.5,343.9,328.13,361.17,350.76Z" transform="translate(-133.59 -90.26)"/><path class="cls-9" d="M221.77,116.92a18.65,18.65,0,0,1-2.32,16.43,6,6,0,0,0,2.79-2.3,11.27,11.27,0,0,0,2.71-4.82,10.5,10.5,0,0,0-.09-3.4,11.36,11.36,0,0,0-.84-3.36,6.06,6.06,0,0,0-2.21-2.52c-.14-.09-.29-.18-.33-.33S221.54,116.27,221.77,116.92Z" transform="translate(-133.59 -90.26)"/><path class="cls-9" d="M186.63,199.5a20.51,20.51,0,0,1,20.25-1.72,45.05,45.05,0,0,0-19.43,1.83c-.12,0-.26.1-.28.23S187.4,200,186.63,199.5Z" transform="translate(-133.59 -90.26)"/><path class="cls-9" d="M343,337.06c2.05,7.34,3.56,14.82,5,22.31q7.29-4.81,14.63-9.53c-12.71-18-24.27-37.2-40.48-52.15C332.44,308.25,338.94,322.63,343,337.06Z" transform="translate(-133.59 -90.26)"/><path class="cls-9" d="M322.1,297.69a55.55,55.55,0,0,0-9.45-7.8A103.56,103.56,0,0,1,322.1,297.69Z" transform="translate(-133.59 -90.26)"/><path class="cls-9" d="M190.52,212.41a19.42,19.42,0,0,1,20.73,4.43,6.36,6.36,0,0,1,1.86,3.09,4,4,0,0,1-3.58,4.53,7.71,7.71,0,0,1-3.49-1L194.31,218a8.81,8.81,0,0,1-3.43-2.32C190,214.55,189.76,212.72,190.52,212.41Z" transform="translate(-133.59 -90.26)"/><path class="cls-4" d="M208.4,110a54,54,0,0,1-6.63,14.36c-1.92,2.94-4.14,5.7-5.83,8.77a17.26,17.26,0,0,0-2.49,10.07c.39,3.5,2.62,6.93,5.41,7.68,5.37,2.1,11.59,1.19,16.68-1.5s9.18-7,12.54-11.64a3.91,3.91,0,0,1,1.33,3.67,9.57,9.57,0,0,1-1.58,3.74c-3.56,5.71-8.53,10.38-13.06,15.37s-8.76,10.56-10.33,17.11a24.13,24.13,0,0,0,1.31,15.07c-1.42-8.32,1.68-16.83,6.18-24s10.36-13.32,15.31-20.16c1.67-2.3,3.29-4.81,3.59-7.64s-1.15-6-3.89-6.84a47.33,47.33,0,0,1-14.47,12.8c-2.85,1.62-6.12,3-9.33,2.3a8.59,8.59,0,0,1-5.85-4.7,9.79,9.79,0,0,1-.21-7.57,23.94,23.94,0,0,1,3.9-6,72.65,72.65,0,0,0,8.57-14.09,9.33,9.33,0,0,0,1.11-3.92,3.47,3.47,0,0,0-2-3.29C208.2,109.93,207.91,110.48,208.4,110Z" transform="translate(-133.59 -90.26)"/><path class="cls-4" d="M169.83,193.31c4.13.67,8.38,1.33,12.45.37a16.08,16.08,0,0,0,8-4.68,10,10,0,0,0,3-6.81,21.55,21.55,0,0,0,6.73-1.84c3.87-2,6.12-6.16,7.69-10a8.89,8.89,0,0,1-1.14,6.58,16.1,16.1,0,0,1-4.75,4.87,14,14,0,0,1-5.82,2.6,2.55,2.55,0,0,0-1,.28,2.43,2.43,0,0,0-.75,1.31c-1.52,4.42-5.73,7.57-10.28,8.63S174.53,194.91,169.83,193.31Z" transform="translate(-133.59 -90.26)"/><path class="cls-4" d="M199.11,248.92a33.3,33.3,0,0,0,32-11.26A6.32,6.32,0,0,1,235,235c10.49-3.85,19.45-11.17,26.63-19.72a36.08,36.08,0,0,1-21.39,21,20.31,20.31,0,0,0-3.94,1.63,20.59,20.59,0,0,0-3.2,2.78,42.84,42.84,0,0,1-29.53,12A8.6,8.6,0,0,0,199.11,248.92Z" transform="translate(-133.59 -90.26)"/><path class="cls-4" d="M207.13,187.34c-.88,5.53,2.48,10.93,6.71,14.6a36.15,36.15,0,0,0,20.39,8.3,51.05,51.05,0,0,0,22-3.22c-7.16,1.08-14.48,2.16-21.6.85a42.33,42.33,0,0,1-14.5-5.93c-3.7-2.3-7.24-5.12-9.39-8.92s-2.68-8.75-.42-12.49A18,18,0,0,0,207.13,187.34Z" transform="translate(-133.59 -90.26)"/><path class="cls-4" d="M202.83,236.32a20.91,20.91,0,0,0,17.93-31.51c2.91.42,4.42,3.73,4.8,6.64a22.28,22.28,0,0,1-5.09,17.17C216.48,233.29,210.45,236.16,202.83,236.32Z" transform="translate(-133.59 -90.26)"/><path class="cls-4" d="M186,193.65a28.12,28.12,0,0,1,17.65-1.33,8.79,8.79,0,0,0-4-1.52c-1.66-.32-3.34-.57-5-.75a10.22,10.22,0,0,0-3.49.07C189.17,190.63,187.63,192.22,186,193.65Z" transform="translate(-133.59 -90.26)"/><path class="cls-4" d="M357.87,95.84a14.4,14.4,0,0,0,1.18,8.51,42.76,42.76,0,0,0,4.51,7.44A44.27,44.27,0,0,1,357.87,95.84Z" transform="translate(-133.59 -90.26)"/><path class="cls-4" d="M291.77,118.15c6.15-8.18,13.3-16.28,22.93-19.74a10.71,10.71,0,0,1,5.76-.75,4.8,4.8,0,0,1,3.93,3.86,16.71,16.71,0,0,1-.19,2.63,2.74,2.74,0,0,0,.87,2.38c1,.75,2.49.13,3.57-.56,5.15-3.32,9.29-8,14.47-11.3a28.88,28.88,0,0,1,12.64-4.41A20.44,20.44,0,0,0,357,104.9c1.76,3.57,4.53,6.56,6.27,10.14a18.05,18.05,0,0,1,1.54,11.49c-9.14,1.19-17,7-24,12.85-4.49,3.73-9.44,7.81-15.27,7.71-1.84,0-3.88-.65-4.74-2.29a4.67,4.67,0,0,0-.8-1.39c-.9-.83-2.34-.17-3.32.56a30.36,30.36,0,0,0-11.06,16.58,14.9,14.9,0,0,1-2.52-5.26c-2.11-6.29-5-12.28-7.3-18.51S291.75,124,291.77,118.15Z" transform="translate(-133.59 -90.26)"/><path class="cls-10" d="M364.05,125.59a9.52,9.52,0,0,0-5.14.64,39.37,39.37,0,0,0-10.6,5.57c-3.36,2.49-6.29,5.49-9.53,8.13s-6.9,4.94-11,5.68c-1.66.3-3.76.11-4.47-1.42-.49-1.06-.08-2.37-.58-3.43a2.94,2.94,0,0,0-3.09-1.4,7.29,7.29,0,0,0-3.21,1.61,33.9,33.9,0,0,0-12.09,17.59A126.12,126.12,0,0,1,292,125.87c-.31-1.41-.69-2.94-.17-3.84a60.62,60.62,0,0,1,16-18.06,28.78,28.78,0,0,1,7.34-4.23c2-.75,4.7-1,6.09.71a5,5,0,0,1,.76,3.85,27.44,27.44,0,0,0-.59,4,3.72,3.72,0,0,0,1.77,3.4,3.1,3.1,0,0,0,1.75.25c1.76-.24,3.09-1.66,4.27-3,.87-1,1.74-2,2.47-2.92,4.26-5.07,10.18-8.41,16-11.64a18,18,0,0,1,6.81-2.65,17.41,17.41,0,0,0-.7,11,19,19,0,0,0,2.61,5.18c1.3,1.92,2.8,3.73,4.15,5.61C363,117,365.07,121.37,364.05,125.59Z" transform="translate(-133.59 -90.26)"/><path class="cls-11" d="M364.05,125.59a9.52,9.52,0,0,0-5.14.64,39.37,39.37,0,0,0-10.6,5.57c-3.36,2.49-6.29,5.49-9.53,8.13s-6.9,4.94-11,5.68c-1.66.3-3.76.11-4.47-1.42-.49-1.06-.08-2.37-.58-3.43a2.94,2.94,0,0,0-3.09-1.4,7.29,7.29,0,0,0-3.21,1.61,33.9,33.9,0,0,0-12.09,17.59,124.89,124.89,0,0,1-8.16-18.31,81.34,81.34,0,0,1,10.52-15.32c2.32-2.66,4.89-5.23,8.11-6.67a4.67,4.67,0,0,1,3-.5,3.91,3.91,0,0,1,2.48,2.4,14.61,14.61,0,0,1,.76,3.48,34.29,34.29,0,0,0,1.72,6.75,3.23,3.23,0,0,0,.95,1.55,2.21,2.21,0,0,0,1.54.4c2.36-.17,3.71-2.65,4.83-4.74a38,38,0,0,1,20.38-17.78,21.78,21.78,0,0,1,6-1.88c1.3,1.92,2.8,3.73,4.15,5.61C363,117,365.07,121.37,364.05,125.59Z" transform="translate(-133.59 -90.26)"/><path class="cls-4" d="M314.92,96.35a15.39,15.39,0,0,1,5.23-1.71,5.28,5.28,0,0,1,4.86,2c.93,1.44.81,3.29,1,5a2.51,2.51,0,0,0,1.07,2.11,2.25,2.25,0,0,0,2.5-.89,8.74,8.74,0,0,1,1.92-2.09,9.42,9.42,0,0,1-2.57,1.7,1.58,1.58,0,0,1-.79.18c-.77-.09-1-1.09-1.06-1.87a14.06,14.06,0,0,0-.49-3.54,4.71,4.71,0,0,0-2.13-2.78,5.54,5.54,0,0,0-3.15-.42A16.06,16.06,0,0,0,314.92,96.35Z" transform="translate(-133.59 -90.26)"/><path class="cls-4" d="M313.86,152a14.13,14.13,0,0,1,1.91-2.9,4.73,4.73,0,0,1,3-1.61c1.65-.13,3.14.89,4.68,1.49,3.42,1.33,7.37.58,10.62-1.12s6-4.27,8.66-6.76,5.5-5,8.85-6.48l-10.2,9.13a40.64,40.64,0,0,1-7.09,5.47,13.66,13.66,0,0,1-8.62,1.85c-2.3-.37-4.48-1.54-6.82-1.46A7,7,0,0,0,313.86,152Z" transform="translate(-133.59 -90.26)"/><path class="cls-12" d="M310.84,104c-2.59,3-5.28,6.22-6.09,10.11-.55,2.64-.19,5.39-.65,8-.57,3.28-2.38,6.32-2.51,9.65.5-.79,1.83-.51,2.34.28a4.12,4.12,0,0,1,.31,2.72,51.13,51.13,0,0,0-.55,8.28,14,14,0,0,0,2.52,7.79,30.49,30.49,0,0,1,1.18-5.17c.95-2.71,2.66-5.11,3.63-7.81,1.92-5.36.75-11.29,1.27-17,.08-.82.29-1.77,1-2.09a4.67,4.67,0,0,0,.84-.31c.51-.36.42-1.12.3-1.73a31,31,0,0,1,.34-13.82A5.8,5.8,0,0,0,310.84,104Z" transform="translate(-133.59 -90.26)"/><path class="cls-12" d="M319.79,107.56a21.52,21.52,0,0,0,0,8.72,50.7,50.7,0,0,1,1.42,6.39c.2,2.52-.41,5-.52,7.54A19.15,19.15,0,0,0,321,134a2.84,2.84,0,0,0,.38,1.15c.62.87,2,.81,2.8,1.5,1.48,1.23.41,3.81,1.42,5.44a3.33,3.33,0,0,0,2.69,1.38c3.14.18,5.82-2.52,6.9-5.48s1-6.2,1.35-9.33a50.11,50.11,0,0,1,3.12-12.07l-3.19,1.8a14.35,14.35,0,0,1,1.47-8.19c1.54-3,4.14-5.44,5.18-8.64a.89.89,0,0,0,0-.88c-.31-.37-.91-.07-1.28.25-4.68,4-8.28,9.21-13.18,13-1.19.91-2.65,1.78-4.11,1.42-1.62-.4-2.51-2.11-3.07-3.68A24.33,24.33,0,0,0,319.79,107.56Z" transform="translate(-133.59 -90.26)"/><path class="cls-12" d="M351.28,105.6a6.77,6.77,0,0,0-2.53,4.43c-.33,1.71-.31,3.47-.57,5.2-.7,4.64-3.44,8.92-3.35,13.61a.83.83,0,0,0,.06.35c.25.51,1,.05,1.33-.44a26.84,26.84,0,0,0,2-4.32c2-5.17,4.06-10.34,5.66-15.65a4.11,4.11,0,0,0,.23-1.24,4.18,4.18,0,0,0-.28-1.21l-1-2.89a.83.83,0,0,0-.29-.46c-.35-.19-.73.2-.91.55C351.13,104.53,350.9,105.66,351.28,105.6Z" transform="translate(-133.59 -90.26)"/><path class="cls-4" d="M319.39,191.05c.34-.13.7-.2,1-.33l.31-.13a2.29,2.29,0,0,1,1.24-.11c-22.72-46.84-30.72-76.18-30.72-76.18l-2.51,6.08c7.12,24.35,17.42,49.19,28.49,72.25A4.43,4.43,0,0,1,319.39,191.05Z" transform="translate(-133.59 -90.26)"/><path class="cls-4" d="M381.17,292.52a840.42,840.42,0,0,1-53.44-90.44,3.13,3.13,0,0,1-.63.06,3.29,3.29,0,0,1-.92-.14l-.72-.06a5.12,5.12,0,0,1-1.69,1,2.49,2.49,0,0,1-1.38.14,832.48,832.48,0,0,0,54.84,93.3C381.81,297,381.17,292.52,381.17,292.52Z" transform="translate(-133.59 -90.26)"/><path class="cls-4" d="M343.74,242a1.72,1.72,0,0,0-.48,1.2.59.59,0,0,0,.07.26.5.5,0,0,0,.31.14,2.42,2.42,0,0,0,1.22.05,2.33,2.33,0,0,0,.62-.34,39.51,39.51,0,0,0,3.16-2.43.26.26,0,0,0,.11-.16.26.26,0,0,0-.07-.16,1.91,1.91,0,0,0-1.58-.85,2.68,2.68,0,0,0-1.32.64,11.9,11.9,0,0,0-2.13,1.87C343.53,242.39,343.42,242.61,343.74,242Z" transform="translate(-133.59 -90.26)"/><path class="cls-4" d="M369,281.6c-.25.55-.5,1.11-.74,1.66a1.47,1.47,0,0,0-.19.7c0,.61.77,1,1.37.85a5.52,5.52,0,0,0,1.63-.81,6.72,6.72,0,0,0,1.2-.75,4,4,0,0,0,.91-2.55,3,3,0,0,0,0-1.24,1,1,0,0,0-.9-.76c-.49,0-.85.44-1.13.84C370.3,280.74,369.47,281.94,369,281.6Z" transform="translate(-133.59 -90.26)"/><path class="cls-4" d="M325,205.7c-.29.44-.58.89-.88,1.33a1.5,1.5,0,0,0-.2.4.9.9,0,0,0,.68,1,2,2,0,0,0,1.3-.15,10.88,10.88,0,0,0,3.19-2.05,1.52,1.52,0,0,0,.68-1.12,3.74,3.74,0,0,0-2.93.49C325.93,206,325.05,206.42,325,205.7Z" transform="translate(-133.59 -90.26)"/><path class="cls-4" d="M306.74,160.7a10.33,10.33,0,0,0-3.51,2.28.75.75,0,0,0,.55.44,2.24,2.24,0,0,0,.73,0,8,8,0,0,0,2.54-.73,3.5,3.5,0,0,0,1.73-1.92.38.38,0,0,0,0-.18.35.35,0,0,0-.27-.28C307.86,160.05,307.11,160.55,306.74,160.7Z" transform="translate(-133.59 -90.26)"/><path class="cls-13" d="M380.2,292.55a2.6,2.6,0,0,1-2.06,2.85.77.77,0,0,1-.45,0,.76.76,0,0,1-.32-.34c-2.33-3.56-4.65-7.12-7-10.87a3.35,3.35,0,0,0,2.39-2.63C375.33,285.06,379.51,288,380.2,292.55Z" transform="translate(-133.59 -90.26)"/><path class="cls-13" d="M369.42,282.34a2.53,2.53,0,0,0,1.72-3.08C361.5,268,355.89,253.78,347,241.88l-1.63,1.41c4.25,7.62,8.5,15.25,13.15,22.63C362.05,271.46,365.77,276.86,369.42,282.34Z" transform="translate(-133.59 -90.26)"/><path class="cls-13" d="M344.58,241.81c.9-.61,1.92-1.47,1.74-2.55a3,3,0,0,0-.36-.86c-2-3.55-3.91-7.1-6-10.69Q334,217.44,328.6,206.89a4.81,4.81,0,0,1-2.45,1.45l16.56,30.93A7.86,7.86,0,0,0,344.58,241.81Z" transform="translate(-133.59 -90.26)"/><path class="cls-13" d="M318.26,191.63a5.74,5.74,0,0,1,1.13-.58c.31-.12.65-.2,1-.3-4.63-9.28-8.63-18.88-12.6-28.46a5.26,5.26,0,0,1-2.79,1.17,248.51,248.51,0,0,0,11.71,25.22Z" transform="translate(-133.59 -90.26)"/><path class="cls-13" d="M326.48,202.08l-.3-.08q-.36,0-.72-.06a5.12,5.12,0,0,1-1.69,1l-.23.06a21.66,21.66,0,0,0,1.95,3.39,4.93,4.93,0,0,0,2-.74.91.91,0,0,0,.44-.49,1,1,0,0,0-.16-.71C327.39,203.67,326.93,202.87,326.48,202.08Z" transform="translate(-133.59 -90.26)"/><path class="cls-13" d="M304.68,161.64c.68-.47,1.91-.23,2.12-1a1.22,1.22,0,0,0,0-.63c-1.21-4.87-3.86-9.24-5.87-13.83-3.91-8.91-5.42-18.73-9.4-27.61l-1.16,2.32a3.12,3.12,0,0,0-.41,1.2,3.17,3.17,0,0,0,.21,1.06C294.41,136.22,299.29,149.12,304.68,161.64Z" transform="translate(-133.59 -90.26)"/><path class="cls-14" d="M378.08,294.9a2.35,2.35,0,0,0,.28-2.1,6.89,6.89,0,0,0-1-1.92l-3-4.46c-.79-1.15-1.61-2.47-1.37-3.85l-1.34,1.6a.55.55,0,0,0-.14.26.52.52,0,0,0,.1.36A95,95,0,0,0,378.08,294.9Z" transform="translate(-133.59 -90.26)"/><path class="cls-14" d="M369.81,281.37a22.15,22.15,0,0,0-2.78-4.92A309.5,309.5,0,0,1,351,250a32.19,32.19,0,0,0-4.74-7.24,96.55,96.55,0,0,0,6.18,12.38c1.62,2.72,3.36,5.37,5.11,8C361.59,269.31,365.67,275.48,369.81,281.37Z" transform="translate(-133.59 -90.26)"/><path class="cls-14" d="M344.34,240.89c.72-.66.31-1.85-.16-2.71L328,208.11l-1,.48C332.73,219.21,338.54,229.79,344.34,240.89Z" transform="translate(-133.59 -90.26)"/><path class="cls-14" d="M324.22,202.75c.48.94.94,1.89,1.42,2.82a4,4,0,0,0-.69-3.24A4.77,4.77,0,0,1,324.22,202.75Z" transform="translate(-133.59 -90.26)"/><path class="cls-14" d="M319,191.21c-3.8-8-6.94-16.4-10.34-24.62-.52-1.26-1.41-2.74-2.76-2.59q6.09,13.84,12.68,27.42Z" transform="translate(-133.59 -90.26)"/><path class="cls-14" d="M304.74,160.79c.71-.43.5-1.49.19-2.26-4.88-12.23-10.61-24.23-13.56-37.06a1,1,0,0,0-.87.91,3.09,3.09,0,0,0,.2,1.34A372.28,372.28,0,0,0,304.74,160.79Z" transform="translate(-133.59 -90.26)"/><path class="cls-13" d="M228.29,304.89a8,8,0,0,1,2.52-6.85c-.22,1.84-.41,3.85.57,5.42a6.29,6.29,0,0,1,1.56-2.26,5.81,5.81,0,0,0,.75,2.54,10.75,10.75,0,0,1,5.41-4.07,19.79,19.79,0,0,1,10.56.85c2.51.93,4.94,2.4,7.57,2.32a11.56,11.56,0,0,0,4.49-2.64,4,4,0,0,1-.63,3.87,3.68,3.68,0,0,0,2.27-1,5,5,0,0,1-1.76,3.51l2-.49c-.44,1.57-2,2.48-3.46,3.24l2.52.26a5.7,5.7,0,0,1-2.3,1.86c3.52.56,6.38,3,9.33,5a53.73,53.73,0,0,0,10,5.21,47.79,47.79,0,0,0,28.81-19.59c.66-1,1.44-2.08,2.44-2.19,6.62-.88,13.23-2.4,19.13-5.5s11.1-7.87,13.45-13.9a78.76,78.76,0,0,0,3.34-10,49.39,49.39,0,0,0,.76-20.2c1-.1,1.7.78,2.23,1.58a97.59,97.59,0,0,1,5,8.92,35.43,35.43,0,0,1,2.69,6.12,28.57,28.57,0,0,1,.95,7.2c.17,5.88-.39,11.89-2.81,17.15a8.86,8.86,0,0,1-.58,1.76,31.76,31.76,0,0,1,5.44-3.51,9,9,0,0,1,0,3.4c-.22,1.58-.45,3.15-.67,4.68a58.26,58.26,0,0,1-9.53,18.94c2.63-.64,4.43-3,6.84-4.29a3.89,3.89,0,0,1,.06,2.67,11.17,11.17,0,0,1-1.21,2.45c-1,1.58-1.94,3.14-3,4.68a18.55,18.55,0,0,1-3.25,4,28.5,28.5,0,0,1-3,2.07,30.43,30.43,0,0,0-5.71,4.85c-.07.08-.18.17-.27.12s.05-.23.11-.1l-.81.52a31.13,31.13,0,0,0,6.45-3,4.9,4.9,0,0,1-1.33,3.54,47.6,47.6,0,0,1-13,11.88,13,13,0,0,0,6.93-1.29c-2.61,4-6.89,6.61-11.24,9.11a62.48,62.48,0,0,0,44.24,1.11c-.17,9.89-.34,19.79-1.29,30-27.95-1.23-56-2.47-83.87-.07-6.15.53-12.35,1.24-18.17.83A99.73,99.73,0,0,1,252.77,381a30,30,0,0,1-8.29-4.29,17.22,17.22,0,0,1-6.38-11.13c-1.87-2.27-2.62-5.24-3.1-8.14-.51-3.07-.78-6.18-1-9.29a60.24,60.24,0,0,0-.7-6.72,27.12,27.12,0,0,0-6.42-13.13,17.51,17.51,0,0,1,5.55-4.28c2.07-1.12,4.24-2.05,6.26-3.24a6.54,6.54,0,0,0,1.62-1.23,3.75,3.75,0,0,0,.95-2.71,2,2,0,0,0-.21-.87,2.88,2.88,0,0,0-.9-.87,19.15,19.15,0,0,1-3.65-3.6,17.29,17.29,0,0,0-1.43-1.77,15.07,15.07,0,0,0-2.91-2A19.33,19.33,0,0,1,228.29,304.89Z" transform="translate(-133.59 -90.26)"/><path class="cls-3" d="M235.29,311a9.29,9.29,0,0,0-3.92-3.76,15.57,15.57,0,0,0-5.27-1.55,16,16,0,0,0-10.71,2,7.88,7.88,0,0,0-2.54,2.5,4.84,4.84,0,0,0-.6,3.52,8.53,8.53,0,0,1,10.67.35,17.56,17.56,0,0,0,2.55,2.22c1,.75,2.22,1.06,3.24,1.75s1.79,2.08,1.15,3.13a2.42,2.42,0,0,1-.8.76,5.32,5.32,0,0,1-5.81-.13,30.75,30.75,0,0,1-3.89,4.17,11,11,0,0,1-4.93,2.48,6.82,6.82,0,0,0,6.14,2.2,17.39,17.39,0,0,0,6.39-2.53,39.11,39.11,0,0,1,8.46-5.35c1.88-.87,3.94-1.69,5.08-3.42a3,3,0,0,0,.28-3.17A4.57,4.57,0,0,0,239.7,315a38.13,38.13,0,0,1-4.85-4.57C235,310.41,235.24,310.36,235.29,311Z" transform="translate(-133.59 -90.26)"/><path class="cls-15" d="M229.32,318.32a8.35,8.35,0,0,0-4.38-1.7,11.36,11.36,0,0,0-2.73.16,8.46,8.46,0,0,0-1.85.51,13.73,13.73,0,0,0-1.88,1,13,13,0,0,1-4.31,1.95c-.19,0-.42.09-.49.27s.17.5.43.6a5.19,5.19,0,0,0,2.15.28,28.71,28.71,0,0,0,4.24-.41,6.53,6.53,0,0,1,2-.17c1.28.19,2.28,1.2,3.5,1.65a2.08,2.08,0,0,0,1,.15,2.64,2.64,0,0,0,.81-.3,4.33,4.33,0,0,0,1.72-1.22A2.22,2.22,0,0,0,229.32,318.32Z" transform="translate(-133.59 -90.26)"/><path class="cls-14" d="M236.17,309.22a6.6,6.6,0,0,1,3.34-3.89,19.16,19.16,0,0,1,5-1.64,17.84,17.84,0,0,0-5,8c1.67.12,3,1.48,4.58,2,2.24.68,4.6-.45,6.63-1.62a4.79,4.79,0,0,1-2.83,2.86,8.26,8.26,0,0,1-4.1.39,10.56,10.56,0,0,1,2,3.92,7.27,7.27,0,0,0-1.64-1l.51,3.12-1.36-1.05a6.42,6.42,0,0,1,.26,2.09l-2.21,0a9.8,9.8,0,0,1,0,3.5,12.17,12.17,0,0,0-3.91-2.41,5.17,5.17,0,0,1,.36,4.18,3.62,3.62,0,0,1-1.4-1.84c1.1,1.45.27,3.48-.19,5.24a22.62,22.62,0,0,0-.26,7.21,13.94,13.94,0,0,1,2.36-3.62c.5,2,.27,4,.37,6.07a19.16,19.16,0,0,0,2.32,8.23,6.26,6.26,0,0,1,.4-1.2.64.64,0,0,1,.23-.3c.4-.24.72.39.79.85a6.1,6.1,0,0,0,2.39,4.13,13.82,13.82,0,0,0-.12,16.46,20.23,20.23,0,0,1,3.76-9.51A22.15,22.15,0,0,0,257.07,372a15.23,15.23,0,0,0-.15-4.95,33.88,33.88,0,0,0,19.17,9.14,25.42,25.42,0,0,1-6-11.92,39.73,39.73,0,0,0,25.73,7.9,19.23,19.23,0,0,1-5.78,3.47c2.46-.2,4.87.64,7.32,1a33.62,33.62,0,0,0,8.38-.19c1.54-.17,3.08-.36,4.61-.54.15,0,.33-.07.35-.22s-.31-.09-.2,0,0,.08,0,0c1.48.15,2.95.3,4.37.41a43.17,43.17,0,0,1-8.49,5.31,12.17,12.17,0,0,0,3.06,1.05,18.49,18.49,0,0,1-4.42,1.74,37.54,37.54,0,0,1-7.64.82c-6.06.23-12.13.47-18.19.52a71.17,71.17,0,0,1-10.73-.53,78.45,78.45,0,0,1-8-1.74c-2-.52-4.05-1-6-1.7a44.85,44.85,0,0,1-7.9-3.64c-3.51-2-7.09-5-7.5-8.9-.72-2.72-2.15-5.19-3.07-7.85-2.22-6.47-1.23-13.63-2.83-20.24a32.86,32.86,0,0,0-1.62-7.39,2,2,0,0,0,1.31-1.3,5,5,0,0,0,.18-1.9c-.12-2.46-.55-5.19,1-6.95a7.36,7.36,0,0,1,3-1.64,8.83,8.83,0,0,0,1.89-.59,4.52,4.52,0,0,0,1.82-2.5c.4-1.09.61-2.45-.2-3.29a5.42,5.42,0,0,0-1.26-.78C237.17,313.51,235.71,311,236.17,309.22Z" transform="translate(-133.59 -90.26)"/><path class="cls-14" d="M290.34,323.49a52.2,52.2,0,0,0,22.34-15.2,11.2,11.2,0,0,1,1.8-1.84A11.41,11.41,0,0,1,317.7,305a55.8,55.8,0,0,0,34.77-36.39c2.5,9.31,1.1,19.47-3.09,28.15a55.36,55.36,0,0,1-19,21.34,39.37,39.37,0,0,0,18.4-8.45c-5.78,10.05-16.37,16.19-26.51,21.81a93.87,93.87,0,0,0,20.69-6.17c-3.52,4.6-9,7.36-14.52,9s-11.34,2.4-17,3.82a39.6,39.6,0,0,0,24.57.26c-4.24,3.93-9.84,6.15-15.53,7.22s-11.5,1.07-17.29,1.06c4.77,4.13,12,3,18,4.94a37.93,37.93,0,0,1-13.66,1.95c-4.1-.17-8.48-1.18-11.2-4.26a9.16,9.16,0,0,0,5-3.61l-6.18-4.29a5.35,5.35,0,0,0,3.34-4.39A26.56,26.56,0,0,1,289,338a16.13,16.13,0,0,0,6.74-10.32l-7.91,1C289,326.89,290.1,325.15,290.34,323.49Z" transform="translate(-133.59 -90.26)"/><path class="cls-16" d="M252.11,305.41c-2.32-.11-4.72-.2-6.86.69a19.41,19.41,0,0,1,10.1,3.92l-2.89.46,3.6,2.77a5.91,5.91,0,0,1,2.27,2.57,16.7,16.7,0,0,1-5.68.41,16.86,16.86,0,0,1,3.16,3.68l-4.36-.16,2.76,3.13a12.89,12.89,0,0,1-3.34-.14,16.1,16.1,0,0,1,5.06,4.81,2.4,2.4,0,0,1,0-1.73,19.15,19.15,0,0,1,6.73,5.95,61.94,61.94,0,0,0-3.05-9.26,2.14,2.14,0,0,1,1.9.55l5.33,3.76c-.86-2.33-1.73-4.66-2.59-7a26,26,0,0,1,4.12.92l8.33,1.15a17.46,17.46,0,0,1-4.86-2.74l-10.21-7.28a11.67,11.67,0,0,1-2.43-2.11,25.36,25.36,0,0,0-2.06-2.94C255.87,305.58,253.91,305.38,252.11,305.41Z" transform="translate(-133.59 -90.26)"/><path class="cls-16" d="M264.61,346.79a16.22,16.22,0,0,0,2.09,4.08,12.9,12.9,0,0,0,2.45,2.39,41.84,41.84,0,0,0,9.21,4.94,40.65,40.65,0,0,1-2.46-4.61,17.14,17.14,0,0,0-3.14-4.14,8.74,8.74,0,0,0-2.23-1.64C268.86,347,266.92,347,264.61,346.79Z" transform="translate(-133.59 -90.26)"/><path class="cls-16" d="M272.93,340.62a13.06,13.06,0,0,0,10.56,6.19c.13-.13,0-.35-.07-.5a14.91,14.91,0,0,0-3.16-3.6,7.94,7.94,0,0,0-4.39-1.77A9.19,9.19,0,0,1,272.93,340.62Z" transform="translate(-133.59 -90.26)"/><path class="cls-16" d="M281.37,351.35a14.05,14.05,0,0,0,5.76,6.12c2.42,1.5,5.07,2.59,7.58,3.92a15.38,15.38,0,0,0,3.28,1.49l-3.47-5a15.77,15.77,0,0,0-1.75-2.23,12.7,12.7,0,0,0-6.79-3.16A19,19,0,0,1,281.37,351.35Z" transform="translate(-133.59 -90.26)"/><path class="cls-16" d="M284.19,340.6a12.35,12.35,0,0,0,4,3.37,9.48,9.48,0,0,0,1.88.57,27.66,27.66,0,0,0,3,.52c.27,0,.62,0,.74-.21l-2.6-2.18a7.72,7.72,0,0,0-2.82-1.72C287,340.59,285.45,341,284.19,340.6Z" transform="translate(-133.59 -90.26)"/><path class="cls-16" d="M290.85,319.78a32.25,32.25,0,0,0,9-3.18c4.75-2.35,9.52-5.5,11.6-10.38a6.72,6.72,0,0,0,4.22-2.19,2.8,2.8,0,0,1,.58-.56,2.58,2.58,0,0,1,.88-.27,28,28,0,0,0,13.45-6.47l-15.07,5c-.45.15-1,.27-1.34-.1a8,8,0,0,1-1.56,2.09,2.65,2.65,0,0,1-2.42.64C305.5,311.49,297.85,316,290.85,319.78Z" transform="translate(-133.59 -90.26)"/><path class="cls-16" d="M348.65,270.3a50.32,50.32,0,0,0,1.6-13.49,34.11,34.11,0,0,1,6.37,22.26,67,67,0,0,0-4-16.07A35.74,35.74,0,0,1,348.65,270.3Z" transform="translate(-133.59 -90.26)"/><path class="cls-16" d="M356.12,295.13a75.88,75.88,0,0,1-5.81,12.17c2.76-2.13,5.48-4.46,7.22-7.48a8,8,0,0,0,1.26-4.66,1.3,1.3,0,0,0-.47-1,1.24,1.24,0,0,0-.74-.14C356.78,294,356.47,294.19,356.12,295.13Z" transform="translate(-133.59 -90.26)"/><path class="cls-16" d="M353.55,316.86c-3.17,2.08-6.45,4.28-8.34,7.57-.08.15-.16.35,0,.49a10.94,10.94,0,0,0,3.69-2.09,16.7,16.7,0,0,0,2.83-2.61A11.46,11.46,0,0,0,353.55,316.86Z" transform="translate(-133.59 -90.26)"/><path class="cls-16" d="M327.45,354.32l-7,2.86a70.67,70.67,0,0,0,12.94,4l-2.05-3.92a5,5,0,0,0-.87-1.31,4.84,4.84,0,0,0-1.7-1C327.94,354.67,327.12,354.39,327.45,354.32Z" transform="translate(-133.59 -90.26)"/><path class="cls-16" d="M334.7,356.44c.53,1.7,1.13,3.51,2.55,4.59a8.18,8.18,0,0,0,2.53,1.15c8.12,2.64,17.13,4.22,25.06,1.07a11.05,11.05,0,0,0,4.14-2.63,5.54,5.54,0,0,0,1.54-4.52c-2,1.77-4.76,2.48-7.41,2.93A55.63,55.63,0,0,1,334.7,356.44Z" transform="translate(-133.59 -90.26)"/><path class="cls-16" d="M331.5,364.76A196.67,196.67,0,0,0,355.08,372a36.38,36.38,0,0,0,9.5,1.18,6.61,6.61,0,0,0,3.64-1,7.77,7.77,0,0,0,2.18-3c-7,.76-14.16-.22-21.17-1.27C343.53,367.06,337.84,366.17,331.5,364.76Z" transform="translate(-133.59 -90.26)"/><path class="cls-16" d="M311.53,364.47c6.43,2.37,13.29,4.37,20.07,3.36a85.71,85.71,0,0,0-7.65-4,5.05,5.05,0,0,0-1.48-.49,4.89,4.89,0,0,0-1.52.16A36.63,36.63,0,0,1,311.53,364.47Z" transform="translate(-133.59 -90.26)"/><path class="cls-16" d="M303.11,358.63a13.65,13.65,0,0,0,3,2c2.5,1.11,5.39.66,8.08.2.33-.06.75-.22.74-.56s-.36-.43-.64-.5a29.29,29.29,0,0,0-7.63-.9A10,10,0,0,1,303.11,358.63Z" transform="translate(-133.59 -90.26)"/><path class="cls-16" d="M292.51,351.18l6.84,4.9a10,10,0,0,0-4.72-4.21A19.71,19.71,0,0,0,292.51,351.18Z" transform="translate(-133.59 -90.26)"/><path class="cls-16" d="M275.57,363.57A8,8,0,0,1,281,363c3.64.94,6,4.46,9.24,6.3C285.14,367.21,280,365.29,275.57,363.57Z" transform="translate(-133.59 -90.26)"/><path class="cls-16" d="M257.44,356.08c1.29,3.45,3.25,6.89,6.49,8.64-.79-1.57-1.34-3.26-2.2-4.8A8.27,8.27,0,0,0,257.44,356.08Z" transform="translate(-133.59 -90.26)"/><path class="cls-16" d="M248.69,331.42a33.42,33.42,0,0,0,.62,4,1.91,1.91,0,0,0,.65,1.26c.21-.08.27-.34.29-.56A5.69,5.69,0,0,0,248.69,331.42Z" transform="translate(-133.59 -90.26)"/><path class="cls-16" d="M249.12,324.64l1.57,3.28a3,3,0,0,0,0-1.77,2.92,2.92,0,0,0-.61-.83C249.74,325,249.42,324.66,249.12,324.64Z" transform="translate(-133.59 -90.26)"/><path class="cls-16" d="M275.44,325.94a10.64,10.64,0,0,0,8.07-.78,7.64,7.64,0,0,0-5.31-.17A13.75,13.75,0,0,1,275.44,325.94Z" transform="translate(-133.59 -90.26)"/><path class="cls-16" d="M270.55,327.92q2,1.06,3.95,2.32a38.92,38.92,0,0,1-4-.23,3.08,3.08,0,0,1-1.44-.44.27.27,0,0,1-.15-.25.35.35,0,0,1,.08-.13l1.33-1.4C270.43,327.64,270.66,327.48,270.55,327.92Z" transform="translate(-133.59 -90.26)"/><path class="cls-16" d="M263.52,339.25a27.33,27.33,0,0,0,3.47,3,9.54,9.54,0,0,0-2.42-3.64,1.46,1.46,0,0,0-.74-.44.31.31,0,0,0-.19,0,.3.3,0,0,0-.11.19C263.36,338.86,263.41,339.44,263.52,339.25Z" transform="translate(-133.59 -90.26)"/><path class="cls-16" d="M256.46,343.29a2.5,2.5,0,0,1,1.4,1.09,7.72,7.72,0,0,1,1.39,5.12,44.08,44.08,0,0,1-2.8-5.42A.73.73,0,0,1,256.46,343.29Z" transform="translate(-133.59 -90.26)"/><path class="cls-17" d="M274.09,304.86" transform="translate(-133.59 -90.26)"/><path class="cls-17" d="M213.5,312.25a9.17,9.17,0,0,1,7.74-3.34,13.68,13.68,0,0,1,7.92,3.4,37.56,37.56,0,0,1,3.43,3.48l2.09,2.31c.32.36.67.81.55,1.28a1.32,1.32,0,0,1-.53.66c-.62.45-1.36.72-2,1.2-.75.59-1.24,1.46-2,2.07-1.16,1-2.74,1.19-4.1,1.82-1.75.81-3.12,2.28-4.86,3.09a14.79,14.79,0,0,1-6.42.89,9.92,9.92,0,0,0,8.43-3.66,6.42,6.42,0,0,1,1.43-1.55,5.91,5.91,0,0,1,1.37-.57,9.93,9.93,0,0,0,2.28-1.14c.73-.48,1.47-1.24,1.3-2.1a2.45,2.45,0,0,0-.65-1.09c-1.86-2.16-3.84-4.4-6.49-5.45a14.1,14.1,0,0,0-2.79-.71A40.41,40.41,0,0,0,213.5,312.25Z" transform="translate(-133.59 -90.26)"/><path class="cls-18" d="M220.61,317.48l.64.15c0,.26-.31.4-.55.51a5.94,5.94,0,0,0-1.75,1.12c-.1.09-.2.21-.17.33s.25.2.41.19c1,0,1.94-.47,2.94-.52a6.88,6.88,0,0,1,1.62.18,7.1,7.1,0,0,1,2.24.82,3.19,3.19,0,0,1,1.46,1.83,1,1,0,0,1-.75-.33,7.28,7.28,0,0,0-4.77-1.58,23.68,23.68,0,0,0-4,.76,6.66,6.66,0,0,1-4-.15C216.33,319.46,218.8,318.33,220.61,317.48Z" transform="translate(-133.59 -90.26)"/><path class="cls-19" d="M228.29,319.23a1.13,1.13,0,0,1,.08.9c-.49-.1-1-.23-1.46-.36l-3.36-.89c-.2-.05-.43-.15-.45-.35a5.92,5.92,0,0,1,2.18,0c0-.29-.3-.48-.58-.58a12,12,0,0,0-2.43-.67,7.46,7.46,0,0,1,4.71.5,3,3,0,0,1,1,.56C228.24,318.62,228.41,319,228.29,319.23Z" transform="translate(-133.59 -90.26)"/><path class="cls-13" d="M218.71,307.63a25.67,25.67,0,0,1,7.35.9,5,5,0,0,0,1.25.25,18.09,18.09,0,0,0,1.8-.24,3.27,3.27,0,0,1,3.34,2.79c0,.26,0,.53.09.79a2.78,2.78,0,0,0,1.39,1.68c.64.39,1.36.65,2,1.08a4,4,0,0,1,1.76,2.91,3.12,3.12,0,0,1-1.56,2.94,5,5,0,0,0,2.1-1,2.82,2.82,0,0,0,1-2c0-1.37-1.15-2.45-2.33-3.16s-2.52-1.29-3.25-2.45c-.46-.71-.63-1.57-1.08-2.28-.9-1.43-2.68-2-4.33-2.35a20.83,20.83,0,0,0-7.66-.45A4,4,0,0,0,218.71,307.63Z" transform="translate(-133.59 -90.26)"/><path class="cls-13" d="M216.25,308.62a3.31,3.31,0,0,0-1.6,1c.14.16.4.11.6,0a3,3,0,0,0,1-.74.41.41,0,0,0,.12-.2C216.42,308.61,216.39,308.57,216.25,308.62Z" transform="translate(-133.59 -90.26)"/><path class="cls-4" d="M265.79,385.23c-.39-.11-.68-.27-1-.34-1.9-.4-3.8-.76-5.69-1.18a44.16,44.16,0,0,1-13.45-5.45,17.28,17.28,0,0,1-6-6.75,16.79,16.79,0,0,1-1.71-4.07,14,14,0,0,0-.93-2.28,33.53,33.53,0,0,1-2.64-10.25c-.25-2.45-.38-4.91-.47-7.37a21.15,21.15,0,0,0-.36-2.62c-.11-.71-.28-1.42-.36-2.13A21.67,21.67,0,0,0,228,330.45a22,22,0,0,0-1.8-1.66c-.65.37-1.19.66-1.72,1a9.22,9.22,0,0,1-7.15.86,7,7,0,0,1-3.84-2.8c.16-.09.26-.2.38-.22a7.27,7.27,0,0,0,3.88-2.38c.81-.86,1.59-1.75,2.43-2.58.57-.57,1.22-1,1.81-1.72-.76.13-1.52.24-2.27.4a12.55,12.55,0,0,1-4.88.31,3.63,3.63,0,0,1-2.52-1.65c.17-.06.28-.15.39-.14a5.53,5.53,0,0,0,3.25-.58c1.7-.82,3.37-1.71,5.2-2.65-1.54-1.35-2.66-3-4.68-3.49a3.57,3.57,0,0,0-3.93,1.05,1.75,1.75,0,0,1-1.26.85,2.6,2.6,0,0,1,0-.77c.8-3.43,2.34-6.35,5.69-7.94a14.07,14.07,0,0,1,6.24-1.19c1,0,1.95,0,3,0-.26-1.32-.89-2.71.67-3.75.12.23.22.39.3.56s.15.34.27.62c.62-2.7,1.79-4.74,4.78-5.21a8.84,8.84,0,0,0-1,5c.71-1.08,1.22-2.16,2.67-2.26-.14.68-.26,1.3-.41,2.05l1.93-1.54a10.26,10.26,0,0,1,5.08-2c3.79-.6,7.28.4,10.68,1.92,1.05.47,2.09,1,3.16,1.37a6.23,6.23,0,0,0,5.15-.36,2.7,2.7,0,0,0,1.7-2.57,4.81,4.81,0,0,1,.69.86,4.41,4.41,0,0,1,.13,2.89c-.07.28-.18.55-.31.95a3.09,3.09,0,0,0,2-1.5c.44,1.16.2,1.95-1.18,4l1.85-.53c-.24,1.11-.86,1.87-2.75,3.35l1.72.25a3.65,3.65,0,0,1-1.69,1.57c3.59,1.42,6.49,3.89,9.7,5.84a42,42,0,0,0,5.72,3.08,6,6,0,0,0,2.77.41,26.17,26.17,0,0,0,9-2.47,30.82,30.82,0,0,0,5.78-3.55c2.68-2,5.33-4.06,7.89-6.22a26.38,26.38,0,0,0,4.58-4.86,6.66,6.66,0,0,0,.85-1.76,2.86,2.86,0,0,1,2.73-2.17c.72,0,1.45-.12,2.17-.08a15.56,15.56,0,0,0,5.9-.92A94.48,94.48,0,0,0,330,293.62a47.66,47.66,0,0,0,7.1-4.43,17.28,17.28,0,0,0,3.77-4,2.57,2.57,0,0,0,.27-.52c.4-1,.75-2,1.18-2.91a48,48,0,0,0,4-14.76c.16-1.73.39-3.46.47-5.2.07-1.21-.1-2.43-.09-3.64s.11-2.56.19-3.83a20.1,20.1,0,0,0-.16-5.69c-.07-.32-.11-.64-.18-1.09a6.41,6.41,0,0,1,1.6,1.36,27.49,27.49,0,0,1,4.15,5.72,66.32,66.32,0,0,1,4.77,9.06,37.24,37.24,0,0,1,2.26,9.45c.6,5.68-.68,11.09-2.37,16.44-.19.63-.42,1.24-.63,1.87,0,0,0,.06,0,.18l.54-.32c1.24-.8,2.47-1.62,3.73-2.4a1,1,0,0,1,.79-.12c.12,0,.18.46.15.7-.52,3.63-.7,7.32-1.93,10.83a49.49,49.49,0,0,1-4.6,10c-1.11,1.78-2.27,3.53-3.4,5.28l.74-.49c.27-.19.53-.39.79-.6.45-.38.87-.8,1.34-1.16.65-.5,1.32-1,2-1.41.34-.22.73-.52,1.17-.19a1,1,0,0,1,.29,1.18,25.49,25.49,0,0,1-1.06,3.78,27,27,0,0,1-10,12.18c-1.48,1-2.94,2.05-4.4,3.12a15.52,15.52,0,0,0,3.5-1.7c.2-.13.38-.28.58-.39.5-.26.83-.05.8.53a2.57,2.57,0,0,1-.17.66,14.26,14.26,0,0,1-.91,2.07,26.06,26.06,0,0,1-5.49,6.79,49.59,49.59,0,0,1-7.1,5.29,2.25,2.25,0,0,0-.32.3,5.53,5.53,0,0,0,.71,0,14.92,14.92,0,0,0,4.62-1.32.56.56,0,0,1,.26-.12c.22,0,.58-.07.62,0a.9.9,0,0,1,0,.7,18.61,18.61,0,0,1-1.33,2,22.46,22.46,0,0,1-6.32,5.28l-2.48,1.39c.65.26,1.13.5,1.65.66a76.38,76.38,0,0,0,16.25,3.39c.36,0,.72.05,1.09.05a106.68,106.68,0,0,0,12.89-.49,24.81,24.81,0,0,0,7.62-1.86l.63-.29,3.56-1.67c.3,1,.3,1-.41,1.43a26.91,26.91,0,0,1-9.9,3.39,90.61,90.61,0,0,1-14.07.59,52.3,52.3,0,0,1-12.59-2.1l-1.56-.4c.51,1.73.92,3.4,1.51,5a4.36,4.36,0,0,0,3.47,3c1.48.27,2.94.66,4.39,1.07a49.92,49.92,0,0,0,8,1.27c3.52.42,7,.79,10.59.91a45.27,45.27,0,0,0,7.27-.42c.78-.1,1.57-.18,2.35-.23a2.13,2.13,0,0,1,1.11.25,13.17,13.17,0,0,1-1.68.64,29.46,29.46,0,0,1-9.49.75c-3-.28-6-.65-9-1-1.54-.16-3.08-.23-4.61-.42a29.53,29.53,0,0,1-3.38-.61c-2.08-.51-4.13-1.09-6.19-1.64a1.31,1.31,0,0,0-.38-.09c-2.9.16-5.75-.45-8.64-.57a1.84,1.84,0,0,0-.31.06c.21.17.34.32.51.43a44.93,44.93,0,0,0,7.62,4.3c.31.13.53.46.82.65a3.11,3.11,0,0,0,.93.46q4.47,1.17,9,2.3c2.29.57,4.57,1.25,6.9,1.61A65.69,65.69,0,0,0,367.84,375c1.61-.06,3.22.11,4.83.17a2,2,0,0,1,.33.08v.21c-1.05.15-2.1.37-3.16.43a53.56,53.56,0,0,1-10.81-.36,65.53,65.53,0,0,1-7.08-1.24l-11.22-3a1.84,1.84,0,0,1-.47-.15c-1.89-1.08-3.88-.92-5.91-.53a44.49,44.49,0,0,1-7.65.67l-.7,0,.73.4c1.25.65,2.53,1.25,3.75,2a42.83,42.83,0,0,0,4.82,2.46,46.22,46.22,0,0,0,10.56,3c3.46.61,6.9,1.33,10.36,1.91a36.63,36.63,0,0,0,4.8.47c3.81.16,7.62.23,11.43.33h1.05c0,.34.05.61.07.94a8.53,8.53,0,0,1-.93.07c-4.6-.1-9.21-.08-13.79-.38a65.54,65.54,0,0,1-8.56-1.3,79.42,79.42,0,0,1-10-2.27c-.5-.17-1-.37-1.49-.5-1-.27-1.85-1-2.95-1s-2.1.08-3.15.16c-2.91.23-5.82.48-8.9.74.38.11.66.18.93.27L332,381c.17.06.45.19.47.31.1.67.66.66,1.1.79,1.76.54,3.56,1,5.28,1.59a9.49,9.49,0,0,0,3.36.56c.38,0,.82,0,1,.51a39.42,39.42,0,0,1-4.09,0c-.34-.14-.55-.26-.76-.32l-6.14-1.79a2,2,0,0,0-.58-.12c-1.8,0-3.61,0-5.41.13a71.53,71.53,0,0,1-8.66.26c-2-.12-4.06-.12-6.1-.22a20.36,20.36,0,0,1-3-.33,1.55,1.55,0,0,0-1.36.29c-.95.69-1.92,1.36-2.88,2-.1.07-.15.21-.23.31-.6,0-1.2,0-1.85,0,1.09-.8,2.25-1.54,3.4-2.29a3.45,3.45,0,0,0,.51-.5c-1.93-.39-3.81-.66-5.63-1.18a52.07,52.07,0,0,0-7.11-1.44,3,3,0,0,0-2.87,1,17.68,17.68,0,0,1-6.12,4.19,4.41,4.41,0,0,0-.64.42c-1,0-2,0-3,0,1.51-.68,3.09-1.24,4.6-1.94a15.86,15.86,0,0,0,4.61-3.38c-.45-.07-.73-.13-1-.16a17.73,17.73,0,0,1-5.43-1.29,17.23,17.23,0,0,0-8.4-1c-1.6.12-3.19.4-4.78.62-.89.13-1.77.28-2.78.44l6.76,6.79c-.47,0-.94,0-1.52-.05-1.18-1.26-2.23-2.48-3.32-3.66-.87-.94-1.78-1.83-2.7-2.72a1.52,1.52,0,0,0-1.62-.41c-.87.28-1.79.4-2.65.7a17.54,17.54,0,0,1-8.53.72l-1.09-.18a2.88,2.88,0,0,0,1.8,1.58,56.46,56.46,0,0,0,8.28,2.11c2.54.51,5.08,1,7.62,1.51a5.42,5.42,0,0,1,1,.41Zm73.88-60.46c-1.52.84-3,1.72-4.57,2.51a22.29,22.29,0,0,1-7,2c-.26,0-.59.19-.81-.29a7.85,7.85,0,0,1,.84-.25,20,20,0,0,0,6.83-2.36c4.89-2.9,9.79-5.76,13.95-9.71a24.64,24.64,0,0,0,4-4.71,60.81,60.81,0,0,0,4-7.24,40.82,40.82,0,0,0,3.7-15c-1.15.77-2.28,1.5-3.38,2.25a7,7,0,0,0-2.56,3.16,63.48,63.48,0,0,1-10.77,17.33,26.3,26.3,0,0,1-6.7,5.6,13.54,13.54,0,0,1-2.76,1,1.85,1.85,0,0,1-1.52-.3c.55-.21,1-.35,1.4-.52a19.55,19.55,0,0,0,2.25-1,25.58,25.58,0,0,0,6.19-5.16,59.87,59.87,0,0,0,8.12-11.35A66.93,66.93,0,0,0,357.53,284a33.43,33.43,0,0,0,.74-12.32,32.49,32.49,0,0,0-3.67-11.37c-1-1.71-2-3.37-3.07-5-.85-1.36-1.76-2.69-2.65-4a7,7,0,0,0-.51-.57c0,.43,0,.64,0,.85,0,1.41,0,2.83,0,4.24,0,2,0,3.94-.08,5.91,0,1-.13,2-.18,2.94a5.57,5.57,0,0,0,0,1.47,19.33,19.33,0,0,1,.29,5.78c-.2,2.36-.43,4.71-.66,7.06a15.26,15.26,0,0,1-2.64,7.44,8.08,8.08,0,0,0-.57,1.14,40.19,40.19,0,0,1-1.77,3.61c-1,1.56-2.08,3-3.12,4.54a12.86,12.86,0,0,1-2.94,3.17,5.29,5.29,0,0,0-1.88,2.67,13.88,13.88,0,0,1-1.66,3.66,34.23,34.23,0,0,1-6.21,6.57,13.49,13.49,0,0,1-3.09,1.91,7.84,7.84,0,0,0-.72.44c.44,0,.64,0,.83,0,1.11-.1,2.22-.24,3.33-.32a3.23,3.23,0,0,1,.89.19,2.94,2.94,0,0,1-.36.85c-.55.65-1.14,1.27-1.74,1.87a21.26,21.26,0,0,1-10.49,6.12c-.43.1-.85.23-1.28.34,1.45.26,2.86-.14,4.46.06a4.87,4.87,0,0,1-.58,1.15,16.38,16.38,0,0,1-5.07,4.15,29.77,29.77,0,0,1-7.85,2.53c-.59.09-1.17.26-1.75.39l0,.24a23.77,23.77,0,0,0,2.93-.2c.94-.19,1.52.49,1,1.32a11.88,11.88,0,0,1-1.57,2.12,19.11,19.11,0,0,1-11.1,5.27c-.8.11-1.6.18-2.48.28.14.17.18.27.26.32,2,1.23,3.43,3.14,5.19,4.67.17.15.39.51.33.63a1.25,1.25,0,0,1-.68.44c-.66.21-1.35.3-2,.55-1.16.45-2.28,1-3.6,1.56.54.16.93.29,1.33.4a12.37,12.37,0,0,1,5.86,3.46c.86.9,1.84,1.68,2.78,2.5a2.15,2.15,0,0,0,.75.45c3.3.91,6.59,1.86,10.08,1.38.48-.06,1,0,1.47-.05a29.85,29.85,0,0,0,8.22-1.42,59.59,59.59,0,0,0,9.3-4.25,23,23,0,0,0,5.76-4.58c.29-.31.54-.65.95-1.13-.39.11-.58.15-.76.21a12.46,12.46,0,0,1-5.41.77,2.15,2.15,0,0,0-.87.11,33.25,33.25,0,0,1-9.52,1.88,24.64,24.64,0,0,1-6.86-.45,19,19,0,0,1-5.67-1.89,4.71,4.71,0,0,1-.45-.33,22.43,22.43,0,0,1,3.42.62,30.72,30.72,0,0,0,14.33.36,23,23,0,0,0,10.15-4.75c.95-.77,1.87-1.57,2.84-2.3a26.9,26.9,0,0,0,5.84-6.74,13.13,13.13,0,0,0,.8-1.59,2.25,2.25,0,0,0-.85.26c-4.65,2.22-9.31,4.42-14.5,5.16-2.4.34-4.79.8-7.19,1.1-2.73.34-5.44-.16-8.15-.42a17,17,0,0,1-2.18-.55l0-.22a10.39,10.39,0,0,1,1.25-.14q1.42,0,2.85.09a35.64,35.64,0,0,0,7.08.06c1-.14,2-.26,2.92-.43a43.08,43.08,0,0,0,11.69-3.72,64.61,64.61,0,0,0,7.51-4.69,27.36,27.36,0,0,0,9.69-12,10.51,10.51,0,0,0,.88-3.35,8.36,8.36,0,0,0-2.22,1.45c-1.07.86-2.1,1.8-3.25,2.55a65.65,65.65,0,0,0-6.54,4.71,27.38,27.38,0,0,1-2.52,1.73C341.74,323.46,340.76,324.07,339.67,324.77Zm-92.55,14.3.16-.76c.39.74.69,1.28,1,1.83a20.25,20.25,0,0,0,5.06,6.35,6.79,6.79,0,0,0,.65.41,48.7,48.7,0,0,0,.24-5,48.55,48.55,0,0,0-.71-4.94l.17-.09c.64.88,1.27,1.78,1.93,2.65a7.1,7.1,0,0,0,2.58,2.09,10,10,0,0,0,3.16,1.14c-.07-.69-.12-1.3-.2-1.91-.2-1.66-.4-3.32-.64-5a3.74,3.74,0,0,0-.94-1.92c-.61-.67-1.17-1.38-1.83-2.18a4,4,0,0,1,2.19,1.42,7.77,7.77,0,0,0,5.55,3,4.69,4.69,0,0,0,1.87.12c-1.26-3.24-2.2-6.55-4.69-9.13a.83.83,0,0,1,.49.06,4.59,4.59,0,0,1,1.74,1.56,2.23,2.23,0,0,0,.58.64,15.25,15.25,0,0,0,1.68.81,18.72,18.72,0,0,0,6.52,1.32,9.63,9.63,0,0,0,3.77-.73,15.45,15.45,0,0,1-4.05-3.16,21.67,21.67,0,0,0-4.28-3.29l-.73-.46.69,0c1.61,0,3.22,0,4.83,0a12.13,12.13,0,0,0,5.55-1.5,2.25,2.25,0,0,0,.41-.32c-1-.31-2.05-.54-3-.94a22.58,22.58,0,0,1-3.52-1.74c-2.61-1.65-5.18-3.35-7.71-5.13a21.11,21.11,0,0,0-5.55-2.69,7.8,7.8,0,0,1-2.62-1.32,1,1,0,0,1-.51-1.05,1.86,1.86,0,0,1,.54.13c.29.16.53.38.81.56a4,4,0,0,0,2.22.72,2,2,0,0,0,1.83-.92l-1.42-.35c.05.48-.18.61-.57.65a3.47,3.47,0,0,1-2.15-.56l-1.09-.67c-.14-.08-.36-.2-.43-.15-.66.45-.93-.08-1.29-.45-.84-.87-1.66-1.77-2.57-2.57a14.82,14.82,0,0,0-6.78-3.22,13.24,13.24,0,0,0-7.89,1c-.25.1-.5.18-.75.26l-.13-.19a4.51,4.51,0,0,1,.7-.9,10,10,0,0,1,6.69-2.46,20.52,20.52,0,0,1,3.86.73,6.55,6.55,0,0,1,2.35,1,3.34,3.34,0,0,0,2,.61c-1-.53-2-1-3-1.48a14.11,14.11,0,0,0-4.78-1.28,11.81,11.81,0,0,0-8.94,3.1,1.76,1.76,0,0,0-.59,1c-.25,1.66-.26,3.29,1.25,4.48a2.25,2.25,0,0,1,.85,1.9,6.71,6.71,0,0,0,.28,1.83,4.09,4.09,0,0,0,2.28,2.9,2,2,0,0,1,.6.5,2.77,2.77,0,0,1,.73,2.36,4.76,4.76,0,0,1-2.67,3.78c-.5.25-1,.52-1.51.72a59.27,59.27,0,0,0-7,3.52,1.46,1.46,0,0,0-.8,1.25,7.11,7.11,0,0,0,.81,4c.37.76.7,1.55,1,2.34.38,1,.75,2,1.07,3,.47,1.5.93,3,1.32,4.53a27.87,27.87,0,0,1,.45,2.8,28.36,28.36,0,0,0,3.35-7.58,6,6,0,0,1,.11,1.68c-.07,1.05-.2,2.09-.27,3.14a12.24,12.24,0,0,0,.53,5.54c.5,1.25,1.1,2.45,1.67,3.67a4.65,4.65,0,0,0,.47.6c0-1.75-.13-3.33,0-4.89.15-1.79.49-3.57.8-5.35a12.59,12.59,0,0,1,.52-1.65l.26,0a14.75,14.75,0,0,0,5,9.72c.06-1.18.11-2.28.17-3.38C246.87,343.09,247,341.16,247.12,339.07Zm95.46-55.18a17.13,17.13,0,0,1-4.91,5.83,61.06,61.06,0,0,1-7,4.57,65.66,65.66,0,0,1-12.2,4.95,17,17,0,0,1-4.14.8c-1.07.08-2.14.27-3.22.41a1,1,0,0,0-.91.62c-.43.84-1,1.64-1.46,2.45a19.6,19.6,0,0,1-3.7,4.7,65.5,65.5,0,0,1-8.87,6.7c-1.75,1.05-3.47,2.13-5.25,3.12-1.32.72-2.7,1.34-4.07,2-1,.43-2,.78-3,1.17v.17l6.89,1c.25.42-.1.68-.35,1a30.63,30.63,0,0,1-4.71,4.18c-.89.65-1.79,1.27-2.68,1.91a15.25,15.25,0,0,1,6.18.89,1.09,1.09,0,0,0,.67,0,60.31,60.31,0,0,0,5.57-2.46,43.55,43.55,0,0,0,11.48-9.67,55,55,0,0,0,6.68-10,2.91,2.91,0,0,0,.18-.35c.29-.9.3-.9,1.23-1,.42-.05.83-.16,1.25-.22a45.19,45.19,0,0,0,9.32-2.44,37.17,37.17,0,0,0,10.77-6.39,16.91,16.91,0,0,0,2.87-3.23c1.16-1.6,2.28-3.22,3.41-4.83.14-.21.39-.61.33-.68-.55-.58.12-.89.29-1.25.42-.92.94-1.8,1.44-2.69a13.68,13.68,0,0,0,1.73-4.58,90.38,90.38,0,0,0,1.11-11.26,3.09,3.09,0,0,0-.08-.6,2.33,2.33,0,0,0-.34.94,60.48,60.48,0,0,1-1.71,6.87C344.63,279,343.31,281.24,342.58,283.89Zm-20.32,29.36a26.61,26.61,0,0,0,3.07-1.53,28.84,28.84,0,0,0,5.46-5,13.11,13.11,0,0,0,3.09-5.08c.06-.2.09-.4.18-.83a41.59,41.59,0,0,1-19.45,7c-.42.81-.83,1.59-1.25,2.37a45.49,45.49,0,0,1-6.53,9.59,48.81,48.81,0,0,1-8,7.12,23.17,23.17,0,0,1-5.21,3,10.42,10.42,0,0,0-3.52,1.58c-.79.68-1.74,1.17-2.55,1.83a20.13,20.13,0,0,1-4.07,2.91c-.09,0-.15.16-.19.22a14.3,14.3,0,0,1,1.71.83,10.47,10.47,0,0,0,4.5,1.58,18.42,18.42,0,0,0,8-.37,17.83,17.83,0,0,0,7.86-4.5,4.76,4.76,0,0,0,1.23-1.68l-.67.13a9.4,9.4,0,0,1-4.47-.32,2.56,2.56,0,0,1-.79-.4.41.41,0,0,1,.08-.72,2.41,2.41,0,0,1,.66-.2c1.16-.22,2.32-.42,3.48-.65,4.34-.88,8.44-2.25,11.68-5.46l.08-.06.57-.59-3.06.21a11.5,11.5,0,0,1-3.6-.43c-.3-.08-.63-.21-.52-.57.05-.18.35-.35.57-.4.51-.11,1-.13,1.56-.22,4.17-.69,8.11-1.94,11.36-4.8,1-.85,1.92-1.7,2.87-2.56.15-.14.27-.33.49-.59h-.51c-1.87.08-3.73.17-5.6.22a5.57,5.57,0,0,1-1.46-.19.75.75,0,0,1-.52-.44c-.06-.35.29-.34.55-.39C320.26,313.72,321.18,313.51,322.26,313.25Zm-43.37,63a16.07,16.07,0,0,0,5-.25A63,63,0,0,0,295,372.48c.18-.07.34-.18.61-.32-3.09-1.7-5.39-4.2-7.91-6.44-1.45-1.28-3-2.46-4.52-3.65a4.44,4.44,0,0,0-2.91-1c-2.56,0-5.11-.05-7.67.17a14.94,14.94,0,0,1-7.72-1.63c-.24-.12-.5-.21-.9-.38.38.92.71,1.66,1,2.43.54,1.51,1.05,3,1.55,4.56a2.78,2.78,0,0,0,1.17,1.51,28.15,28.15,0,0,1,4.74,3.84c1,1,2.06,2,3.05,3.07A4.69,4.69,0,0,0,278.89,376.21Zm18.35-17.62c-1.73-1.84-3.42-3.71-5.22-5.49a16.9,16.9,0,0,0-4.6-3.34,2.56,2.56,0,0,0-1.22-.26,40.1,40.1,0,0,1-8.34-.2c-.74-.12-1.47-.27-2.32-.42a3.49,3.49,0,0,0,.34.49,22.17,22.17,0,0,1,5,9.07,13.61,13.61,0,0,0,.65,1.75,1,1,0,0,0,.52.51,20.48,20.48,0,0,1,5.53,3.71,3,3,0,0,0,1.64.78,33.84,33.84,0,0,0,9.32.11,9.15,9.15,0,0,0,4-1.4,5.91,5.91,0,0,0,.66-.62A19.85,19.85,0,0,1,297.24,358.59Zm-63.76-48.14a4,4,0,0,0-1.34-1.91,16.46,16.46,0,0,0-3.44-1.65,20,20,0,0,0-8.48-.44,10,10,0,0,0-5.17,2.23,8.92,8.92,0,0,0-2.39,3.84,1.56,1.56,0,0,0,.62-.3,9.63,9.63,0,0,1,7.9-1.87,8.31,8.31,0,0,1,5.93,3.82c.67,1.09,1.37,2.15,2.08,3.21.41.6.86,1.16,1.28,1.74a1.48,1.48,0,0,1,.21,1.31,2.49,2.49,0,0,1-1.78,1.91,14.08,14.08,0,0,0-5.56,3.25c-.79.73-1.72,1.32-2.58,2a5.8,5.8,0,0,1-3.49,1.15h-2.15a11.65,11.65,0,0,0,1.82,1,8.17,8.17,0,0,0,6.77-.32c1-.56,2.06-1.17,3-1.82,1.31-.88,2.54-1.87,3.85-2.73a36.36,36.36,0,0,1,6.29-3.25,15.35,15.35,0,0,0,2.12-1,3.73,3.73,0,0,0,1.8-3.11c.09-1.2-.74-1.89-1.68-2.46-1.21-.73-2.38-1.52-3.61-2.2A4.24,4.24,0,0,1,233.48,310.45Zm47,49.42c0-.13-.09-.25-.13-.38a24,24,0,0,0-5.62-9.93,13,13,0,0,1-.77-1.12,1.62,1.62,0,0,0-.62-.55c-1.41-.54-2.85-1-4.26-1.54-2.11-.81-4.45-1-6.42-2.36a7,7,0,0,1,.53,3.37c-.08,1.9-.23,3.8-.33,5.7a20.64,20.64,0,0,0-.15,3.43,2,2,0,0,0,1.06,1.63,15.89,15.89,0,0,0,10,2.16,13.41,13.41,0,0,1,1.67-.13c1.48,0,2.95.05,4.43.08C280.1,360.23,280.41,360.42,280.47,359.87Zm37.72,10.27c1.22,0,2.43.1,3.64.12.92,0,1.84,0,2.76,0,1.15,0,2.3,0,3.44-.06,2.49-.2,5-.47,7.45-.72a2.77,2.77,0,0,0,.48-.11,51.37,51.37,0,0,1-6.51-4c-2.49-1.54-5.28-2.32-8-3.31a2.43,2.43,0,0,0-1.89.08,27.3,27.3,0,0,1-10,2.18c-.66,0-1.33.14-1.74.18.41.51.84,1.1,1.32,1.63a13,13,0,0,0,4.5,3.12,9.35,9.35,0,0,0,2,.69A25.25,25.25,0,0,0,318.19,370.14Zm-60.44-5.31-2.69-2c.08.35.12.57.19.78.45,1.47.93,2.94,1.34,4.42a11,11,0,0,1,.53,2.69,2.88,2.88,0,0,0,1.54,2.72c.68.39,1.34.84,2,1.25s1.61.89,2.35,1.43a7.07,7.07,0,0,0,5.43,1.11c1.43-.19,2.87-.33,4.3-.52,1-.13,2-.18,2.8-.36-.62-.72-1.25-1.48-1.9-2.21a43,43,0,0,0-6-5.57,1.58,1.58,0,0,0-.67-.34A21,21,0,0,1,257.75,364.83Zm35.1,4.35c1.08.75,2.15,1.51,3.23,2.24a1.57,1.57,0,0,0,.81.27,16.93,16.93,0,0,1,6.7,1.36,3.54,3.54,0,0,0,1.12.31,10.66,10.66,0,0,0,3.88-.53l5.38-2.15c.07,0,.1-.14.17-.25a15,15,0,0,1-6.3-4.46,4.77,4.77,0,0,0-1.93-1.29,3.32,3.32,0,0,0-3.26.23,8.77,8.77,0,0,1-4.15,1.42,32.7,32.7,0,0,1-7.66.09c-.29,0-.6,0-1.13,0Zm16,8,1.42-1A1.63,1.63,0,0,0,310,376a60.44,60.44,0,0,1-8-2.63,22.59,22.59,0,0,0-3.7-1,1.81,1.81,0,0,0-1.9.4,2,2,0,0,1-.69.37,54.25,54.25,0,0,1-11,3.69c-.52.1-1,.24-1.73.41.33.14.44.2.56.24.28.1.56.2.84.28a29.14,29.14,0,0,0,8.05,1.07,23.36,23.36,0,0,1,7.08,1,2.94,2.94,0,0,0,2.46,0,2.57,2.57,0,0,1,.76-.19A16.49,16.49,0,0,0,308.81,377.19Zm13.56-20.71a32.28,32.28,0,0,1-7.55,1.38l.55.3,5,2.57a4.46,4.46,0,0,0,.55.2,50.1,50.1,0,0,0,11.62,2.38c1.23.08,2.46.22,3.85.35-.17-.28-.25-.42-.34-.54a8,8,0,0,1-1.19-2.68c-.24-1-.52-2-.85-2.93a3.37,3.37,0,0,0-2.38-2.38,12.3,12.3,0,0,1-2.35-1,1.16,1.16,0,0,0-1.1,0C326.28,354.91,324.4,355.66,322.37,356.48Zm8.54,18.63-1.61-1a17.86,17.86,0,0,0-6.67-2.52c-2.21-.31-4.44-.46-6.66-.68a1.09,1.09,0,0,0-.47.08l-8,3.34c.21.07.41.17.63.22,1.5.33,3,.66,4.51,1,1.9.38,3.79.75,5.7,1.1a41.93,41.93,0,0,0,10.5.25c1.46-.09,2.92-.25,4.62-.4Zm-78.38-4a18.46,18.46,0,0,1-6.39-6.13,1.17,1.17,0,0,0-.08.59c.14,2.19.3,4.38.41,6.57a1.86,1.86,0,0,0,.71,1.33c1.38,1.34,2.81,2.66,4.06,4.13a3.22,3.22,0,0,0,2.12,1.21,18.11,18.11,0,0,0,10.3-1.18c-.32-.23-.6-.44-.89-.63-1.27-.82-2.57-1.59-3.79-2.47-.91-.67-1.69-1.51-2.91-1.61a1.38,1.38,0,0,1-.46-.18Zm-5.7-13a8.6,8.6,0,0,0-1.1,3.24,2.73,2.73,0,0,0,.23,1.61,17.45,17.45,0,0,0,7.86,7.89c.87.47,1.76.92,2.86,1.5-.43-1.73-.77-3.23-1.16-4.71-.28-1.08-.65-2.14-1-3.21a17,17,0,0,0-3-6c-1.12-1.4-2.08-2.94-3-4.31C248,355.29,247.44,356.61,246.83,358.06Zm55.07,3.36a26,26,0,0,1,2.55,1.67,1.56,1.56,0,0,0,1.13.41l4.53-.19a25.2,25.2,0,0,0,5.73-.86c1.21-.35,2.4-.78,3.82-1.24a40.08,40.08,0,0,0-6.52-3.11A3.06,3.06,0,0,0,312,358a21.6,21.6,0,0,1-9.17-1.47,1.86,1.86,0,0,0-.84-.1c-1.45.18-2.65,1.05-4.1,1.49A18.43,18.43,0,0,0,301.9,361.42Zm-16.47-13.68a3.66,3.66,0,0,0-.1-.56,13.08,13.08,0,0,0-4.07-5.57,5,5,0,0,0-2.79-1.24,26.28,26.28,0,0,1-7.38-2c-.27-.12-.56-.2-.84-.3a19.5,19.5,0,0,1,2.27,5.11,10.67,10.67,0,0,0,2.11,4.18,1.82,1.82,0,0,0,1.2.7c1.83.2,3.65.46,5.48.56,1.26.08,2.54-.06,3.77-.09A3.37,3.37,0,0,1,285.43,347.74ZM263,359.31a5.39,5.39,0,0,0-1.9-2.22,23.07,23.07,0,0,1-5.08-5.17c-.16-.23-.35-.43-.57-.7a1.55,1.55,0,0,0-.13.34c-.29,1.61-.59,3.22-.86,4.84-.14.87-.26,1.74-.33,2.62a3.66,3.66,0,0,0,1.59,3.34,21.49,21.49,0,0,0,9.53,4.65c.2,0,.41,0,.78.07C265,364.44,264.06,361.94,263,359.31Zm26.45-11.45c2.54-.06,4.63-1.5,7-2.21a3.32,3.32,0,0,0-.2-.32,33.44,33.44,0,0,0-4.91-4.53,1.62,1.62,0,0,0-.79-.32,18.93,18.93,0,0,1-6.74-2,20.83,20.83,0,0,0-2.77-1,3.22,3.22,0,0,0-1.68,0c.68.76,1.25,1.39,1.8,2,.21.25.55.53.54.78,0,.46.23.64.49.88a13,13,0,0,1,3.63,4.94c.17.43.39.84.57,1.26a.74.74,0,0,0,.74.53C287.87,347.93,288.58,347.91,289.47,347.86Zm36.1,32c-1-.28-2-.56-3-.82-3.24-.84-6.49-1.65-9.72-2.49a1.94,1.94,0,0,0-1.69.24c-.62.43-1.26.83-1.88,1.26a16.78,16.78,0,0,1-5.25,2.4,3.43,3.43,0,0,0-.44.19,56.51,56.51,0,0,0,6.36,1c1.59.13,3.21.05,4.82.05,3.41,0,6.83,0,10.24,0,1.31,0,2.62-.24,3.94-.37l0-.25Zm-48.08-49.82a2.32,2.32,0,0,0,.76.09,16.6,16.6,0,0,0,5.31-2.27c1.75-1.28,3.39-2.69,5.08-4.06.26-.21.48-.49.78-.79-1.72-.29-3.3-.57-4.88-.82-.91-.15-1.82-.3-2.73-.38a1.31,1.31,0,0,0-.88.26,10.64,10.64,0,0,1-6.58,2.52c-1.2.06-2.39,0-3.6,0,.08.07.16.16.26.24,1.17,1,2.38,2,3.51,3A14.16,14.16,0,0,0,277.49,330.08ZM254.77,345.9a5.27,5.27,0,0,0,.93,4.18,28.08,28.08,0,0,0,5.06,5.6c.34.29.73.52,1.21.86v-.91c0-1.28,0-2.55,0-3.83.05-1.48.19-2.95.18-4.42a22.69,22.69,0,0,0-.33-2.72c-.1-.75-.56-1.06-1.29-1.26a10.79,10.79,0,0,1-5.27-2.88c-.06-.06-.17-.06-.18-.07,0,1.21-.05,2.41-.11,3.62C255,344.62,254.87,345.17,254.77,345.9Zm-15,20c.93,2.69,4.23,6,5.8,6.62,0-.24-.07-.46-.08-.69a71.89,71.89,0,0,0-1-9.48,4.13,4.13,0,0,0-.49-1.46,32.44,32.44,0,0,1-3.08-6.15,5.93,5.93,0,0,0-.29-.58c-.5,1.77-1,3.36-1.39,4.95A10.13,10.13,0,0,0,239.82,365.88Zm29.32-27.65a4.6,4.6,0,0,0-.64-.74,2,2,0,0,0-.86-.34c-1.14-.13-2.3-.1-3.41-.34a24.06,24.06,0,0,1-3.12-1.09s0,0,0,.1c.28,1.84.53,3.69.86,5.53a14.26,14.26,0,0,0,.62,2l10.22,3.26c-.49-1.51-1-3.07-1.51-4.6A10.65,10.65,0,0,0,269.14,338.23Zm-16,20.78a.88.88,0,0,0,.18-.29c.13-.87.19-1.76.39-2.62a24.84,24.84,0,0,0,.81-6.12,3.17,3.17,0,0,0-1.2-2.65,17.43,17.43,0,0,1-4.88-5.34,5.94,5.94,0,0,0-.44-.58c-.17,1.32-.27,2.52-.47,3.7a9.27,9.27,0,0,0,.48,5c.06.15.16.35.12.47-.24.57.11,1,.31,1.47A29.24,29.24,0,0,0,253.15,359ZM244,346.85l-2.39-4.11a17.92,17.92,0,0,0-.73,4.87c.1,1.61.3,3.21.26,4.81a6.2,6.2,0,0,0,.84,2.93c.85,1.7,1.78,3.35,2.68,5a3.21,3.21,0,0,0,.33.43c.44-1.07.79-2.13,1.29-3.11a19.25,19.25,0,0,0,1.5-4.15,4.17,4.17,0,0,0-1-3.69C245.86,348.85,244.92,347.93,244,346.85Zm32.17-12.5c-.14-.18-.27-.37-.43-.54a3.69,3.69,0,0,0-3-1.42,5.74,5.74,0,0,1-1.36-.16,18.35,18.35,0,0,1-5.09-1.36c0,.14-.08.22-.06.27.59,1.46,1.19,2.91,1.76,4.38a1.85,1.85,0,0,0,1.16,1.11c1.57.58,3.12,1.22,4.71,1.74a29.35,29.35,0,0,0,5.87,1.19c-.24-.33-.38-.55-.54-.75a9.72,9.72,0,0,1-1.6-2.08A15.87,15.87,0,0,0,276.12,334.35Zm-36.37,18.52a1.88,1.88,0,0,0-.22-1.4,22.72,22.72,0,0,1-2.92-6.42,20,20,0,0,1-.4-2.21l-.09-.62a14.42,14.42,0,0,0-1.46,2.58,1.77,1.77,0,0,0-.11.86c.12,1.93.23,3.85.4,5.78a13.45,13.45,0,0,0,.89,4.9c.62,1.27,1.22,2.54,1.85,3.8a2.94,2.94,0,0,0,.37.5c.44-1.7.89-3.34,1.27-5C239.53,354.79,239.61,353.91,239.75,352.87ZM276.06,332l-.93.32a9.63,9.63,0,0,1,3.06,3.35,1.15,1.15,0,0,0,1.13.58,8.44,8.44,0,0,0,4.74-1.45c1.57-1,3-2.25,4.66-3.49-.45-.22-.72-.38-1-.5a10.93,10.93,0,0,0-5.64-.42A23.23,23.23,0,0,0,279,331C278,331.26,277.13,331.65,276.06,332Zm-60.89-11.49-1,.09v.2a12.29,12.29,0,0,0,1.21.23,13.24,13.24,0,0,0,4.39-.35,8,8,0,0,1,7.28,1.36c.63-.27,1.28-.52,1.9-.82a1,1,0,0,0,.54-1.62,3.41,3.41,0,0,0-1.09-1.35c-2.54-1.41-5.18-2.11-8-.69-1.33.69-2.64,1.44-3.95,2.16a.66.66,0,0,0,.48,0l2.77-1.25c.46-.21.89-.59,1.6-.34A11.43,11.43,0,0,1,215.17,320.54ZM294,350.19c-1.06-.35-2.11-.72-3.17-1.06a5.68,5.68,0,0,0-3.26.07,16.17,16.17,0,0,1,5.19,3.4c1.54,1.41,3,2.9,4.57,4.41l3.51-1.45c-.9-.86-1.76-1.61-2.53-2.45A11.33,11.33,0,0,0,294,350.19Zm-49.66,22.48a17.13,17.13,0,0,1-5.25-6.41,16.09,16.09,0,0,0,4.94,9.3c2.06,1.87,6.2,4.14,7.42,4.13-.07-.13-.12-.25-.19-.36a27,27,0,0,0-4.38-5.16.89.89,0,0,0-.39-.26A5.5,5.5,0,0,1,244.31,372.67Zm-8.38-64.5c-1.09-1.05-1-2.47-1.11-4.05a5.83,5.83,0,0,0-.71,1.07,5.33,5.33,0,0,0-.1,1.18,6.17,6.17,0,0,1-1.25-4.26,6.55,6.55,0,0,0-.15,3.28,4,4,0,0,0,3.4,3.05A.5.5,0,0,0,235.93,308.17Zm24.74-3.68-.81.13v.14l1.3.13a1.28,1.28,0,0,1-.9.94,12.33,12.33,0,0,1-1.31.4c-.37.1-.75.17-1.25.28,2.42.78,5.34-.84,5.24-2.64C262.26,304.07,261.55,304.27,260.67,304.49Zm-30.79-2.35a5.23,5.23,0,0,0,.9,3.22c.07-.7.4-1.41,0-2.07a3.5,3.5,0,0,1-.33-2.57c.06-.29.11-.58.18-.87s.14-.55.21-.82A4.62,4.62,0,0,0,229.88,302.14ZM263,306.55l-1.26.18c-.41.07-.82.17-1.23.26l0,.12,1,.13a5,5,0,0,1-2.46,1.4,4.07,4.07,0,0,0,4.23-2.15A2.08,2.08,0,0,0,263,306.55ZM237.2,363c.18.41.35.81.53,1.21a3.89,3.89,0,0,0,.1-2,31.47,31.47,0,0,0-1.71-3.18L236,359Zm23.42-59.32a.32.32,0,0,0,0,.09s0,.08,0,.08.21,0,.25-.06a4.17,4.17,0,0,0,.69-2.93c-1.36,1.95-3.23,2.38-5.46,2.44,1.91.61,3.29-.29,4.91-1C260.87,302.81,260.77,303.17,260.62,303.65Z" transform="translate(-133.59 -90.26)"/><path class="cls-4" d="M251.68,309.64a17.45,17.45,0,0,1-2.11-.15,5.6,5.6,0,0,0-2.53.17,1.73,1.73,0,0,0,.37.16,8.45,8.45,0,0,1,4.9,2.9,4.74,4.74,0,0,0,3,1.78,6,6,0,0,1,.69.2,2.67,2.67,0,0,1-2.76-.44c-.8-.72-1.59-1.46-2.47-2.26-.5.39-1,.76-1.46,1.15a4.12,4.12,0,0,1-4.21,1,18.25,18.25,0,0,1-2.68-1.44c-.17-.1-.31-.23-.48-.34-.91.39-1.8,1-2.88.29.13-.11.19-.21.26-.21a4.33,4.33,0,0,0,2.75-1.16,11.48,11.48,0,0,1,4.84-2.3,12.29,12.29,0,0,1,4.86.45S251.75,309.53,251.68,309.64Zm-7,3.11a1.87,1.87,0,0,0,2.43.23,1.38,1.38,0,0,0,.28-2.29c.17,1.32-.23,2.05-1.19,2.11s-1.44-.43-1.48-1.46a1.17,1.17,0,0,1,.26-.1c.38,0,.76-.08.7-.59,0-.35-.49-.48-1-.34-.33.1-.55.31-.5.63A10.9,10.9,0,0,0,244.71,312.75Z" transform="translate(-133.59 -90.26)"/><path class="cls-4" d="M263.66,314.32c1.67,1.45,3.25,2.88,4.89,4.25.93.78,1.94,1.45,2.92,2.17a4.13,4.13,0,0,1,.79.67,19.12,19.12,0,0,1-8.86-1.15c.78,1.24,1.45,2.38,2.19,3.47.58.83,1.26,1.6,1.88,2.41.2.26.36.56.65,1-3.39-.6-6.28-1.62-8.42-4.17a18.39,18.39,0,0,0,7.5,3.43,22.43,22.43,0,0,1-4.65-7.11c2.48,1.46,5.21,1.44,8.05,1.77a3.12,3.12,0,0,0-.27-.38,54.35,54.35,0,0,1-6.13-5.1,13.71,13.71,0,0,0-1.64-1.41,18.58,18.58,0,0,0-1.84-1.06,1.27,1.27,0,0,1,.49-.14A5.22,5.22,0,0,1,263.66,314.32Z" transform="translate(-133.59 -90.26)"/><path class="cls-4" d="M254.27,335.91a9,9,0,0,1-1.6-3.06l.17-.1A21.73,21.73,0,0,0,254.2,335a20.17,20.17,0,0,0,1.95,2.08c.66.63,1.37,1.21,2.22,1.95a19.63,19.63,0,0,0-1.07-4.6c-.6-1.35-1.39-2.62-2-4,.28.25.58.49.83.76a10,10,0,0,1,2.15,4.58c.3,1.3.48,2.63.72,4-.71,0-.72,0-2.49-1.63C255.77,337.38,255.05,336.67,254.27,335.91Z" transform="translate(-133.59 -90.26)"/><path class="cls-4" d="M258.8,330.14c.72.53,1.39,1,2,1.52a8.43,8.43,0,0,0,2.36,1.32,16.77,16.77,0,0,0-1.69-4.67c-.79-1.42-1.95-2.6-2.58-4.11a16.35,16.35,0,0,1,5,9.49,7,7,0,0,1-3.05-1.31c-1.5-1.11-3-2.24-4.41-3.32C257,329,257,329,258.8,330.14Z" transform="translate(-133.59 -90.26)"/><path class="cls-4" d="M243,337.16a16.19,16.19,0,0,0,1.57,4.34,35.55,35.55,0,0,0,1.54-6c.06.18.19.36.17.53-.11,1-.23,2-.41,3-.15.8-.42,1.58-.57,2.39-.12.62-.13,1.27-.2,2a3.7,3.7,0,0,1-1.47-2.15,10.53,10.53,0,0,1-1-6.86,2.5,2.5,0,0,1,.25.58C242.93,335.69,242.94,336.38,243,337.16Z" transform="translate(-133.59 -90.26)"/><path class="cls-4" d="M250.92,342.49a2.92,2.92,0,0,1-.63-.55,16.68,16.68,0,0,1-2.73-5.62,4.07,4.07,0,0,1-.11-.78,3.58,3.58,0,0,1,0-.53c.47.2.42.62.49.93a15,15,0,0,0,2.23,4.89,2.5,2.5,0,0,0,.68.7c.13-2.51.67-5-.24-7.47a2.58,2.58,0,0,1,1,2.08c0,1.8,0,3.6-.09,5.4A.86.86,0,0,1,250.92,342.49Z" transform="translate(-133.59 -90.26)"/><path class="cls-4" d="M239.93,310.94a24.94,24.94,0,0,0,2.06-1.61,9.19,9.19,0,0,1,4.35-2.35,2.8,2.8,0,0,1,1.88.27,2.4,2.4,0,0,1-.61.2,6.57,6.57,0,0,0-4,1.63c-.65.55-1.27,1.14-2,1.65a4.27,4.27,0,0,1-2.79,1C239.05,311.15,239.55,311.19,239.93,310.94Z" transform="translate(-133.59 -90.26)"/><path class="cls-4" d="M243.22,318c-.17,3.17-1.55,4.71-4.5,5.41.68-.57,1.27-1.08,1.88-1.57a4.48,4.48,0,0,0,1.68-4.8,3.52,3.52,0,0,1,0-.58C243,316.62,243,316.62,243.22,318Z" transform="translate(-133.59 -90.26)"/><path class="cls-4" d="M235.4,337.43c-.22.6-.41,1.13-.66,1.83-.69-1-.3-2-.71-2.87s-.67-1.66-1-2.59c.81.46.93.67,2,3.41a20.39,20.39,0,0,0,.67-2.07,15.25,15.25,0,0,0,.26-2.14c.07-.71.1-1.42.22-2.12A12.62,12.62,0,0,1,235.4,337.43Z" transform="translate(-133.59 -90.26)"/><path class="cls-4" d="M239.64,335c-.12.42-.21.76-.3,1.11-1-.78-1.57-3.45-1.18-5.54.56.7.37,1.49.54,2.17s.21,1.38.41,2.08c.86-1.39,1.07-3,1.71-4.43A14.32,14.32,0,0,1,239.64,335Z" transform="translate(-133.59 -90.26)"/><path class="cls-4" d="M247.29,320.29a1.27,1.27,0,0,1,.61.07c.84.35,1.67.74,2.52,1.09a9.9,9.9,0,0,0,1.18.32c-.43-1.68-1.73-2.63-2.52-4a6.27,6.27,0,0,1,3,4.25C250.94,322.47,248.86,321.75,247.29,320.29Z" transform="translate(-133.59 -90.26)"/><path class="cls-4" d="M245.79,322.57c-.19-.74-.37-1.4-.58-2.16,1.37,1.54,1.47,4.64.28,6.79-.16-.07-.39-.1-.47-.23-.78-1.19-1.52-2.41-2.29-3.63a2.72,2.72,0,0,1,1.54,1.46c.35.61.66,1.25,1,2A8.61,8.61,0,0,0,245.79,322.57Z" transform="translate(-133.59 -90.26)"/><path class="cls-4" d="M245.93,314.64c.9,0,1.72,0,2.53-.06.37,0,.75-.27,1.13,0-1.18,1.35-5.32,1-6.85-.54.16-.38.42-.19.66-.12Z" transform="translate(-133.59 -90.26)"/><path class="cls-4" d="M250.67,325.56c0-.2-.06-.32-.08-.49.9.85,1.24,3.18.7,4.91a6.86,6.86,0,0,1-3.47-3.05,5.89,5.89,0,0,1,1.56,1.15l1.72,1.38A11.33,11.33,0,0,0,250.67,325.56Z" transform="translate(-133.59 -90.26)"/><path class="cls-4" d="M241.27,327.07c-.05-1.05-.1-2-.15-3a4.84,4.84,0,0,1,.26,4.57,10.15,10.15,0,0,1-3.4-3.14,3.51,3.51,0,0,1,1.52,1.08c.48.44.94.89,1.51,1.43C241.11,327.67,241.19,327.41,241.27,327.07Z" transform="translate(-133.59 -90.26)"/><path class="cls-4" d="M234.81,326.68c0-.36.07-.63.12-1.05.61,1.38.36,2.92-.68,4.8a10.12,10.12,0,0,1-2.17-3.39c.53.24.52.25,1.1,1.16l.95,1.47A7,7,0,0,0,234.81,326.68Z" transform="translate(-133.59 -90.26)"/><path class="cls-4" d="M243.42,329.34c.38.85.72,1.65,1.08,2.51.85-.81.83-2,1.31-2.89a4,4,0,0,1-.77,2.85c-.31.41-.77.46-.95.07-.41-.89-.75-1.83-1.13-2.74l.33-.25A3.32,3.32,0,0,0,243.42,329.34Z" transform="translate(-133.59 -90.26)"/><path class="cls-4" d="M256.41,319.58l-1.6-2c.73.23,1.69,1.36,2.59,3.09a11.18,11.18,0,0,1-3.3-.55l0-.26,2.56.27C256.58,319.88,256.52,319.75,256.41,319.58Z" transform="translate(-133.59 -90.26)"/><path class="cls-4" d="M237.63,306.48a.85.85,0,0,1,.21-.19,5.13,5.13,0,0,1,1.25,2.92,6.87,6.87,0,0,1-.18,1h-.21a2,2,0,0,1-.19-.6,3.84,3.84,0,0,0-.7-2.31A2,2,0,0,1,237.63,306.48Z" transform="translate(-133.59 -90.26)"/><path class="cls-4" d="M254.71,315.64c-1.88,0-3.54-.78-4-1.9,1.56.56,2.79,1.73,4.47,1.66A3.16,3.16,0,0,1,254.71,315.64Z" transform="translate(-133.59 -90.26)"/><path class="cls-4" d="M239.81,308.54c-.22-.67-.43-1.26-.64-1.84a2,2,0,0,1,.43-1.83,20.21,20.21,0,0,0,.28,2.09c.16.63.56,1.2.27,2A1.89,1.89,0,0,1,239.81,308.54Z" transform="translate(-133.59 -90.26)"/><path class="cls-4" d="M260.06,315.57l.59.36a4.68,4.68,0,0,1-3.41-.24c1,0,1.87,0,2.8-.07C260.07,315.56,260.06,315.57,260.06,315.57Z" transform="translate(-133.59 -90.26)"/><path class="cls-4" d="M260.08,315.55c-.71-.88-1.42-1.76-2.24-2.75a5.48,5.48,0,0,1,2.28,2.7Z" transform="translate(-133.59 -90.26)"/><path class="cls-4" d="M240.28,305.65c.19-.32.36-.56.53-.81l.2.11c-.11.56-.23,1.13-.34,1.73C240.28,306.33,240.28,306.33,240.28,305.65Z" transform="translate(-133.59 -90.26)"/><path class="cls-4" d="M244,305l-.9.54c0-.95.62-1.33,1.61-1Z" transform="translate(-133.59 -90.26)"/><path class="cls-4" d="M241.76,306.11c-.21-1,0-1.33,1-1.5A14.21,14.21,0,0,1,241.76,306.11Z" transform="translate(-133.59 -90.26)"/><path class="cls-4" d="M314.17,301.81c-1,2.44-1.41,2.76-3.93,3-2,2.41-3.63,5.07-6.15,6.92-1.79,1.32-3.65,2.57-5.54,3.73-2.6,1.6-5.26,3.09-7.9,4.62-.31.17-.64.47-1.15.16a3.61,3.61,0,0,1,.48-.48q1.23-.83,2.49-1.59c3-1.84,6.07-3.64,9.09-5.49a18.88,18.88,0,0,0,4.81-4.32c1-1.26,2-2.51,3-3.78a.93.93,0,0,1,.82-.42,3,3,0,0,0,2.95-1.9,2.53,2.53,0,0,1,.28-.51c.21-.26.44-.25.71.06Z" transform="translate(-133.59 -90.26)"/><path class="cls-4" d="M314.18,301.83c-.14-.45.18-.56.51-.64,1.5-.36,3-.71,4.49-1.09a38.82,38.82,0,0,0,7.79-3c.89-.45,1.83-.81,2.75-1.21l.11.2c-.34.22-.67.47-1,.67a44.42,44.42,0,0,1-7.52,3.37,34.24,34.24,0,0,1-7.05,1.6C314.17,301.81,314.18,301.82,314.18,301.83Z" transform="translate(-133.59 -90.26)"/><path class="cls-4" d="M310.12,317.4c.27-.38.47-.72.72-1a29,29,0,0,0,3.58-6c0-.09.09-.17.13-.26a2.69,2.69,0,0,1,2.58-1.7,20,20,0,0,0,3.95-.76c1.23-.3,2.44-.71,3.85-1.14a11,11,0,0,1-4.29,1.91A13.43,13.43,0,0,1,316,309c-.49,1-.95,2-1.47,2.9-.69,1.23-1.37,2.47-2.16,3.63a67.94,67.94,0,0,1-6.18,7.79,35.37,35.37,0,0,1-11.45,8.19c-.95.43-1.95.71-3.09,1.12.12-.28.15-.48.26-.55a4.22,4.22,0,0,1,.88-.43,32,32,0,0,0,10.11-6A44.08,44.08,0,0,0,310.12,317.4Z" transform="translate(-133.59 -90.26)"/><path class="cls-4" d="M286.2,336.46c.36-.54.72-1,1.08-1.47a6.31,6.31,0,0,1,3.46-2.12,4,4,0,0,1,.8,0,2.09,2.09,0,0,1-.41.45,9.39,9.39,0,0,1-1.14.58,7.43,7.43,0,0,0-2.66,2.13C287.05,336.34,286.79,336.82,286.2,336.46Z" transform="translate(-133.59 -90.26)"/><path class="cls-4" d="M219.51,307a20.13,20.13,0,0,1,8,0,6.67,6.67,0,0,1,1.3.45,1.09,1.09,0,0,1,.66.87c-.12,0-.19.09-.23.07-2.36-1.26-4.91-1.27-7.48-1.13a20.77,20.77,0,0,0-4.56.74c-.08,0-.18,0-.38,0A7.72,7.72,0,0,1,219.51,307Z" transform="translate(-133.59 -90.26)"/><path class="cls-4" d="M237.73,315.42c-.28-.19-.49-.36-.85-.64,3.27.53,3.48,2.87,2.62,4.82a1.84,1.84,0,0,1-.92.84,12.4,12.4,0,0,1-2.93.78c.21-.11.41-.24.62-.33.39-.17.79-.32,1.19-.48a2.66,2.66,0,0,0,1.8-3.36,2.27,2.27,0,0,0-.59-1A4.42,4.42,0,0,0,237.73,315.42Z" transform="translate(-133.59 -90.26)"/><path class="cls-4" d="M230.39,310.31c-.31-.23-.57-.42-.82-.63a1.47,1.47,0,0,1,1.78-.43,2.14,2.14,0,0,1,1.07,2.34C231.75,311.17,231.11,310.75,230.39,310.31Z" transform="translate(-133.59 -90.26)"/><path class="cls-4" d="M285.56,325.28a41.3,41.3,0,0,1-3.58,2.18,9.23,9.23,0,0,1-4.75.78l-.05-.21c.35-.09.69-.18,1-.25l1.07-.19a13.73,13.73,0,0,0,6.78-3.36,3.34,3.34,0,0,0,.41-.54l-5.88-.21c.78-.64,1.47-.27,2.1-.3a19.65,19.65,0,0,1,2.17,0c.68,0,1.35.11,2.09.17C286.81,324.34,286.13,324.72,285.56,325.28Z" transform="translate(-133.59 -90.26)"/><path class="cls-4" d="M259.25,345.32a3.75,3.75,0,0,1,.91,2.31,13.62,13.62,0,0,1-.45,5c0,.09-.12.16-.21.27-.75-.18-1-.9-1.34-1.43-1.88-2.68-2.33-3.68-2.29-5,.55,1,1,2,1.54,2.87s1.16,1.81,1.84,2.87a9.48,9.48,0,0,0,.43-4.87C259.56,346.64,259.38,346,259.25,345.32Z" transform="translate(-133.59 -90.26)"/><path class="cls-4" d="M269.64,344.15c-.12.23-.21.46-.37.53a1.08,1.08,0,0,1-.58-.06,12.57,12.57,0,0,1-4.41-2.07,1,1,0,0,1-.58-1,15.77,15.77,0,0,0,5.47,2.68,15.12,15.12,0,0,0-2.09-5.2A8.16,8.16,0,0,1,269.64,344.15Z" transform="translate(-133.59 -90.26)"/><path class="cls-4" d="M252.35,351.72c-.08-.8-.16-1.51-.24-2.25,1.12.95,1.08,4-.05,6.42-1.2-.84-2.95-4-2.8-5.36.47.9.84,1.63,1.23,2.35s.86,1.46,1.34,2.27A6,6,0,0,0,252.35,351.72Z" transform="translate(-133.59 -90.26)"/><path class="cls-4" d="M243.82,356.59l.38.63c1.58-1.93,1.32-4.1.94-6.43,1.52,2.24,1,5.22-.88,7.4-2-2-2.09-4.58-2.11-7.19a2.59,2.59,0,0,1,.28.55,9,9,0,0,1,.23,1.36A8,8,0,0,0,243.82,356.59Z" transform="translate(-133.59 -90.26)"/><path class="cls-4" d="M275,336.59c-.1.16-.24.34-.34.32a17.32,17.32,0,0,1-4.64-1.19c-.1-.05-.17-.17-.4-.41l4.8,1.17c-.3-1.13-1.25-1.63-2-2.58A4.92,4.92,0,0,1,275,336.59Z" transform="translate(-133.59 -90.26)"/><path class="cls-4" d="M237.53,355.66a10.23,10.23,0,0,0,.31-5.14c1.29,1.8.89,5.42-.58,6.66-1.13-1.21-2.23-6-1.66-7.73.21.91.23,1.63.35,2.33a18.9,18.9,0,0,0,.55,2.09c.22.72.48,1.42.74,2.21A3.13,3.13,0,0,0,237.53,355.66Z" transform="translate(-133.59 -90.26)"/><path class="cls-4" d="M281.29,331.42a6.86,6.86,0,0,1,4.6-.05,2.38,2.38,0,0,1,.33.18,8.57,8.57,0,0,1-5.4,2.94,17.71,17.71,0,0,0,4.57-2.85c-2.09-.58-4,.26-5.91.61C279.94,331.69,280.62,331.67,281.29,331.42Z" transform="translate(-133.59 -90.26)"/><path class="cls-4" d="M227.19,318.41c.25.19.42.35.6.51l-.1.22a12.13,12.13,0,0,0-5.57-1l-.05-.18a1.48,1.48,0,0,1,.49-.27,7.19,7.19,0,0,1,3.56.36C226.47,318.12,226.8,318.26,227.19,318.41Z" transform="translate(-133.59 -90.26)"/><path class="cls-5" d="M346.2,251.82a8.18,8.18,0,0,0-4.28-2,31.68,31.68,0,0,0-9.52-.69c-2.48.2-5.37,1-6.19,3.32a5.91,5.91,0,0,0-.24,2.25,22.46,22.46,0,0,0,5.47,13.18,34.58,34.58,0,0,0,11.7,8.66c3.15,1.5,6.88,2.64,10.15,1.29a9.77,9.77,0,0,0,5.07-5.61,15.28,15.28,0,0,0-.8-12.63,18.37,18.37,0,0,0-9.77-8.36C346.94,250.86,345.69,250.77,346.2,251.82Z" transform="translate(-133.59 -90.26)"/><path class="cls-10" d="M344.13,322.05c-2.51-7-5.15-13.91-8.1-20.7a163.81,163.81,0,0,0-9.5-19.37c.51-.76,1-1.51,1.54-2.26a5.41,5.41,0,0,1,1.77-1.85,41.05,41.05,0,0,1,6.3-.78,5.18,5.18,0,0,0,1.76-.32c.43-.19.8-.49,1.24-.65a4.51,4.51,0,0,1,2.44.08,34.43,34.43,0,0,0,7.09.68,10,10,0,0,0,5.52-1.33,8,8,0,0,0,3-6,65.4,65.4,0,0,0-.22-6.85,3.22,3.22,0,0,1,.31-1.76c.65-1.1,2.2-1.23,3.5-1.28a48.28,48.28,0,0,0,14.73-2.93c5.38,4.92,9.59,12.46,12.43,20.28s4.44,16,6.56,24.07a193.47,193.47,0,0,0,7.11,21.77c1.72,4.39,3.63,8.83,3.82,13.55-18.85,1.88-38.14,3.72-56.47-.42C347.72,331.25,345.76,326.54,344.13,322.05Z" transform="translate(-133.59 -90.26)"/><path class="cls-10" d="M301.29,301.42c.54,5.4,1.29,10.87,3.45,15.85a3.42,3.42,0,0,0,.87,1.33,3.23,3.23,0,0,0,1.09.52c2.71.89,5.81,1.2,8.37-.11a14.44,14.44,0,0,0,4.16-3.79,74.43,74.43,0,0,1,7.6-8.27,29.29,29.29,0,0,1,3.58-2.75,7.06,7.06,0,0,1,4-1.44c2,.11,3.51,1.6,4.85,3-.39-6.54-1-11.29-3.17-15.28-1.47-2.73-3.62-5.21-4.15-8.25-.1-.62-.31-1.4-.95-1.44a1.45,1.45,0,0,0-.85.41,52.94,52.94,0,0,0-11.12,12.36,51.23,51.23,0,0,0-3.84,7.1,29.17,29.17,0,0,1,.09-14.08c-3.77-.81-7.58,1.09-11.33,2.11a2.42,2.42,0,0,0-1.05.45,2,2,0,0,0-.52.71C300.62,293.4,300.88,297.53,301.29,301.42Z" transform="translate(-133.59 -90.26)"/><path class="cls-18" d="M363.6,263.2c1.62,1.32,4.11,1.46,5.44,3.05A6,6,0,0,1,370,268a34.21,34.21,0,0,1,2,18.33,57,57,0,0,1-4.47,13.57,23.57,23.57,0,0,1-2.71,4.92c-2.37,3.07-6,4.91-9.49,6.65,3.71.91,7.61-1.25,10.17-4.08s4.24-6.31,6.58-9.32a2.39,2.39,0,0,1,1.61-1.13c.88,0,1.49.79,1.92,1.54,1.67,2.86,3.4,6,2.82,9.29-.61,3.51-3.75,6.26-4.36,9.76a14.19,14.19,0,0,0,10.56-8.4c1.24,4.92,2.41,10.46-.3,14.85-1.74,2.81-4.77,4.59-7.75,6.09A89.36,89.36,0,0,1,360,336.34a101.13,101.13,0,0,0,39.53.46,3.6,3.6,0,0,0,2.09-.89,3.29,3.29,0,0,0,.67-1.9c.67-6.09-.95-12.13-2.69-18a400,400,0,0,0-22.71-58.71C372.79,259.14,368.66,261,363.6,263.2Z" transform="translate(-133.59 -90.26)"/><path class="cls-18" d="M342,275.3c2,4.44,6.76,7,11.18,9.19a3.92,3.92,0,0,0,1.65.54c1.43,0,2.4-1.42,3-2.71a23.33,23.33,0,0,0,1.85-7.5A19.33,19.33,0,0,1,342,275.3Z" transform="translate(-133.59 -90.26)"/><path class="cls-10" d="M347,250.22c-3.61-2.87-8.22-4.32-12.84-5.08-4-.66-8.31-.81-12,1A6.85,6.85,0,0,1,321,243.7a1.28,1.28,0,0,1,0-.82,1.5,1.5,0,0,1,.87-.7,23.09,23.09,0,0,1,18.79.5,14.51,14.51,0,0,1,4.47,3,7.68,7.68,0,0,1,2.23,4.77C347.07,250.58,346.72,250.51,347,250.22Z" transform="translate(-133.59 -90.26)"/><path class="cls-4" d="M314.93,194.41c2.41-4.37,8.63-5.62,13.4-4s8.37,5.37,11.68,9.07c33.42,37.39,59.8,89.4,69.6,138.77a13.67,13.67,0,0,0-4.06-1.91c-.6-.16-1.2-.35-1.8-.5a2.86,2.86,0,0,0-.72-.13l-.23,0-.64-.18a12.68,12.68,0,0,0-4-.26,11.39,11.39,0,0,1-1-4c-2.1-16.84-8-32.92-13.87-48.83.8,5.28,2.09,10.46,2.22,15.77s-1.06,10.92-4.67,15c1.9-5.68,1.62-13.14-.68-19.94-1.8-5.29-4.84-10.7-3.38-16.14.56-2.13,1.81-4.13,1.87-6.32.12-3.92-3.48-6.92-4.55-10.68a17.69,17.69,0,0,1-13.49,3.25,49.87,49.87,0,0,1,1.54,8.61,5.17,5.17,0,0,1-.42,3,4.69,4.69,0,0,1-2.21,1.75,13,13,0,0,1-6.77,1.12c1.82-.72,2.55-3.07,2.85-5.23A26.37,26.37,0,0,0,354,259.35a1.92,1.92,0,0,0,0-1.23,5.33,5.33,0,0,0-.16-1.05l0,.41a3.89,3.89,0,0,0-.34-1.43,4,4,0,0,0-.6-.92,4.67,4.67,0,0,0-1.53-1.22,3.56,3.56,0,0,0-1.46-.42,2.58,2.58,0,0,0-1.73.66,2.63,2.63,0,0,0-.76,2.51,4.8,4.8,0,0,1-1-1,8,8,0,0,1-1.27-3.26c-1.33-1.15-4-1.68-6.48-1.67a22.64,22.64,0,0,0-12.48,3.79,19.29,19.29,0,0,1-2.76-4.49c.17-1.08,1.66-1.75,3.05-2.16a22.75,22.75,0,0,1,4.83-.85c5.28-.33,10.44,1.22,15.44,2.8a22.09,22.09,0,0,0-11.74-7.5,22.56,22.56,0,0,0-14,1.05c-1.25-1.38-3.25-3.92-2.19-5.45s5-2.16,6.66-3.09c1.35-.77,3.67-.18,5.15-.66,3.87-1.26,5.85-2.33,9.69-1.1,2.4.77,5.63,1.47,7.82,2.68-.09-.27,6.78,9.76,6.69,9.48-4.94-11.59-18.19-31.84-26.29-41.3a33.5,33.5,0,0,1-6.84.52,2.44,2.44,0,0,1-1-.16,1.23,1.23,0,0,1-.25-.14l-2-1.83a20.92,20.92,0,0,1-2.8-3A6.45,6.45,0,0,1,314.93,194.41Z" transform="translate(-133.59 -90.26)"/><path class="cls-4" d="M346.27,277a28.49,28.49,0,0,1-11.32-7.8,53.77,53.77,0,0,1-7.68-11.38,19.87,19.87,0,0,0,5.44,13.07A20.14,20.14,0,0,0,346.27,277Z" transform="translate(-133.59 -90.26)"/><path class="cls-4" d="M319.48,293.63a6.66,6.66,0,0,0,2.79-3,4.79,4.79,0,0,1,2.31-2.09c4.52,1.22,5.89-.94,7.51-2.92.3-.37.69-.76,1.15-.71a1.37,1.37,0,0,1,.78.46c5.45,5.34,7.81,12.88,11.1,19.71s8.42,13.7,16.06,15.08a7.42,7.42,0,0,0,4-.2,7.57,7.57,0,0,0,3-2.45c4-5.11,4.31-12,4.39-18.45A70.85,70.85,0,0,1,368,309.7a7.31,7.31,0,0,1-1.57,2.16,6.82,6.82,0,0,1-3,1.19,34.25,34.25,0,0,1-5.15.68,5.59,5.59,0,0,1-2.76-.35,5.2,5.2,0,0,1-1.85-1.85,50.24,50.24,0,0,1-6.82-13.93,48.31,48.31,0,0,0,9.87,5q-4.12-4.8-8.23-9.61a18.44,18.44,0,0,0,11.71,2.6,9.34,9.34,0,0,0,3.93-1.19,8,8,0,0,0,3.34-5.43,22.49,22.49,0,0,0-.12-6.45c-.9,3.46-2.17,7.39-5.5,8.88a9.73,9.73,0,0,1-4,.68c-9.43,0-18.34-6.58-20.88-15.39-1.53-.09-3.11-.45-4.69-.57a6.89,6.89,0,0,0-4.58,1,8.42,8.42,0,0,0-2.38,3.66q-1.46,3.48-2.93,7C321.39,289.69,320.23,291.6,319.48,293.63Z" transform="translate(-133.59 -90.26)"/><path class="cls-4" d="M314.94,281a2.89,2.89,0,0,1,3.16,1.61c.69,1.62-.33,3.46-.37,5.23a7,7,0,0,1-.07,1.65,1.3,1.3,0,0,1-1.16,1.05,1.41,1.41,0,0,1-1.11-.83c-1.05-1.87-.16-4.3-.91-6.3a10.7,10.7,0,0,1-.41-1.07,1.31,1.31,0,0,1,.15-1.11C314.46,281,315,280.82,314.94,281Z" transform="translate(-133.59 -90.26)"/><path class="cls-4" d="M377.26,254c1.71-2.69,3.61-5.38,6.35-7.07,4.09-2.53,9.44-2.37,13.89-.68s8.2,4.74,11.78,7.81a15.45,15.45,0,0,1-6.62,2.41,2.45,2.45,0,0,1-1.47-.15,2.42,2.42,0,0,1-.81-.9,23.4,23.4,0,0,0-3.71-4.94,7.34,7.34,0,0,0-5.72-2.08c-2.5.33-4.45,2.31-5.81,4.39s-2.38,4.41-4.11,6.21A59.82,59.82,0,0,1,377.26,254Z" transform="translate(-133.59 -90.26)"/><path class="cls-4" d="M379.22,255.76c3.17.17,5.91,2.05,8.74,3.42,4,2,8.52,2.94,12.69,4.65s8.21,4.38,9.94,8.45a13.85,13.85,0,0,0-5.15,3.13c0-2.62-2.34-4.59-4.58-6-7-4.34-15-6.66-23-8.9-1.09-.31-2.29-.71-2.78-1.69-.7-1.4.57-3.14,2.11-3.59S380.38,255.23,379.22,255.76Z" transform="translate(-133.59 -90.26)"/><path class="cls-4" d="M338.9,305.6a40.38,40.38,0,0,0-4.13-6.48,31.64,31.64,0,0,1-3.72,6.25l3.15-1.44a2,2,0,0,1,.75-.23,2,2,0,0,1,1,.28A21.87,21.87,0,0,1,338.9,305.6Z" transform="translate(-133.59 -90.26)"/><path class="cls-4" d="M355.72,334.05A9.08,9.08,0,0,1,352,332.7c-1.89-1.39-2.5-3.84-3.17-6.06a90.57,90.57,0,0,0-6-14,22.77,22.77,0,0,0-2.47-4.21,20.46,20.46,0,0,0-3.55-3.27,20.27,20.27,0,0,1,2.37,6c2.19,7.85,4.66,15.63,7.12,23.4a3.53,3.53,0,0,0,.65,1.35,3.42,3.42,0,0,0,1.07.72,23.3,23.3,0,0,0,6.24,1.67,64.86,64.86,0,0,1,6.63,1.22,237,237,0,0,0,36-.89C383.05,337.72,369.06,336.67,355.72,334.05Z" transform="translate(-133.59 -90.26)"/><path class="cls-5" d="M301.29,301.42c.54,5.4,1.29,10.87,3.45,15.85a3.42,3.42,0,0,0,.87,1.33,3.23,3.23,0,0,0,1.09.52c2.71.89,5.81,1.2,8.37-.11a14.44,14.44,0,0,0,4.16-3.79,74.43,74.43,0,0,1,7.6-8.27,35.4,35.4,0,0,1-6.55-9.71,13.64,13.64,0,0,1-1.21-3.67,51.23,51.23,0,0,0-3.84,7.1,29.17,29.17,0,0,1,.09-14.08c-3.77-.81-7.58,1.09-11.33,2.11a2.42,2.42,0,0,0-1.05.45,2,2,0,0,0-.52.71C300.62,293.4,300.88,297.53,301.29,301.42Z" transform="translate(-133.59 -90.26)"/><path class="cls-5" d="M330.26,200.62a1.74,1.74,0,0,1-1.28,1.21,1.77,1.77,0,0,1-1.67-.5,1.55,1.55,0,0,1-1.31,1.1,1.49,1.49,0,0,1-1.48-.81.76.76,0,0,1-.28,1.11,1.91,1.91,0,0,1-1.29.14,8,8,0,0,1-6.55-6.45,4,4,0,0,1,.17-2.16,4.19,4.19,0,0,1,1.23-1.55,7.65,7.65,0,0,1,3-1.62,9.05,9.05,0,0,1,2.89-.22,18.76,18.76,0,0,1,10.62,4.71,60.91,60.91,0,0,1,7.81,8.64c17.44,21.16,28.43,38.76,32.73,49.19a2.49,2.49,0,0,1,.32.8,1.63,1.63,0,0,1-.38,1,11.29,11.29,0,0,1-6.08,4.24,17.79,17.79,0,0,1-7.84.37c.49-8.29-3.84-15.94-7.88-23.16-2.59-4.63-5.12-9.3-8-13.76C340.2,215.48,334.46,208.68,330.26,200.62Z" transform="translate(-133.59 -90.26)"/><path class="cls-4" d="M306.23,280.34a19.84,19.84,0,0,1,5-1.16,4.66,4.66,0,0,1,1.9.11,3.51,3.51,0,0,1,1.53,1.14c2,2.49,1.58,6.14.7,9.25a10.47,10.47,0,0,1-2.71,5.09c-1.46,1.32-6.71.17-8.21-1.07-.8,4.16,3.63,5.31,5.38,5.86a7.63,7.63,0,0,1-6.16-1.28,7.18,7.18,0,0,1-2.88-5.44,11,11,0,0,1,.65-3.79A28.74,28.74,0,0,1,306.23,280.34Z" transform="translate(-133.59 -90.26)"/><path class="cls-4" d="M330.53,304.47A49.64,49.64,0,0,0,318,316.68a12.9,12.9,0,0,1-2.1,2.5,7.48,7.48,0,0,1-4.85,1.53,17,17,0,0,1-5-1,3.94,3.94,0,0,1-1.62-.85,3.65,3.65,0,0,1-.79-1.67,61.59,61.59,0,0,1-2.2-19.54c.57,5.62,1.18,11.4,3.84,16.38a4.58,4.58,0,0,0,1.12,1.5,4.81,4.81,0,0,0,2.33.83,21.73,21.73,0,0,0,5.1.18,3,3,0,0,0,1.16-.27,2.89,2.89,0,0,0,.86-.77c2.84-3.36,4.67-7.45,7.73-10.62,2.72-2.82,6.25-4.74,9.72-6.62C332.32,300.36,331.43,302.47,330.53,304.47Z" transform="translate(-133.59 -90.26)"/><path class="cls-5" d="M316.23,282.06a2,2,0,0,1,1.32,1.48,4.59,4.59,0,0,1-.24,1.79,10.69,10.69,0,0,0-.28,2.81,2.12,2.12,0,0,1-.1.94.68.68,0,0,1-.78.41c-.35-.13-.4-.58-.39-.94.06-1.61.31-3.21.4-4.81C316.2,283.12,316.2,282.45,316.23,282.06Z" transform="translate(-133.59 -90.26)"/><path class="cls-5" d="M313,280a5.18,5.18,0,0,1,2.06,3.28,13.33,13.33,0,0,1,.07,3.94,2.08,2.08,0,0,1-.26,1,2.36,2.36,0,0,0-.35.48,1.63,1.63,0,0,0-.05.66,3.2,3.2,0,0,1-.38,1.24c-.24.5-.47,1-.7,1.5a5.68,5.68,0,0,1-.53,1,4.54,4.54,0,0,1-3.85,1.43,4.66,4.66,0,0,1-2.57-.75c-.41-.3-.74-.71-1.13-1.05a2,2,0,0,0-1.4-.56c-.24,0-.5.11-.7,0a.66.66,0,0,1-.25-.5,7.84,7.84,0,0,1,.54-4,22.35,22.35,0,0,1,1.93-3.65,8.33,8.33,0,0,1,2.1-2.57,7.33,7.33,0,0,1,1.89-.91C310.59,280,312,279.33,313,280Z" transform="translate(-133.59 -90.26)"/><path class="cls-4" d="M313.54,280c-2.82,3.91-3.86,8.77-4,13.51-.91-1.86-.58-4.08-.14-6.12.31-1.46.66-2.91,1.06-4.35a15.71,15.71,0,0,1,.72-2.2,2.22,2.22,0,0,1,.84-1.13A1.33,1.33,0,0,1,313.54,280Z" transform="translate(-133.59 -90.26)"/><path class="cls-7" d="M320.36,193.58a3.58,3.58,0,0,0,3.76,3.67,3,3,0,0,0,4.18.15c.46,1.66,2.66,2,4.25,2.71a11.75,11.75,0,0,1,3.6,3c11.24,12.23,21.91,25.5,27.13,41.17a20,20,0,0,1,1.31,6.86,24,24,0,0,1-2,7.69,10.48,10.48,0,0,0,8.87-4.5,2,2,0,0,0,.43-1.09,2.17,2.17,0,0,0-.25-.82,195.31,195.31,0,0,0-29.49-46c-4.67-5.43-9.78-10.72-16.26-13.95a6,6,0,0,0-3.1-.83A2.6,2.6,0,0,0,320.36,193.58Z" transform="translate(-133.59 -90.26)"/><path class="cls-7" d="M352.3,259.36a5.4,5.4,0,0,1-2.63-1.18,2.65,2.65,0,0,1-.86-2.59.89.89,0,0,1,.2-.37.79.79,0,0,1,.34-.2,2.21,2.21,0,0,1,2.44.7c-.12.6-1.33.54-1.34,1.15a.74.74,0,0,0,.2.43C351.19,258,351.84,258.68,352.3,259.36Z" transform="translate(-133.59 -90.26)"/><path class="cls-7" d="M352.76,261.75a15.17,15.17,0,0,1,0,6.15,5.92,5.92,0,0,1-.88,2.3,6,6,0,0,1-2.57,1.91,13.28,13.28,0,0,1-9.76.35,27.4,27.4,0,0,0,6.22,2.73,11.91,11.91,0,0,0,4.34.71A5.08,5.08,0,0,0,354,274a6.22,6.22,0,0,0,.86-3.59A19.06,19.06,0,0,0,352.76,261.75Z" transform="translate(-133.59 -90.26)"/><path class="cls-7" d="M313,295.59a11.76,11.76,0,0,1-4.83,1.24,6.77,6.77,0,0,1,3.18,4.28,20.43,20.43,0,0,1,.48,5.42l0,7a1.12,1.12,0,0,0,.17.73c.4.49,1.2.08,1.67-.36a54.61,54.61,0,0,0,8.5-9.85,83.11,83.11,0,0,1-8.64,4.22A28.3,28.3,0,0,0,313,295.59Z" transform="translate(-133.59 -90.26)"/><path class="cls-7" d="M313.58,283.19a5.39,5.39,0,0,1,1,4.42,6.64,6.64,0,0,1-.56,2.05,4.54,4.54,0,0,1-2.07,2,.62.62,0,0,1-.32.09c-.4,0-.45-.56-.38-.94A27.43,27.43,0,0,1,313.58,283.19Z" transform="translate(-133.59 -90.26)"/><path class="cls-10" d="M407.69,254,404,255a.93.93,0,0,1-.4.06.89.89,0,0,1-.53-.51,16.06,16.06,0,0,0-5.24-5.6,13.33,13.33,0,0,0-7.45-2.13,9.85,9.85,0,0,0-3.48.69,13.77,13.77,0,0,0-3.27,2,39.77,39.77,0,0,0-4.83,4.43,11,11,0,0,1,7.14-7.35,18,18,0,0,1,10.57-.14,15.59,15.59,0,0,1,3.13,1.13,17.89,17.89,0,0,1,2.47,1.59A53.82,53.82,0,0,1,407.69,254Z" transform="translate(-133.59 -90.26)"/><path class="cls-10" d="M408.92,271.9c-1.35-3.13-4.3-5.34-7.47-6.74s-6.61-2.09-9.95-3.07-6.67-2.3-9.14-4.67l-.92,1.77a52.65,52.65,0,0,0,11,4.33c1.37.37,2.76.69,4.12,1.13,4.3,1.38,8.28,4.13,10.29,8.08A9,9,0,0,1,408.92,271.9Z" transform="translate(-133.59 -90.26)"/><path class="cls-11" d="M404,255l-1.71.25a.89.89,0,0,1-.46,0,.76.76,0,0,1-.34-.3,28.23,28.23,0,0,0-4.58-5.17,8.53,8.53,0,0,0-6.52-2,8.32,8.32,0,0,0-4.42,2.4,20.61,20.61,0,0,0-3,4.07q-1.32,2.19-2.49,4.47a13.44,13.44,0,0,1-1.49-3.22,3,3,0,0,1-.19-1.06,3.36,3.36,0,0,1,.77-1.76,13.69,13.69,0,0,1,7.23-5.45,13.37,13.37,0,0,1,5.27-.27A15.75,15.75,0,0,1,404,255Z" transform="translate(-133.59 -90.26)"/><path class="cls-11" d="M407.12,272.48l-1.32.61a14.89,14.89,0,0,0-4.13-4.6,30.3,30.3,0,0,0-8.38-3.8L384,261.56a17,17,0,0,1-2.76-1.12.61.61,0,0,1-.29-.28.64.64,0,0,1,.1-.44l.48-1a95.38,95.38,0,0,0,12.15,4.88c3.72,1.21,7.7,2.29,10.48,5a16.38,16.38,0,0,1,2.84,3.91C407,272.64,406.82,272.61,407.12,272.48Z" transform="translate(-133.59 -90.26)"/><path class="cls-11" d="M322.14,245.64a8.26,8.26,0,0,0,1.4,4.36,2.83,2.83,0,0,1,1.45-.94,20.91,20.91,0,0,1,6.24-1.08,44.36,44.36,0,0,1,15.71,2.1c-3.6-3.45-8.73-5-13.77-5.57C329.51,244.09,325.62,244.12,322.14,245.64Z" transform="translate(-133.59 -90.26)"/><path class="cls-9" d="M344,253.05a23.31,23.31,0,0,0,2.68,5.75,16,16,0,0,1,2.28,5.9,5.71,5.71,0,0,1-7.18,6.65,12.66,12.66,0,0,1-4.61-2.23,26.32,26.32,0,0,1-7.95-9.13c-.79-1.53-1.42-3.43-.51-4.92a4.54,4.54,0,0,1,2-1.59,16.66,16.66,0,0,1,7-1.18A18.33,18.33,0,0,1,344,253.05Z" transform="translate(-133.59 -90.26)"/><path class="cls-9" d="M318.7,195.56a23.52,23.52,0,0,0,3.06,2.48,2.34,2.34,0,0,1,.62.55,1.7,1.7,0,0,1,.19,1.27,1,1,0,0,1-.44.73,1,1,0,0,1-.91-.18,6,6,0,0,1-1.9-1.84A3.94,3.94,0,0,1,318.7,195.56Z" transform="translate(-133.59 -90.26)"/><path class="cls-9" d="M339.3,210.22a40.67,40.67,0,0,1,5.6,7.77,19.17,19.17,0,0,1-5.36-6.35A1.75,1.75,0,0,1,339.3,210.22Z" transform="translate(-133.59 -90.26)"/><path class="cls-9" d="M309.52,281.54c-2.18.73-3.55,2.8-4.66,4.77a7.74,7.74,0,0,0-1,2.38,4,4,0,0,0,.9,3.36c-.23-.26.11-.7.46-.69a1.07,1.07,0,0,1,.83.57,2.73,2.73,0,0,0,.65.81,11.81,11.81,0,0,1-.8-3.06,8.09,8.09,0,0,1,1-4.22A34.37,34.37,0,0,1,309.52,281.54Z" transform="translate(-133.59 -90.26)"/><path class="cls-9" d="M303.52,298.91c.34.77,1.19,1.25,1.45,2a3.77,3.77,0,0,1,.11.83,44.16,44.16,0,0,0,1.14,8.09,1.36,1.36,0,0,1-.68-.75,20.87,20.87,0,0,1-1.67-3.82A18.77,18.77,0,0,1,303.52,298.91Z" transform="translate(-133.59 -90.26)"/><path class="cls-4" d="M161.77,394.56a10.74,10.74,0,0,1,8.6-4.59c3.39,0,6.57,1.54,9.89,2.28-1.31-5.61-1.2-11.84,2-16.75s10.47-7.56,15.05-3.92a12.9,12.9,0,0,1,23.93-5.7,13.77,13.77,0,0,1,27.08-1.79c.29-3.56,4.67-5.76,8.07-4.66s5.6,4.55,6.25,8.06a16.26,16.26,0,0,1,26.75-6.65,11.27,11.27,0,0,1,5.27-13.47A12.28,12.28,0,0,1,309,349.69c1.24-2.9,2.79-5.9,5.53-7.48s6.93-.95,8.13,2c.5-4,1.16-8.34,4-11.24s8.65-3.05,10.29.66a14.35,14.35,0,0,1,25.65-8.08c.4-8.11,5.46-15.61,12.4-19.82s15.47-5.35,23.47-4.06l.09,6.19q.19,13.26.34,26.45.35,28.11.24,56.08c0,2.56.17,6.37.43,10.19l-98.23,2.34c-43.61,1-87.25,2.09-130.86.83l-6.08-.18c-1.2,0-2.41-.07-3.61-.11C159.41,401.09,159.86,397.35,161.77,394.56Z" transform="translate(-133.59 -90.26)"/><path class="cls-11" d="M171,394c4.8-1.52,10,0,14.77,1.48-2.49-5.25-3.47-11.75-.48-16.74s11-6.82,14.73-2.36c-.09-5.52,5.15-10.33,10.68-10.39s10.62,4,12.4,9.26c.8-3.81,1.75-7.72,4-10.87s6.28-5.39,10.08-4.51c5.66,1.32,7.66,8.11,7.81,14,.36-4.41,5.78-7.78,10.21-6.45,4.84,1.43,7.69,6.87,7.41,11.91.73-6.69,5.06-13.23,11.28-15.81a17.37,17.37,0,0,1,18.61,3.82,11.81,11.81,0,0,1,18.92-13.21,8.54,8.54,0,0,1,5.61-7.07,8.77,8.77,0,0,1,8.55,1.78,8.12,8.12,0,0,1,13.26-8.6,12.94,12.94,0,0,1,24.62-6.87,26.71,26.71,0,0,1,35.06-25.64q.19,13.26.34,26.45.35,28.11.24,56.08c0,2.56.17,6.37.43,10.19l-98.23,2.34c-43.61,1-87.25,2.09-130.86.83l-6.08-.18C163.8,399.65,167,395.31,171,394Z" transform="translate(-133.59 -90.26)"/><path class="cls-20" d="M170.48,403.71a10.52,10.52,0,0,1,7.85-5.28c4.45-.61,8.88,1,13.08,2.67,0-3.17.06-6.65,2.13-9,1.87-2.13,5.9-2.28,7.3-.1-1.72-4.75,2.88-10.51,8.11-10.9,5.57-.41,10.65,3.55,13.62,8.28a7.36,7.36,0,0,1,14.68.51,5.93,5.93,0,0,1,6.34-4.9,6.19,6.19,0,0,1,5.34,5.93,9.84,9.84,0,0,1,17.52,1.34,10.7,10.7,0,0,1,6.79-6.46,25.7,25.7,0,0,1,9.61-1.08,5.72,5.72,0,0,1-.66-5.29,8.62,8.62,0,0,1,3.4-3.88,16.24,16.24,0,0,1,23.22,5.27c.62-5.63,1.92-11.62,6.09-15.43a13.34,13.34,0,0,1,22.31,8.72A20.39,20.39,0,0,1,341,367c1.47-1.8,3.43-3.41,5.75-3.62a4.53,4.53,0,0,1,4.66,2.91,14.87,14.87,0,0,1-.05-4.89,5.92,5.92,0,0,1,3.4-4.5c1.83-.69,4.26.26,4.73,2.16a19.57,19.57,0,0,1,.52-6.83,6.88,6.88,0,0,1,4.52-4.79c2.11-.53,4.65.74,5.13,2.82-1.53-9.08,5.2-18.81,14.26-20.5a18.12,18.12,0,0,1,15,4.48q.35,28.11.24,56.08c0,2.56.17,6.37.43,10.19l-98.23,2.34C257.73,403.92,214.09,405,170.48,403.71Z" transform="translate(-133.59 -90.26)"/><path class="cls-4" d="M284.31,349a14.92,14.92,0,0,0-20.16,8.11c1.37-2.1,3.69-3.36,6-4.36A50.25,50.25,0,0,1,284.31,349Z" transform="translate(-133.59 -90.26)"/><path class="cls-4" d="M378.89,367.06a11.55,11.55,0,0,1-11.68,15.07c.47,3-1.19,6-3.58,7.82a18.91,18.91,0,0,1-8.35,3.18,13.8,13.8,0,0,1-6.73-.08c-2.15-.71-4.06-2.58-4.17-4.84a11.69,11.69,0,0,1-18.68-13c-.55,4.86,2.91,9.75,7.56,11.24a12.94,12.94,0,0,0,13.29-3.94,9.38,9.38,0,0,0,17.87-5.41C371.11,378.47,378.39,373.32,378.89,367.06Z" transform="translate(-133.59 -90.26)"/><path class="cls-4" d="M302.38,392A7.74,7.74,0,0,0,288.32,388a9.84,9.84,0,0,0-6.08-5.64,11.22,11.22,0,0,0-10,.85c-2.89,1.92-4.49,5.81-3.29,9.07-1.24-1.92-4-2.23-6.17-1.68a11.71,11.71,0,0,0-8.38,8.49,10.95,10.95,0,0,1,17.86-2.21,14.8,14.8,0,0,1-.11-6.28,7.34,7.34,0,0,1,14.42,2.16,10.15,10.15,0,0,1,7.76-4.2A10.45,10.45,0,0,1,302.38,392Z" transform="translate(-133.59 -90.26)"/><path class="cls-4" d="M230.69,387.62a45.74,45.74,0,0,1-4.22,6.29,6.91,6.91,0,0,1-2.51,2.21c-2.58,1.1-5.36-.92-7.44-2.8a3,3,0,0,1-.94,3.06,7,7,0,0,1-3,1.46,14.65,14.65,0,0,1-10.74-.91c-3.23-1.78-5.49-5.5-4.91-9.14.54,2.5,2.82,4.26,5.17,5.28a12.64,12.64,0,0,0,8.61.79,8.11,8.11,0,0,0,5.73-6.1c1.05,2.6,4.12,3.94,6.91,3.7a14.76,14.76,0,0,0,7.52-3.45C231.22,387.72,231.16,386.79,230.69,387.62Z" transform="translate(-133.59 -90.26)"/></g></svg>